<svg width="450" height="350" xmlns="http://www.w3.org/2000/svg">
  <rect width="100%" height="100%" fill="#ffffff"/>
  <path d="M 50 50 L 100 50 L 150 50 L 200 50 L 200 100 L 250 100 L 300 100 L 350 100 L 350 150 L 350 200 L 350 250 L 350 300 L 400 300" stroke="#ff0000" stroke-width="8" fill="none" opacity="0.7"/>
  <line x1="25" y1="75" x2="75" y2="75" stroke="#000000" stroke-width="4"/>
  <line x1="25" y1="25" x2="25" y2="75" stroke="#000000" stroke-width="4"/>
  <line x1="25" y1="25" x2="75" y2="25" stroke="#000000" stroke-width="4"/>
  <line x1="75" y1="75" x2="125" y2="75" stroke="#000000" stroke-width="4"/>
  <line x1="75" y1="25" x2="125" y2="25" stroke="#000000" stroke-width="4"/>
  <line x1="125" y1="25" x2="175" y2="25" stroke="#000000" stroke-width="4"/>
  <line x1="225" y1="25" x2="225" y2="75" stroke="#000000" stroke-width="4"/>
  <line x1="175" y1="25" x2="225" y2="25" stroke="#000000" stroke-width="4"/>
  <line x1="275" y1="25" x2="275" y2="75" stroke="#000000" stroke-width="4"/>
  <line x1="225" y1="25" x2="275" y2="25" stroke="#000000" stroke-width="4"/>
  <line x1="275" y1="25" x2="325" y2="25" stroke="#000000" stroke-width="4"/>
  <line x1="325" y1="75" x2="375" y2="75" stroke="#000000" stroke-width="4"/>
  <line x1="325" y1="25" x2="375" y2="25" stroke="#000000" stroke-width="4"/>
  <line x1="425" y1="25" x2="425" y2="75" stroke="#000000" stroke-width="4"/>
  <line x1="375" y1="75" x2="425" y2="75" stroke="#000000" stroke-width="4"/>
  <line x1="375" y1="25" x2="425" y2="25" stroke="#000000" stroke-width="4"/>
  <line x1="25" y1="125" x2="75" y2="125" stroke="#000000" stroke-width="4"/>
  <line x1="25" y1="75" x2="25" y2="125" stroke="#000000" stroke-width="4"/>
  <line x1="175" y1="75" x2="175" y2="125" stroke="#000000" stroke-width="4"/>
  <line x1="125" y1="125" x2="175" y2="125" stroke="#000000" stroke-width="4"/>
  <line x1="175" y1="125" x2="225" y2="125" stroke="#000000" stroke-width="4"/>
  <line x1="225" y1="125" x2="275" y2="125" stroke="#000000" stroke-width="4"/>
  <line x1="425" y1="75" x2="425" y2="125" stroke="#000000" stroke-width="4"/>
  <line x1="375" y1="125" x2="425" y2="125" stroke="#000000" stroke-width="4"/>
  <line x1="75" y1="125" x2="75" y2="175" stroke="#000000" stroke-width="4"/>
  <line x1="25" y1="125" x2="25" y2="175" stroke="#000000" stroke-width="4"/>
  <line x1="125" y1="125" x2="125" y2="175" stroke="#000000" stroke-width="4"/>
  <line x1="75" y1="175" x2="125" y2="175" stroke="#000000" stroke-width="4"/>
  <line x1="175" y1="125" x2="175" y2="175" stroke="#000000" stroke-width="4"/>
  <line x1="225" y1="125" x2="225" y2="175" stroke="#000000" stroke-width="4"/>
  <line x1="275" y1="125" x2="275" y2="175" stroke="#000000" stroke-width="4"/>
  <line x1="325" y1="125" x2="325" y2="175" stroke="#000000" stroke-width="4"/>
  <line x1="375" y1="125" x2="375" y2="175" stroke="#000000" stroke-width="4"/>
  <line x1="425" y1="125" x2="425" y2="175" stroke="#000000" stroke-width="4"/>
  <line x1="75" y1="175" x2="75" y2="225" stroke="#000000" stroke-width="4"/>
  <line x1="25" y1="175" x2="25" y2="225" stroke="#000000" stroke-width="4"/>
  <line x1="75" y1="225" x2="125" y2="225" stroke="#000000" stroke-width="4"/>
  <line x1="125" y1="225" x2="175" y2="225" stroke="#000000" stroke-width="4"/>
  <line x1="175" y1="225" x2="225" y2="225" stroke="#000000" stroke-width="4"/>
  <line x1="325" y1="175" x2="325" y2="225" stroke="#000000" stroke-width="4"/>
  <line x1="275" y1="225" x2="325" y2="225" stroke="#000000" stroke-width="4"/>
  <line x1="375" y1="175" x2="375" y2="225" stroke="#000000" stroke-width="4"/>
  <line x1="425" y1="175" x2="425" y2="225" stroke="#000000" stroke-width="4"/>
  <line x1="25" y1="275" x2="75" y2="275" stroke="#000000" stroke-width="4"/>
  <line x1="25" y1="225" x2="25" y2="275" stroke="#000000" stroke-width="4"/>
  <line x1="75" y1="275" x2="125" y2="275" stroke="#000000" stroke-width="4"/>
  <line x1="175" y1="225" x2="175" y2="275" stroke="#000000" stroke-width="4"/>
  <line x1="275" y1="225" x2="275" y2="275" stroke="#000000" stroke-width="4"/>
  <line x1="225" y1="275" x2="275" y2="275" stroke="#000000" stroke-width="4"/>
  <line x1="375" y1="225" x2="375" y2="275" stroke="#000000" stroke-width="4"/>
  <line x1="425" y1="225" x2="425" y2="275" stroke="#000000" stroke-width="4"/>
  <line x1="25" y1="325" x2="75" y2="325" stroke="#000000" stroke-width="4"/>
  <line x1="25" y1="275" x2="25" y2="325" stroke="#000000" stroke-width="4"/>
  <line x1="75" y1="325" x2="125" y2="325" stroke="#000000" stroke-width="4"/>
  <line x1="125" y1="325" x2="175" y2="325" stroke="#000000" stroke-width="4"/>
  <line x1="175" y1="325" x2="225" y2="325" stroke="#000000" stroke-width="4"/>
  <line x1="275" y1="275" x2="275" y2="325" stroke="#000000" stroke-width="4"/>
  <line x1="225" y1="325" x2="275" y2="325" stroke="#000000" stroke-width="4"/>
  <line x1="325" y1="275" x2="325" y2="325" stroke="#000000" stroke-width="4"/>
  <line x1="275" y1="325" x2="325" y2="325" stroke="#000000" stroke-width="4"/>
  <line x1="325" y1="325" x2="375" y2="325" stroke="#000000" stroke-width="4"/>
  <line x1="425" y1="275" x2="425" y2="325" stroke="#000000" stroke-width="4"/>
  <line x1="375" y1="325" x2="425" y2="325" stroke="#000000" stroke-width="4"/>
  <circle cx="50" cy="50" r="7.5" fill="#00ff00" stroke="#333" stroke-width="1"/>
  <circle cx="100" cy="50" r="7.5" fill="#ffff00" stroke="#333" stroke-width="1"/>
  <circle cx="150" cy="50" r="7.5" fill="#ffff00" stroke="#333" stroke-width="1"/>
  <circle cx="200" cy="50" r="7.5" fill="#ffff00" stroke="#333" stroke-width="1"/>
  <circle cx="250" cy="50" r="7.5" fill="#f8f8f8" stroke="#333" stroke-width="1"/>
  <circle cx="300" cy="50" r="7.5" fill="#f8f8f8" stroke="#333" stroke-width="1"/>
  <circle cx="350" cy="50" r="7.5" fill="#f8f8f8" stroke="#333" stroke-width="1"/>
  <circle cx="400" cy="50" r="7.5" fill="#f8f8f8" stroke="#333" stroke-width="1"/>
  <circle cx="50" cy="100" r="7.5" fill="#f8f8f8" stroke="#333" stroke-width="1"/>
  <circle cx="100" cy="100" r="7.5" fill="#f8f8f8" stroke="#333" stroke-width="1"/>
  <circle cx="150" cy="100" r="7.5" fill="#f8f8f8" stroke="#333" stroke-width="1"/>
  <circle cx="200" cy="100" r="7.5" fill="#ffff00" stroke="#333" stroke-width="1"/>
  <circle cx="250" cy="100" r="7.5" fill="#ffff00" stroke="#333" stroke-width="1"/>
  <circle cx="300" cy="100" r="7.5" fill="#ffff00" stroke="#333" stroke-width="1"/>
  <circle cx="350" cy="100" r="7.5" fill="#ffff00" stroke="#333" stroke-width="1"/>
  <circle cx="400" cy="100" r="7.5" fill="#f8f8f8" stroke="#333" stroke-width="1"/>
  <circle cx="50" cy="150" r="7.5" fill="#f8f8f8" stroke="#333" stroke-width="1"/>
  <circle cx="100" cy="150" r="7.5" fill="#f8f8f8" stroke="#333" stroke-width="1"/>
  <circle cx="150" cy="150" r="7.5" fill="#f8f8f8" stroke="#333" stroke-width="1"/>
  <circle cx="200" cy="150" r="7.5" fill="#f8f8f8" stroke="#333" stroke-width="1"/>
  <circle cx="250" cy="150" r="7.5" fill="#f8f8f8" stroke="#333" stroke-width="1"/>
  <circle cx="300" cy="150" r="7.5" fill="#f8f8f8" stroke="#333" stroke-width="1"/>
  <circle cx="350" cy="150" r="7.5" fill="#ffff00" stroke="#333" stroke-width="1"/>
  <circle cx="400" cy="150" r="7.5" fill="#f8f8f8" stroke="#333" stroke-width="1"/>
  <circle cx="50" cy="200" r="7.5" fill="#f8f8f8" stroke="#333" stroke-width="1"/>
  <circle cx="100" cy="200" r="7.5" fill="#f8f8f8" stroke="#333" stroke-width="1"/>
  <circle cx="150" cy="200" r="7.5" fill="#f8f8f8" stroke="#333" stroke-width="1"/>
  <circle cx="200" cy="200" r="7.5" fill="#f8f8f8" stroke="#333" stroke-width="1"/>
  <circle cx="250" cy="200" r="7.5" fill="#f8f8f8" stroke="#333" stroke-width="1"/>
  <circle cx="300" cy="200" r="7.5" fill="#f8f8f8" stroke="#333" stroke-width="1"/>
  <circle cx="350" cy="200" r="7.5" fill="#ffff00" stroke="#333" stroke-width="1"/>
  <circle cx="400" cy="200" r="7.5" fill="#f8f8f8" stroke="#333" stroke-width="1"/>
  <circle cx="50" cy="250" r="7.5" fill="#f8f8f8" stroke="#333" stroke-width="1"/>
  <circle cx="100" cy="250" r="7.5" fill="#f8f8f8" stroke="#333" stroke-width="1"/>
  <circle cx="150" cy="250" r="7.5" fill="#f8f8f8" stroke="#333" stroke-width="1"/>
  <circle cx="200" cy="250" r="7.5" fill="#f8f8f8" stroke="#333" stroke-width="1"/>
  <circle cx="250" cy="250" r="7.5" fill="#f8f8f8" stroke="#333" stroke-width="1"/>
  <circle cx="300" cy="250" r="7.5" fill="#f8f8f8" stroke="#333" stroke-width="1"/>
  <circle cx="350" cy="250" r="7.5" fill="#ffff00" stroke="#333" stroke-width="1"/>
  <circle cx="400" cy="250" r="7.5" fill="#f8f8f8" stroke="#333" stroke-width="1"/>
  <circle cx="50" cy="300" r="7.5" fill="#f8f8f8" stroke="#333" stroke-width="1"/>
  <circle cx="100" cy="300" r="7.5" fill="#f8f8f8" stroke="#333" stroke-width="1"/>
  <circle cx="150" cy="300" r="7.5" fill="#f8f8f8" stroke="#333" stroke-width="1"/>
  <circle cx="200" cy="300" r="7.5" fill="#f8f8f8" stroke="#333" stroke-width="1"/>
  <circle cx="250" cy="300" r="7.5" fill="#f8f8f8" stroke="#333" stroke-width="1"/>
  <circle cx="300" cy="300" r="7.5" fill="#f8f8f8" stroke="#333" stroke-width="1"/>
  <circle cx="350" cy="300" r="7.5" fill="#ffff00" stroke="#333" stroke-width="1"/>
  <circle cx="400" cy="300" r="7.5" fill="#ff0000" stroke="#333" stroke-width="1"/>
</svg>