<svg width="500" height="446.41016151377545" xmlns="http://www.w3.org/2000/svg">
  <rect width="100%" height="100%" fill="#ffffff"/>
  <path d="M 50 223.20508075688772 L 100 223.20508075688772 L 75 179.9038105676658 L 125 179.9038105676658 L 150 223.20508075688772 L 200 223.20508075688772 L 250 223.20508075688772 L 300 223.20508075688772 L 325 266.50635094610965 L 300 309.8076211353316 L 350 309.8076211353316 L 400 309.8076211353316 L 425 266.50635094610965 L 450 223.20508075688772" stroke="#ff0000" stroke-width="8" fill="none" opacity="0.7"/>
  <line x1="25" y1="208.77132402714707" x2="25" y2="237.63883748662838" stroke="#000000" stroke-width="4"/>
  <line x1="50" y1="252.072594216369" x2="75" y2="237.63883748662838" stroke="#000000" stroke-width="4"/>
  <line x1="50" y1="194.33756729740642" x2="25" y2="208.77132402714707" stroke="#000000" stroke-width="4"/>
  <line x1="75" y1="208.77132402714707" x2="50" y2="194.33756729740642" stroke="#000000" stroke-width="4"/>
  <line x1="25" y1="237.63883748662838" x2="50" y2="252.072594216369" stroke="#000000" stroke-width="4"/>
  <line x1="50" y1="252.072594216369" x2="50" y2="280.9401076758503" stroke="#000000" stroke-width="4"/>
  <line x1="75" y1="295.37386440559095" x2="100" y2="280.9401076758503" stroke="#000000" stroke-width="4"/>
  <line x1="50" y1="280.9401076758503" x2="75" y2="295.37386440559095" stroke="#000000" stroke-width="4"/>
  <line x1="75" y1="295.37386440559095" x2="75" y2="324.24137786507225" stroke="#000000" stroke-width="4"/>
  <line x1="100" y1="338.67513459481285" x2="125" y2="324.2413778650722" stroke="#000000" stroke-width="4"/>
  <line x1="125" y1="295.37386440559095" x2="100" y2="280.9401076758503" stroke="#000000" stroke-width="4"/>
  <line x1="75" y1="324.2413778650722" x2="100" y2="338.67513459481285" stroke="#000000" stroke-width="4"/>
  <line x1="150" y1="367.54264805429415" x2="150" y2="338.67513459481285" stroke="#000000" stroke-width="4"/>
  <line x1="100" y1="338.67513459481285" x2="100" y2="367.54264805429415" stroke="#000000" stroke-width="4"/>
  <line x1="150" y1="338.67513459481285" x2="125" y2="324.2413778650722" stroke="#000000" stroke-width="4"/>
  <line x1="100" y1="367.54264805429415" x2="125" y2="381.9764047840348" stroke="#000000" stroke-width="4"/>
  <line x1="125" y1="381.9764047840348" x2="125" y2="410.8439182435161" stroke="#000000" stroke-width="4"/>
  <line x1="150" y1="425.2776749732567" x2="175" y2="410.8439182435161" stroke="#000000" stroke-width="4"/>
  <line x1="125" y1="410.8439182435161" x2="150" y2="425.2776749732567" stroke="#000000" stroke-width="4"/>
  <line x1="50" y1="165.47005383792515" x2="50" y2="194.33756729740642" stroke="#000000" stroke-width="4"/>
  <line x1="75" y1="151.0362971081845" x2="50" y2="165.47005383792515" stroke="#000000" stroke-width="4"/>
  <line x1="100" y1="165.47005383792515" x2="75" y2="151.0362971081845" stroke="#000000" stroke-width="4"/>
  <line x1="125" y1="237.63883748662838" x2="125" y2="208.77132402714707" stroke="#000000" stroke-width="4"/>
  <line x1="100" y1="252.072594216369" x2="125" y2="237.63883748662838" stroke="#000000" stroke-width="4"/>
  <line x1="125" y1="208.77132402714707" x2="100" y2="194.33756729740642" stroke="#000000" stroke-width="4"/>
  <line x1="150" y1="252.072594216369" x2="125" y2="237.63883748662838" stroke="#000000" stroke-width="4"/>
  <line x1="175" y1="324.24137786507225" x2="175" y2="295.37386440559095" stroke="#000000" stroke-width="4"/>
  <line x1="175" y1="295.37386440559095" x2="150" y2="280.9401076758503" stroke="#000000" stroke-width="4"/>
  <line x1="200" y1="367.54264805429415" x2="200" y2="338.67513459481285" stroke="#000000" stroke-width="4"/>
  <line x1="175" y1="381.9764047840348" x2="200" y2="367.54264805429415" stroke="#000000" stroke-width="4"/>
  <line x1="200" y1="338.67513459481285" x2="175" y2="324.2413778650722" stroke="#000000" stroke-width="4"/>
  <line x1="225" y1="410.8439182435161" x2="225" y2="381.9764047840348" stroke="#000000" stroke-width="4"/>
  <line x1="200" y1="425.2776749732567" x2="225" y2="410.8439182435161" stroke="#000000" stroke-width="4"/>
  <line x1="175" y1="410.8439182435161" x2="200" y2="425.2776749732567" stroke="#000000" stroke-width="4"/>
  <line x1="75" y1="122.16878364870321" x2="75" y2="151.0362971081845" stroke="#000000" stroke-width="4"/>
  <line x1="100" y1="107.73502691896257" x2="75" y2="122.16878364870323" stroke="#000000" stroke-width="4"/>
  <line x1="150" y1="194.33756729740642" x2="150" y2="165.47005383792515" stroke="#000000" stroke-width="4"/>
  <line x1="150" y1="165.47005383792515" x2="125" y2="151.0362971081845" stroke="#000000" stroke-width="4"/>
  <line x1="150" y1="252.072594216369" x2="175" y2="237.63883748662838" stroke="#000000" stroke-width="4"/>
  <line x1="175" y1="208.77132402714707" x2="150" y2="194.33756729740642" stroke="#000000" stroke-width="4"/>
  <line x1="175" y1="295.37386440559095" x2="200" y2="280.9401076758503" stroke="#000000" stroke-width="4"/>
  <line x1="200" y1="252.072594216369" x2="175" y2="237.63883748662838" stroke="#000000" stroke-width="4"/>
  <line x1="225" y1="324.24137786507225" x2="225" y2="295.37386440559095" stroke="#000000" stroke-width="4"/>
  <line x1="225" y1="295.37386440559095" x2="200" y2="280.9401076758503" stroke="#000000" stroke-width="4"/>
  <line x1="250" y1="367.54264805429415" x2="250" y2="338.67513459481285" stroke="#000000" stroke-width="4"/>
  <line x1="250" y1="338.67513459481285" x2="225" y2="324.2413778650722" stroke="#000000" stroke-width="4"/>
  <line x1="275" y1="410.8439182435161" x2="275" y2="381.9764047840348" stroke="#000000" stroke-width="4"/>
  <line x1="250" y1="425.2776749732567" x2="275" y2="410.8439182435161" stroke="#000000" stroke-width="4"/>
  <line x1="275" y1="381.9764047840348" x2="250" y2="367.54264805429415" stroke="#000000" stroke-width="4"/>
  <line x1="225" y1="410.8439182435161" x2="250" y2="425.2776749732567" stroke="#000000" stroke-width="4"/>
  <line x1="100" y1="78.86751345948127" x2="100" y2="107.73502691896257" stroke="#000000" stroke-width="4"/>
  <line x1="125" y1="122.16878364870323" x2="150" y2="107.73502691896257" stroke="#000000" stroke-width="4"/>
  <line x1="125" y1="64.43375672974064" x2="100" y2="78.86751345948129" stroke="#000000" stroke-width="4"/>
  <line x1="150" y1="78.86751345948129" x2="125" y2="64.43375672974064" stroke="#000000" stroke-width="4"/>
  <line x1="150" y1="165.47005383792515" x2="175" y2="151.0362971081845" stroke="#000000" stroke-width="4"/>
  <line x1="175" y1="122.16878364870323" x2="150" y2="107.73502691896257" stroke="#000000" stroke-width="4"/>
  <line x1="200" y1="194.33756729740642" x2="200" y2="165.47005383792515" stroke="#000000" stroke-width="4"/>
  <line x1="175" y1="208.77132402714707" x2="200" y2="194.33756729740642" stroke="#000000" stroke-width="4"/>
  <line x1="200" y1="252.072594216369" x2="225" y2="237.63883748662838" stroke="#000000" stroke-width="4"/>
  <line x1="225" y1="208.77132402714707" x2="200" y2="194.33756729740642" stroke="#000000" stroke-width="4"/>
  <line x1="250" y1="280.9401076758503" x2="250" y2="252.072594216369" stroke="#000000" stroke-width="4"/>
  <line x1="225" y1="295.37386440559095" x2="250" y2="280.9401076758503" stroke="#000000" stroke-width="4"/>
  <line x1="250" y1="252.072594216369" x2="225" y2="237.63883748662838" stroke="#000000" stroke-width="4"/>
  <line x1="275" y1="324.24137786507225" x2="275" y2="295.37386440559095" stroke="#000000" stroke-width="4"/>
  <line x1="250" y1="338.67513459481285" x2="275" y2="324.2413778650722" stroke="#000000" stroke-width="4"/>
  <line x1="300" y1="367.54264805429415" x2="300" y2="338.67513459481285" stroke="#000000" stroke-width="4"/>
  <line x1="275" y1="381.9764047840348" x2="300" y2="367.54264805429415" stroke="#000000" stroke-width="4"/>
  <line x1="325" y1="410.8439182435161" x2="325" y2="381.9764047840348" stroke="#000000" stroke-width="4"/>
  <line x1="300" y1="425.2776749732567" x2="325" y2="410.8439182435161" stroke="#000000" stroke-width="4"/>
  <line x1="275" y1="410.8439182435161" x2="300" y2="425.2776749732567" stroke="#000000" stroke-width="4"/>
  <line x1="125" y1="35.56624327025935" x2="125" y2="64.43375672974065" stroke="#000000" stroke-width="4"/>
  <line x1="150" y1="78.86751345948129" x2="175" y2="64.43375672974064" stroke="#000000" stroke-width="4"/>
  <line x1="150" y1="21.132486540518734" x2="125" y2="35.56624327025936" stroke="#000000" stroke-width="4"/>
  <line x1="175" y1="35.56624327025936" x2="150" y2="21.132486540518734" stroke="#000000" stroke-width="4"/>
  <line x1="200" y1="107.73502691896257" x2="200" y2="78.86751345948127" stroke="#000000" stroke-width="4"/>
  <line x1="175" y1="122.16878364870323" x2="200" y2="107.73502691896257" stroke="#000000" stroke-width="4"/>
  <line x1="200" y1="78.86751345948129" x2="175" y2="64.43375672974064" stroke="#000000" stroke-width="4"/>
  <line x1="225" y1="151.0362971081845" x2="225" y2="122.16878364870321" stroke="#000000" stroke-width="4"/>
  <line x1="200" y1="165.47005383792515" x2="225" y2="151.0362971081845" stroke="#000000" stroke-width="4"/>
  <line x1="225" y1="122.16878364870323" x2="200" y2="107.73502691896257" stroke="#000000" stroke-width="4"/>
  <line x1="250" y1="194.33756729740642" x2="250" y2="165.47005383792515" stroke="#000000" stroke-width="4"/>
  <line x1="250" y1="252.072594216369" x2="275" y2="237.63883748662838" stroke="#000000" stroke-width="4"/>
  <line x1="300" y1="280.9401076758503" x2="300" y2="252.072594216369" stroke="#000000" stroke-width="4"/>
  <line x1="300" y1="252.072594216369" x2="275" y2="237.63883748662838" stroke="#000000" stroke-width="4"/>
  <line x1="300" y1="338.67513459481285" x2="325" y2="324.2413778650722" stroke="#000000" stroke-width="4"/>
  <line x1="350" y1="367.54264805429415" x2="350" y2="338.67513459481285" stroke="#000000" stroke-width="4"/>
  <line x1="375" y1="410.8439182435161" x2="375" y2="381.9764047840348" stroke="#000000" stroke-width="4"/>
  <line x1="350" y1="425.2776749732567" x2="375" y2="410.8439182435161" stroke="#000000" stroke-width="4"/>
  <line x1="325" y1="410.8439182435161" x2="350" y2="425.2776749732567" stroke="#000000" stroke-width="4"/>
  <line x1="225" y1="64.43375672974065" x2="225" y2="35.56624327025935" stroke="#000000" stroke-width="4"/>
  <line x1="200" y1="21.132486540518734" x2="175" y2="35.56624327025936" stroke="#000000" stroke-width="4"/>
  <line x1="225" y1="35.56624327025936" x2="200" y2="21.132486540518734" stroke="#000000" stroke-width="4"/>
  <line x1="275" y1="151.0362971081845" x2="275" y2="122.16878364870321" stroke="#000000" stroke-width="4"/>
  <line x1="250" y1="165.47005383792515" x2="275" y2="151.0362971081845" stroke="#000000" stroke-width="4"/>
  <line x1="275" y1="122.16878364870323" x2="250" y2="107.73502691896257" stroke="#000000" stroke-width="4"/>
  <line x1="275" y1="208.77132402714707" x2="300" y2="194.33756729740642" stroke="#000000" stroke-width="4"/>
  <line x1="300" y1="165.47005383792515" x2="275" y2="151.0362971081845" stroke="#000000" stroke-width="4"/>
  <line x1="325" y1="237.63883748662838" x2="325" y2="208.77132402714707" stroke="#000000" stroke-width="4"/>
  <line x1="325" y1="208.77132402714707" x2="300" y2="194.33756729740642" stroke="#000000" stroke-width="4"/>
  <line x1="325" y1="295.37386440559095" x2="350" y2="280.9401076758503" stroke="#000000" stroke-width="4"/>
  <line x1="350" y1="338.67513459481285" x2="375" y2="324.2413778650722" stroke="#000000" stroke-width="4"/>
  <line x1="375" y1="295.37386440559095" x2="350" y2="280.9401076758503" stroke="#000000" stroke-width="4"/>
  <line x1="400" y1="367.54264805429415" x2="400" y2="338.67513459481285" stroke="#000000" stroke-width="4"/>
  <line x1="375" y1="381.9764047840348" x2="400" y2="367.54264805429415" stroke="#000000" stroke-width="4"/>
  <line x1="400" y1="338.67513459481285" x2="375" y2="324.2413778650722" stroke="#000000" stroke-width="4"/>
  <line x1="275" y1="64.43375672974065" x2="275" y2="35.56624327025935" stroke="#000000" stroke-width="4"/>
  <line x1="250" y1="78.86751345948129" x2="275" y2="64.43375672974064" stroke="#000000" stroke-width="4"/>
  <line x1="250" y1="21.132486540518734" x2="225" y2="35.56624327025936" stroke="#000000" stroke-width="4"/>
  <line x1="275" y1="35.56624327025936" x2="250" y2="21.132486540518734" stroke="#000000" stroke-width="4"/>
  <line x1="300" y1="107.73502691896257" x2="300" y2="78.86751345948127" stroke="#000000" stroke-width="4"/>
  <line x1="275" y1="122.16878364870323" x2="300" y2="107.73502691896257" stroke="#000000" stroke-width="4"/>
  <line x1="300" y1="78.86751345948129" x2="275" y2="64.43375672974064" stroke="#000000" stroke-width="4"/>
  <line x1="325" y1="151.0362971081845" x2="325" y2="122.16878364870321" stroke="#000000" stroke-width="4"/>
  <line x1="325" y1="122.16878364870323" x2="300" y2="107.73502691896257" stroke="#000000" stroke-width="4"/>
  <line x1="325" y1="208.77132402714707" x2="350" y2="194.33756729740642" stroke="#000000" stroke-width="4"/>
  <line x1="375" y1="237.63883748662838" x2="375" y2="208.77132402714707" stroke="#000000" stroke-width="4"/>
  <line x1="350" y1="252.072594216369" x2="375" y2="237.63883748662838" stroke="#000000" stroke-width="4"/>
  <line x1="375" y1="208.77132402714707" x2="350" y2="194.33756729740642" stroke="#000000" stroke-width="4"/>
  <line x1="400" y1="280.9401076758503" x2="400" y2="252.072594216369" stroke="#000000" stroke-width="4"/>
  <line x1="375" y1="295.37386440559095" x2="400" y2="280.9401076758503" stroke="#000000" stroke-width="4"/>
  <line x1="400" y1="252.072594216369" x2="375" y2="237.63883748662838" stroke="#000000" stroke-width="4"/>
  <line x1="425" y1="324.24137786507225" x2="425" y2="295.37386440559095" stroke="#000000" stroke-width="4"/>
  <line x1="400" y1="338.67513459481285" x2="425" y2="324.2413778650722" stroke="#000000" stroke-width="4"/>
  <line x1="300" y1="78.86751345948129" x2="325" y2="64.43375672974064" stroke="#000000" stroke-width="4"/>
  <line x1="300" y1="21.132486540518734" x2="275" y2="35.56624327025936" stroke="#000000" stroke-width="4"/>
  <line x1="325" y1="35.56624327025936" x2="300" y2="21.132486540518734" stroke="#000000" stroke-width="4"/>
  <line x1="325" y1="122.16878364870323" x2="350" y2="107.73502691896257" stroke="#000000" stroke-width="4"/>
  <line x1="350" y1="78.86751345948129" x2="325" y2="64.43375672974064" stroke="#000000" stroke-width="4"/>
  <line x1="350" y1="165.47005383792515" x2="375" y2="151.0362971081845" stroke="#000000" stroke-width="4"/>
  <line x1="375" y1="122.16878364870323" x2="350" y2="107.73502691896257" stroke="#000000" stroke-width="4"/>
  <line x1="400" y1="194.33756729740642" x2="400" y2="165.47005383792515" stroke="#000000" stroke-width="4"/>
  <line x1="375" y1="208.77132402714707" x2="400" y2="194.33756729740642" stroke="#000000" stroke-width="4"/>
  <line x1="400" y1="165.47005383792515" x2="375" y2="151.0362971081845" stroke="#000000" stroke-width="4"/>
  <line x1="400" y1="252.072594216369" x2="425" y2="237.63883748662838" stroke="#000000" stroke-width="4"/>
  <line x1="450" y1="280.9401076758503" x2="450" y2="252.072594216369" stroke="#000000" stroke-width="4"/>
  <line x1="425" y1="295.37386440559095" x2="450" y2="280.9401076758503" stroke="#000000" stroke-width="4"/>
  <line x1="375" y1="64.43375672974065" x2="375" y2="35.56624327025935" stroke="#000000" stroke-width="4"/>
  <line x1="350" y1="21.132486540518734" x2="325" y2="35.56624327025936" stroke="#000000" stroke-width="4"/>
  <line x1="375" y1="35.56624327025936" x2="350" y2="21.132486540518734" stroke="#000000" stroke-width="4"/>
  <line x1="400" y1="107.73502691896257" x2="400" y2="78.86751345948127" stroke="#000000" stroke-width="4"/>
  <line x1="400" y1="78.86751345948129" x2="375" y2="64.43375672974064" stroke="#000000" stroke-width="4"/>
  <line x1="425" y1="151.0362971081845" x2="425" y2="122.16878364870321" stroke="#000000" stroke-width="4"/>
  <line x1="400" y1="165.47005383792515" x2="425" y2="151.0362971081845" stroke="#000000" stroke-width="4"/>
  <line x1="425" y1="122.16878364870323" x2="400" y2="107.73502691896257" stroke="#000000" stroke-width="4"/>
  <line x1="450" y1="194.33756729740642" x2="450" y2="165.47005383792515" stroke="#000000" stroke-width="4"/>
  <line x1="425" y1="208.77132402714707" x2="450" y2="194.33756729740642" stroke="#000000" stroke-width="4"/>
  <line x1="450" y1="165.47005383792515" x2="425" y2="151.0362971081845" stroke="#000000" stroke-width="4"/>
  <line x1="475" y1="237.63883748662838" x2="475" y2="208.77132402714707" stroke="#000000" stroke-width="4"/>
  <line x1="450" y1="252.072594216369" x2="475" y2="237.63883748662838" stroke="#000000" stroke-width="4"/>
  <line x1="475" y1="208.77132402714707" x2="450" y2="194.33756729740642" stroke="#000000" stroke-width="4"/>
  <circle cx="50" cy="223.20508075688772" r="7.5" fill="#00ff00" stroke="#333" stroke-width="1"/>
  <circle cx="75" cy="266.50635094610965" r="7.5" fill="#f8f8f8" stroke="#333" stroke-width="1"/>
  <circle cx="100" cy="309.8076211353316" r="7.5" fill="#f8f8f8" stroke="#333" stroke-width="1"/>
  <circle cx="125" cy="353.1088913245535" r="7.5" fill="#f8f8f8" stroke="#333" stroke-width="1"/>
  <circle cx="150" cy="396.41016151377545" r="7.5" fill="#f8f8f8" stroke="#333" stroke-width="1"/>
  <circle cx="75" cy="179.9038105676658" r="7.5" fill="#ffff00" stroke="#333" stroke-width="1"/>
  <circle cx="100" cy="223.20508075688772" r="7.5" fill="#ffff00" stroke="#333" stroke-width="1"/>
  <circle cx="125" cy="266.50635094610965" r="7.5" fill="#f8f8f8" stroke="#333" stroke-width="1"/>
  <circle cx="150" cy="309.8076211353316" r="7.5" fill="#f8f8f8" stroke="#333" stroke-width="1"/>
  <circle cx="175" cy="353.1088913245535" r="7.5" fill="#f8f8f8" stroke="#333" stroke-width="1"/>
  <circle cx="200" cy="396.41016151377545" r="7.5" fill="#f8f8f8" stroke="#333" stroke-width="1"/>
  <circle cx="100" cy="136.60254037844385" r="7.5" fill="#f8f8f8" stroke="#333" stroke-width="1"/>
  <circle cx="125" cy="179.9038105676658" r="7.5" fill="#ffff00" stroke="#333" stroke-width="1"/>
  <circle cx="150" cy="223.20508075688772" r="7.5" fill="#ffff00" stroke="#333" stroke-width="1"/>
  <circle cx="175" cy="266.50635094610965" r="7.5" fill="#f8f8f8" stroke="#333" stroke-width="1"/>
  <circle cx="200" cy="309.8076211353316" r="7.5" fill="#f8f8f8" stroke="#333" stroke-width="1"/>
  <circle cx="225" cy="353.1088913245535" r="7.5" fill="#f8f8f8" stroke="#333" stroke-width="1"/>
  <circle cx="250" cy="396.41016151377545" r="7.5" fill="#f8f8f8" stroke="#333" stroke-width="1"/>
  <circle cx="125" cy="93.30127018922192" r="7.5" fill="#f8f8f8" stroke="#333" stroke-width="1"/>
  <circle cx="150" cy="136.60254037844385" r="7.5" fill="#f8f8f8" stroke="#333" stroke-width="1"/>
  <circle cx="175" cy="179.9038105676658" r="7.5" fill="#f8f8f8" stroke="#333" stroke-width="1"/>
  <circle cx="200" cy="223.20508075688772" r="7.5" fill="#ffff00" stroke="#333" stroke-width="1"/>
  <circle cx="225" cy="266.50635094610965" r="7.5" fill="#f8f8f8" stroke="#333" stroke-width="1"/>
  <circle cx="250" cy="309.8076211353316" r="7.5" fill="#f8f8f8" stroke="#333" stroke-width="1"/>
  <circle cx="275" cy="353.1088913245535" r="7.5" fill="#f8f8f8" stroke="#333" stroke-width="1"/>
  <circle cx="300" cy="396.41016151377545" r="7.5" fill="#f8f8f8" stroke="#333" stroke-width="1"/>
  <circle cx="150" cy="50" r="7.5" fill="#f8f8f8" stroke="#333" stroke-width="1"/>
  <circle cx="175" cy="93.30127018922192" r="7.5" fill="#f8f8f8" stroke="#333" stroke-width="1"/>
  <circle cx="200" cy="136.60254037844385" r="7.5" fill="#f8f8f8" stroke="#333" stroke-width="1"/>
  <circle cx="225" cy="179.9038105676658" r="7.5" fill="#f8f8f8" stroke="#333" stroke-width="1"/>
  <circle cx="250" cy="223.20508075688772" r="7.5" fill="#ffff00" stroke="#333" stroke-width="1"/>
  <circle cx="275" cy="266.50635094610965" r="7.5" fill="#f8f8f8" stroke="#333" stroke-width="1"/>
  <circle cx="300" cy="309.8076211353316" r="7.5" fill="#ffff00" stroke="#333" stroke-width="1"/>
  <circle cx="325" cy="353.1088913245535" r="7.5" fill="#f8f8f8" stroke="#333" stroke-width="1"/>
  <circle cx="350" cy="396.41016151377545" r="7.5" fill="#f8f8f8" stroke="#333" stroke-width="1"/>
  <circle cx="200" cy="50" r="7.5" fill="#f8f8f8" stroke="#333" stroke-width="1"/>
  <circle cx="225" cy="93.30127018922192" r="7.5" fill="#f8f8f8" stroke="#333" stroke-width="1"/>
  <circle cx="250" cy="136.60254037844385" r="7.5" fill="#f8f8f8" stroke="#333" stroke-width="1"/>
  <circle cx="275" cy="179.9038105676658" r="7.5" fill="#f8f8f8" stroke="#333" stroke-width="1"/>
  <circle cx="300" cy="223.20508075688772" r="7.5" fill="#ffff00" stroke="#333" stroke-width="1"/>
  <circle cx="325" cy="266.50635094610965" r="7.5" fill="#ffff00" stroke="#333" stroke-width="1"/>
  <circle cx="350" cy="309.8076211353316" r="7.5" fill="#ffff00" stroke="#333" stroke-width="1"/>
  <circle cx="375" cy="353.1088913245535" r="7.5" fill="#f8f8f8" stroke="#333" stroke-width="1"/>
  <circle cx="250" cy="50" r="7.5" fill="#f8f8f8" stroke="#333" stroke-width="1"/>
  <circle cx="275" cy="93.30127018922192" r="7.5" fill="#f8f8f8" stroke="#333" stroke-width="1"/>
  <circle cx="300" cy="136.60254037844385" r="7.5" fill="#f8f8f8" stroke="#333" stroke-width="1"/>
  <circle cx="325" cy="179.9038105676658" r="7.5" fill="#f8f8f8" stroke="#333" stroke-width="1"/>
  <circle cx="350" cy="223.20508075688772" r="7.5" fill="#f8f8f8" stroke="#333" stroke-width="1"/>
  <circle cx="375" cy="266.50635094610965" r="7.5" fill="#f8f8f8" stroke="#333" stroke-width="1"/>
  <circle cx="400" cy="309.8076211353316" r="7.5" fill="#ffff00" stroke="#333" stroke-width="1"/>
  <circle cx="300" cy="50" r="7.5" fill="#f8f8f8" stroke="#333" stroke-width="1"/>
  <circle cx="325" cy="93.30127018922192" r="7.5" fill="#f8f8f8" stroke="#333" stroke-width="1"/>
  <circle cx="350" cy="136.60254037844385" r="7.5" fill="#f8f8f8" stroke="#333" stroke-width="1"/>
  <circle cx="375" cy="179.9038105676658" r="7.5" fill="#f8f8f8" stroke="#333" stroke-width="1"/>
  <circle cx="400" cy="223.20508075688772" r="7.5" fill="#f8f8f8" stroke="#333" stroke-width="1"/>
  <circle cx="425" cy="266.50635094610965" r="7.5" fill="#ffff00" stroke="#333" stroke-width="1"/>
  <circle cx="350" cy="50" r="7.5" fill="#f8f8f8" stroke="#333" stroke-width="1"/>
  <circle cx="375" cy="93.30127018922192" r="7.5" fill="#f8f8f8" stroke="#333" stroke-width="1"/>
  <circle cx="400" cy="136.60254037844385" r="7.5" fill="#f8f8f8" stroke="#333" stroke-width="1"/>
  <circle cx="425" cy="179.9038105676658" r="7.5" fill="#f8f8f8" stroke="#333" stroke-width="1"/>
  <circle cx="450" cy="223.20508075688772" r="7.5" fill="#ff0000" stroke="#333" stroke-width="1"/>
</svg>