<svg width="320" height="287.8460969082653" xmlns="http://www.w3.org/2000/svg">
  <rect width="100%" height="100%" fill="#ffffff"/>
  <path d="M 40 143.92304845413264 L 60 109.2820323027551 L 100 109.2820323027551 L 120 143.92304845413264 L 160 143.92304845413264 L 180 109.2820323027551 L 200 143.92304845413264 L 220 178.56406460551017 L 240 143.92304845413264 L 260 109.2820323027551 L 280 143.92304845413264" stroke="#ff0000" stroke-width="6" fill="none" opacity="0.7"/>
  <line x1="60" y1="155.47005383792515" x2="60" y2="132.37604307034013" stroke="#000000" stroke-width="3"/>
  <line x1="20" y1="132.37604307034013" x2="20" y2="155.47005383792515" stroke="#000000" stroke-width="3"/>
  <line x1="40" y1="120.82903768654761" x2="20" y2="132.37604307034013" stroke="#000000" stroke-width="3"/>
  <line x1="20" y1="155.47005383792515" x2="40" y2="167.01705922171766" stroke="#000000" stroke-width="3"/>
  <line x1="40" y1="167.01705922171766" x2="40" y2="190.1110699893027" stroke="#000000" stroke-width="3"/>
  <line x1="60" y1="201.65807537309522" x2="80" y2="190.1110699893027" stroke="#000000" stroke-width="3"/>
  <line x1="80" y1="167.01705922171766" x2="60" y2="155.47005383792515" stroke="#000000" stroke-width="3"/>
  <line x1="40" y1="190.1110699893027" x2="60" y2="201.65807537309522" stroke="#000000" stroke-width="3"/>
  <line x1="100" y1="224.75208614068023" x2="100" y2="201.65807537309522" stroke="#000000" stroke-width="3"/>
  <line x1="60" y1="201.65807537309522" x2="60" y2="224.75208614068023" stroke="#000000" stroke-width="3"/>
  <line x1="60" y1="224.75208614068023" x2="80" y2="236.29909152447277" stroke="#000000" stroke-width="3"/>
  <line x1="80" y1="236.29909152447277" x2="80" y2="259.3931022920578" stroke="#000000" stroke-width="3"/>
  <line x1="100" y1="270.9401076758503" x2="120" y2="259.3931022920578" stroke="#000000" stroke-width="3"/>
  <line x1="120" y1="236.29909152447277" x2="100" y2="224.75208614068023" stroke="#000000" stroke-width="3"/>
  <line x1="80" y1="259.3931022920578" x2="100" y2="270.9401076758503" stroke="#000000" stroke-width="3"/>
  <line x1="40" y1="97.73502691896257" x2="40" y2="120.82903768654761" stroke="#000000" stroke-width="3"/>
  <line x1="60" y1="132.37604307034013" x2="80" y2="120.82903768654761" stroke="#000000" stroke-width="3"/>
  <line x1="60" y1="86.18802153517007" x2="40" y2="97.73502691896257" stroke="#000000" stroke-width="3"/>
  <line x1="100" y1="155.47005383792515" x2="100" y2="132.37604307034013" stroke="#000000" stroke-width="3"/>
  <line x1="80" y1="167.01705922171766" x2="100" y2="155.47005383792515" stroke="#000000" stroke-width="3"/>
  <line x1="120" y1="190.1110699893027" x2="120" y2="167.01705922171766" stroke="#000000" stroke-width="3"/>
  <line x1="100" y1="201.65807537309522" x2="120" y2="190.1110699893027" stroke="#000000" stroke-width="3"/>
  <line x1="120" y1="167.01705922171766" x2="100" y2="155.47005383792515" stroke="#000000" stroke-width="3"/>
  <line x1="140" y1="224.75208614068023" x2="140" y2="201.65807537309522" stroke="#000000" stroke-width="3"/>
  <line x1="120" y1="236.29909152447277" x2="140" y2="224.75208614068023" stroke="#000000" stroke-width="3"/>
  <line x1="160" y1="259.3931022920578" x2="160" y2="236.29909152447277" stroke="#000000" stroke-width="3"/>
  <line x1="140" y1="270.9401076758503" x2="160" y2="259.3931022920578" stroke="#000000" stroke-width="3"/>
  <line x1="120" y1="259.3931022920578" x2="140" y2="270.9401076758503" stroke="#000000" stroke-width="3"/>
  <line x1="60" y1="63.09401076758503" x2="60" y2="86.18802153517007" stroke="#000000" stroke-width="3"/>
  <line x1="80" y1="97.73502691896257" x2="100" y2="86.18802153517007" stroke="#000000" stroke-width="3"/>
  <line x1="80" y1="51.54700538379252" x2="60" y2="63.09401076758505" stroke="#000000" stroke-width="3"/>
  <line x1="120" y1="120.82903768654761" x2="120" y2="97.73502691896257" stroke="#000000" stroke-width="3"/>
  <line x1="120" y1="97.73502691896257" x2="100" y2="86.18802153517007" stroke="#000000" stroke-width="3"/>
  <line x1="120" y1="167.01705922171766" x2="140" y2="155.47005383792515" stroke="#000000" stroke-width="3"/>
  <line x1="140" y1="132.37604307034013" x2="120" y2="120.82903768654761" stroke="#000000" stroke-width="3"/>
  <line x1="160" y1="190.1110699893027" x2="160" y2="167.01705922171766" stroke="#000000" stroke-width="3"/>
  <line x1="160" y1="167.01705922171766" x2="140" y2="155.47005383792515" stroke="#000000" stroke-width="3"/>
  <line x1="160" y1="236.29909152447277" x2="180" y2="224.75208614068023" stroke="#000000" stroke-width="3"/>
  <line x1="180" y1="201.65807537309522" x2="160" y2="190.1110699893027" stroke="#000000" stroke-width="3"/>
  <line x1="180" y1="270.9401076758503" x2="200" y2="259.3931022920578" stroke="#000000" stroke-width="3"/>
  <line x1="200" y1="236.29909152447277" x2="180" y2="224.75208614068023" stroke="#000000" stroke-width="3"/>
  <line x1="160" y1="259.3931022920578" x2="180" y2="270.9401076758503" stroke="#000000" stroke-width="3"/>
  <line x1="120" y1="51.54700538379252" x2="120" y2="28.452994616207476" stroke="#000000" stroke-width="3"/>
  <line x1="80" y1="28.452994616207476" x2="80" y2="51.54700538379252" stroke="#000000" stroke-width="3"/>
  <line x1="100" y1="63.09401076758505" x2="120" y2="51.54700538379252" stroke="#000000" stroke-width="3"/>
  <line x1="100" y1="16.90598923241497" x2="80" y2="28.452994616207494" stroke="#000000" stroke-width="3"/>
  <line x1="120" y1="28.452994616207494" x2="100" y2="16.90598923241497" stroke="#000000" stroke-width="3"/>
  <line x1="140" y1="86.18802153517007" x2="140" y2="63.09401076758503" stroke="#000000" stroke-width="3"/>
  <line x1="120" y1="97.73502691896257" x2="140" y2="86.18802153517007" stroke="#000000" stroke-width="3"/>
  <line x1="160" y1="120.82903768654761" x2="160" y2="97.73502691896257" stroke="#000000" stroke-width="3"/>
  <line x1="160" y1="97.73502691896257" x2="140" y2="86.18802153517007" stroke="#000000" stroke-width="3"/>
  <line x1="180" y1="155.47005383792515" x2="180" y2="132.37604307034013" stroke="#000000" stroke-width="3"/>
  <line x1="160" y1="167.01705922171766" x2="180" y2="155.47005383792515" stroke="#000000" stroke-width="3"/>
  <line x1="200" y1="190.1110699893027" x2="200" y2="167.01705922171766" stroke="#000000" stroke-width="3"/>
  <line x1="180" y1="201.65807537309522" x2="200" y2="190.1110699893027" stroke="#000000" stroke-width="3"/>
  <line x1="220" y1="224.75208614068023" x2="220" y2="201.65807537309522" stroke="#000000" stroke-width="3"/>
  <line x1="200" y1="236.29909152447277" x2="220" y2="224.75208614068023" stroke="#000000" stroke-width="3"/>
  <line x1="220" y1="201.65807537309522" x2="200" y2="190.1110699893027" stroke="#000000" stroke-width="3"/>
  <line x1="240" y1="259.3931022920578" x2="240" y2="236.29909152447277" stroke="#000000" stroke-width="3"/>
  <line x1="220" y1="270.9401076758503" x2="240" y2="259.3931022920578" stroke="#000000" stroke-width="3"/>
  <line x1="200" y1="259.3931022920578" x2="220" y2="270.9401076758503" stroke="#000000" stroke-width="3"/>
  <line x1="160" y1="51.54700538379252" x2="160" y2="28.452994616207476" stroke="#000000" stroke-width="3"/>
  <line x1="140" y1="63.09401076758505" x2="160" y2="51.54700538379252" stroke="#000000" stroke-width="3"/>
  <line x1="140" y1="16.90598923241497" x2="120" y2="28.452994616207494" stroke="#000000" stroke-width="3"/>
  <line x1="160" y1="28.452994616207494" x2="140" y2="16.90598923241497" stroke="#000000" stroke-width="3"/>
  <line x1="160" y1="97.73502691896257" x2="180" y2="86.18802153517007" stroke="#000000" stroke-width="3"/>
  <line x1="200" y1="120.82903768654761" x2="200" y2="97.73502691896257" stroke="#000000" stroke-width="3"/>
  <line x1="220" y1="155.47005383792515" x2="220" y2="132.37604307034013" stroke="#000000" stroke-width="3"/>
  <line x1="220" y1="132.37604307034013" x2="200" y2="120.82903768654761" stroke="#000000" stroke-width="3"/>
  <line x1="260" y1="224.75208614068023" x2="260" y2="201.65807537309522" stroke="#000000" stroke-width="3"/>
  <line x1="240" y1="236.29909152447277" x2="260" y2="224.75208614068023" stroke="#000000" stroke-width="3"/>
  <line x1="260" y1="201.65807537309522" x2="240" y2="190.1110699893027" stroke="#000000" stroke-width="3"/>
  <line x1="200" y1="51.54700538379252" x2="200" y2="28.452994616207476" stroke="#000000" stroke-width="3"/>
  <line x1="180" y1="63.09401076758505" x2="200" y2="51.54700538379252" stroke="#000000" stroke-width="3"/>
  <line x1="180" y1="16.90598923241497" x2="160" y2="28.452994616207494" stroke="#000000" stroke-width="3"/>
  <line x1="200" y1="28.452994616207494" x2="180" y2="16.90598923241497" stroke="#000000" stroke-width="3"/>
  <line x1="200" y1="97.73502691896257" x2="220" y2="86.18802153517007" stroke="#000000" stroke-width="3"/>
  <line x1="220" y1="63.09401076758505" x2="200" y2="51.54700538379252" stroke="#000000" stroke-width="3"/>
  <line x1="240" y1="120.82903768654761" x2="240" y2="97.73502691896257" stroke="#000000" stroke-width="3"/>
  <line x1="220" y1="132.37604307034013" x2="240" y2="120.82903768654761" stroke="#000000" stroke-width="3"/>
  <line x1="260" y1="155.47005383792515" x2="260" y2="132.37604307034013" stroke="#000000" stroke-width="3"/>
  <line x1="240" y1="167.01705922171766" x2="260" y2="155.47005383792515" stroke="#000000" stroke-width="3"/>
  <line x1="280" y1="190.1110699893027" x2="280" y2="167.01705922171766" stroke="#000000" stroke-width="3"/>
  <line x1="260" y1="201.65807537309522" x2="280" y2="190.1110699893027" stroke="#000000" stroke-width="3"/>
  <line x1="280" y1="167.01705922171766" x2="260" y2="155.47005383792515" stroke="#000000" stroke-width="3"/>
  <line x1="240" y1="51.54700538379252" x2="240" y2="28.452994616207476" stroke="#000000" stroke-width="3"/>
  <line x1="220" y1="16.90598923241497" x2="200" y2="28.452994616207494" stroke="#000000" stroke-width="3"/>
  <line x1="240" y1="28.452994616207494" x2="220" y2="16.90598923241497" stroke="#000000" stroke-width="3"/>
  <line x1="260" y1="86.18802153517007" x2="260" y2="63.09401076758503" stroke="#000000" stroke-width="3"/>
  <line x1="240" y1="97.73502691896257" x2="260" y2="86.18802153517007" stroke="#000000" stroke-width="3"/>
  <line x1="260" y1="63.09401076758505" x2="240" y2="51.54700538379252" stroke="#000000" stroke-width="3"/>
  <line x1="280" y1="120.82903768654761" x2="280" y2="97.73502691896257" stroke="#000000" stroke-width="3"/>
  <line x1="280" y1="97.73502691896257" x2="260" y2="86.18802153517007" stroke="#000000" stroke-width="3"/>
  <line x1="300" y1="155.47005383792515" x2="300" y2="132.37604307034013" stroke="#000000" stroke-width="3"/>
  <line x1="280" y1="167.01705922171766" x2="300" y2="155.47005383792515" stroke="#000000" stroke-width="3"/>
  <line x1="300" y1="132.37604307034013" x2="280" y2="120.82903768654761" stroke="#000000" stroke-width="3"/>
  <circle cx="40" cy="143.92304845413264" r="6" fill="#00ff00" stroke="#333" stroke-width="1"/>
  <circle cx="60" cy="178.56406460551017" r="6" fill="#f8f8f8" stroke="#333" stroke-width="1"/>
  <circle cx="80" cy="213.2050807568877" r="6" fill="#f8f8f8" stroke="#333" stroke-width="1"/>
  <circle cx="100" cy="247.84609690826528" r="6" fill="#f8f8f8" stroke="#333" stroke-width="1"/>
  <circle cx="60" cy="109.2820323027551" r="6" fill="#ffff00" stroke="#333" stroke-width="1"/>
  <circle cx="80" cy="143.92304845413264" r="6" fill="#f8f8f8" stroke="#333" stroke-width="1"/>
  <circle cx="100" cy="178.56406460551017" r="6" fill="#f8f8f8" stroke="#333" stroke-width="1"/>
  <circle cx="120" cy="213.2050807568877" r="6" fill="#f8f8f8" stroke="#333" stroke-width="1"/>
  <circle cx="140" cy="247.84609690826528" r="6" fill="#f8f8f8" stroke="#333" stroke-width="1"/>
  <circle cx="80" cy="74.64101615137756" r="6" fill="#f8f8f8" stroke="#333" stroke-width="1"/>
  <circle cx="100" cy="109.2820323027551" r="6" fill="#ffff00" stroke="#333" stroke-width="1"/>
  <circle cx="120" cy="143.92304845413264" r="6" fill="#ffff00" stroke="#333" stroke-width="1"/>
  <circle cx="140" cy="178.56406460551017" r="6" fill="#f8f8f8" stroke="#333" stroke-width="1"/>
  <circle cx="160" cy="213.2050807568877" r="6" fill="#f8f8f8" stroke="#333" stroke-width="1"/>
  <circle cx="180" cy="247.84609690826528" r="6" fill="#f8f8f8" stroke="#333" stroke-width="1"/>
  <circle cx="100" cy="40" r="6" fill="#f8f8f8" stroke="#333" stroke-width="1"/>
  <circle cx="120" cy="74.64101615137756" r="6" fill="#f8f8f8" stroke="#333" stroke-width="1"/>
  <circle cx="140" cy="109.2820323027551" r="6" fill="#f8f8f8" stroke="#333" stroke-width="1"/>
  <circle cx="160" cy="143.92304845413264" r="6" fill="#ffff00" stroke="#333" stroke-width="1"/>
  <circle cx="180" cy="178.56406460551017" r="6" fill="#f8f8f8" stroke="#333" stroke-width="1"/>
  <circle cx="200" cy="213.2050807568877" r="6" fill="#f8f8f8" stroke="#333" stroke-width="1"/>
  <circle cx="220" cy="247.84609690826528" r="6" fill="#f8f8f8" stroke="#333" stroke-width="1"/>
  <circle cx="140" cy="40" r="6" fill="#f8f8f8" stroke="#333" stroke-width="1"/>
  <circle cx="160" cy="74.64101615137756" r="6" fill="#f8f8f8" stroke="#333" stroke-width="1"/>
  <circle cx="180" cy="109.2820323027551" r="6" fill="#ffff00" stroke="#333" stroke-width="1"/>
  <circle cx="200" cy="143.92304845413264" r="6" fill="#ffff00" stroke="#333" stroke-width="1"/>
  <circle cx="220" cy="178.56406460551017" r="6" fill="#ffff00" stroke="#333" stroke-width="1"/>
  <circle cx="240" cy="213.2050807568877" r="6" fill="#f8f8f8" stroke="#333" stroke-width="1"/>
  <circle cx="180" cy="40" r="6" fill="#f8f8f8" stroke="#333" stroke-width="1"/>
  <circle cx="200" cy="74.64101615137756" r="6" fill="#f8f8f8" stroke="#333" stroke-width="1"/>
  <circle cx="220" cy="109.2820323027551" r="6" fill="#f8f8f8" stroke="#333" stroke-width="1"/>
  <circle cx="240" cy="143.92304845413264" r="6" fill="#ffff00" stroke="#333" stroke-width="1"/>
  <circle cx="260" cy="178.56406460551017" r="6" fill="#f8f8f8" stroke="#333" stroke-width="1"/>
  <circle cx="220" cy="40" r="6" fill="#f8f8f8" stroke="#333" stroke-width="1"/>
  <circle cx="240" cy="74.64101615137756" r="6" fill="#f8f8f8" stroke="#333" stroke-width="1"/>
  <circle cx="260" cy="109.2820323027551" r="6" fill="#ffff00" stroke="#333" stroke-width="1"/>
  <circle cx="280" cy="143.92304845413264" r="6" fill="#ff0000" stroke="#333" stroke-width="1"/>
</svg>