<svg width="320" height="287.8460969082653" xmlns="http://www.w3.org/2000/svg">
  <rect width="100%" height="100%" fill="#ffffff"/>
  <path d="M 40 143.92304845413264 L 60 178.56406460551017 L 80 143.92304845413264 L 120 143.92304845413264 L 160 143.92304845413264 L 180 109.2820323027551 L 200 74.64101615137756 L 220 40 L 240 74.64101615137756 L 220 109.2820323027551 L 260 109.2820323027551 L 280 143.92304845413264" stroke="#ff0000" stroke-width="6" fill="none" opacity="0.7"/>
  <line x1="60" y1="159.92304845413264" x2="60" y2="127.92304845413264" stroke="#000000" stroke-width="3"/>
  <line x1="20" y1="127.92304845413264" x2="20" y2="159.92304845413264" stroke="#000000" stroke-width="3"/>
  <line x1="43.856406460551014" y1="118.60254037844386" x2="16.143593539448986" y2="134.60254037844385" stroke="#000000" stroke-width="3"/>
  <line x1="63.856406460551014" y1="134.60254037844385" x2="36.143593539448986" y2="118.60254037844386" stroke="#000000" stroke-width="3"/>
  <line x1="16.143593539448986" y1="153.24355652982143" x2="43.856406460551014" y2="169.2435565298214" stroke="#000000" stroke-width="3"/>
  <line x1="80" y1="194.5640646055102" x2="80" y2="162.56406460551017" stroke="#000000" stroke-width="3"/>
  <line x1="40" y1="162.56406460551017" x2="40" y2="194.5640646055102" stroke="#000000" stroke-width="3"/>
  <line x1="36.143593539448986" y1="187.88457268119896" x2="63.856406460551014" y2="203.88457268119896" stroke="#000000" stroke-width="3"/>
  <line x1="100" y1="229.20508075688772" x2="100" y2="197.20508075688772" stroke="#000000" stroke-width="3"/>
  <line x1="60" y1="197.20508075688772" x2="60" y2="229.20508075688772" stroke="#000000" stroke-width="3"/>
  <line x1="76.14359353944899" y1="238.5255888325765" x2="103.85640646055103" y2="222.5255888325765" stroke="#000000" stroke-width="3"/>
  <line x1="103.85640646055101" y1="203.88457268119896" x2="76.14359353944899" y2="187.88457268119896" stroke="#000000" stroke-width="3"/>
  <line x1="56.143593539448986" y1="222.5255888325765" x2="83.85640646055103" y2="238.5255888325765" stroke="#000000" stroke-width="3"/>
  <line x1="80" y1="231.84609690826528" x2="80" y2="263.8460969082653" stroke="#000000" stroke-width="3"/>
  <line x1="96.14359353944899" y1="273.1666049839541" x2="123.85640646055101" y2="257.1666049839541" stroke="#000000" stroke-width="3"/>
  <line x1="76.14359353944899" y1="257.1666049839541" x2="103.85640646055101" y2="273.1666049839541" stroke="#000000" stroke-width="3"/>
  <line x1="80" y1="125.2820323027551" x2="80" y2="93.28203230275508" stroke="#000000" stroke-width="3"/>
  <line x1="40" y1="93.28203230275508" x2="40" y2="125.2820323027551" stroke="#000000" stroke-width="3"/>
  <line x1="63.856406460551014" y1="83.96152422706632" x2="36.143593539448986" y2="99.96152422706632" stroke="#000000" stroke-width="3"/>
  <line x1="83.85640646055101" y1="99.96152422706632" x2="56.143593539448986" y2="83.96152422706632" stroke="#000000" stroke-width="3"/>
  <line x1="120" y1="194.5640646055102" x2="120" y2="162.56406460551017" stroke="#000000" stroke-width="3"/>
  <line x1="96.14359353944899" y1="203.88457268119896" x2="123.85640646055101" y2="187.88457268119896" stroke="#000000" stroke-width="3"/>
  <line x1="123.85640646055101" y1="169.2435565298214" x2="96.14359353944899" y2="153.24355652982143" stroke="#000000" stroke-width="3"/>
  <line x1="140" y1="229.20508075688772" x2="140" y2="197.20508075688772" stroke="#000000" stroke-width="3"/>
  <line x1="116.14359353944897" y1="238.5255888325765" x2="143.856406460551" y2="222.5255888325765" stroke="#000000" stroke-width="3"/>
  <line x1="160" y1="263.8460969082653" x2="160" y2="231.84609690826528" stroke="#000000" stroke-width="3"/>
  <line x1="136.143593539449" y1="273.1666049839541" x2="163.856406460551" y2="257.1666049839541" stroke="#000000" stroke-width="3"/>
  <line x1="163.856406460551" y1="238.5255888325765" x2="136.143593539449" y2="222.5255888325765" stroke="#000000" stroke-width="3"/>
  <line x1="116.14359353944899" y1="257.1666049839541" x2="143.856406460551" y2="273.1666049839541" stroke="#000000" stroke-width="3"/>
  <line x1="60" y1="58.641016151377556" x2="60" y2="90.64101615137756" stroke="#000000" stroke-width="3"/>
  <line x1="76.14359353944899" y1="99.96152422706632" x2="103.85640646055101" y2="83.96152422706632" stroke="#000000" stroke-width="3"/>
  <line x1="83.85640646055103" y1="49.32050807568878" x2="56.143593539448986" y2="65.32050807568879" stroke="#000000" stroke-width="3"/>
  <line x1="103.85640646055103" y1="65.32050807568879" x2="76.14359353944899" y2="49.32050807568878" stroke="#000000" stroke-width="3"/>
  <line x1="120" y1="125.2820323027551" x2="120" y2="93.28203230275508" stroke="#000000" stroke-width="3"/>
  <line x1="96.14359353944899" y1="134.60254037844385" x2="123.85640646055101" y2="118.60254037844386" stroke="#000000" stroke-width="3"/>
  <line x1="116.14359353944899" y1="169.2435565298214" x2="143.856406460551" y2="153.24355652982143" stroke="#000000" stroke-width="3"/>
  <line x1="143.856406460551" y1="134.60254037844385" x2="116.14359353944899" y2="118.60254037844386" stroke="#000000" stroke-width="3"/>
  <line x1="136.143593539449" y1="203.88457268119896" x2="163.856406460551" y2="187.88457268119896" stroke="#000000" stroke-width="3"/>
  <line x1="163.856406460551" y1="169.2435565298214" x2="136.143593539449" y2="153.24355652982143" stroke="#000000" stroke-width="3"/>
  <line x1="180" y1="229.20508075688772" x2="180" y2="197.20508075688772" stroke="#000000" stroke-width="3"/>
  <line x1="200" y1="263.8460969082653" x2="200" y2="231.84609690826528" stroke="#000000" stroke-width="3"/>
  <line x1="176.143593539449" y1="273.1666049839541" x2="203.856406460551" y2="257.1666049839541" stroke="#000000" stroke-width="3"/>
  <line x1="203.856406460551" y1="238.5255888325765" x2="176.143593539449" y2="222.5255888325765" stroke="#000000" stroke-width="3"/>
  <line x1="156.143593539449" y1="257.1666049839541" x2="183.856406460551" y2="273.1666049839541" stroke="#000000" stroke-width="3"/>
  <line x1="120" y1="56" x2="120" y2="24.000000000000004" stroke="#000000" stroke-width="3"/>
  <line x1="80" y1="24.000000000000004" x2="80" y2="56" stroke="#000000" stroke-width="3"/>
  <line x1="103.85640646055101" y1="14.679491924311225" x2="76.14359353944899" y2="30.67949192431124" stroke="#000000" stroke-width="3"/>
  <line x1="123.85640646055101" y1="30.67949192431124" x2="96.14359353944899" y2="14.679491924311225" stroke="#000000" stroke-width="3"/>
  <line x1="116.14359353944899" y1="99.96152422706632" x2="143.856406460551" y2="83.96152422706632" stroke="#000000" stroke-width="3"/>
  <line x1="136.143593539449" y1="134.60254037844385" x2="163.856406460551" y2="118.60254037844386" stroke="#000000" stroke-width="3"/>
  <line x1="163.856406460551" y1="99.96152422706632" x2="136.143593539449" y2="83.96152422706632" stroke="#000000" stroke-width="3"/>
  <line x1="180" y1="159.92304845413264" x2="180" y2="127.92304845413264" stroke="#000000" stroke-width="3"/>
  <line x1="156.143593539449" y1="169.2435565298214" x2="183.856406460551" y2="153.24355652982143" stroke="#000000" stroke-width="3"/>
  <line x1="200" y1="194.5640646055102" x2="200" y2="162.56406460551017" stroke="#000000" stroke-width="3"/>
  <line x1="203.856406460551" y1="169.2435565298214" x2="176.143593539449" y2="153.24355652982143" stroke="#000000" stroke-width="3"/>
  <line x1="220" y1="229.20508075688772" x2="220" y2="197.20508075688772" stroke="#000000" stroke-width="3"/>
  <line x1="240" y1="263.8460969082653" x2="240" y2="231.84609690826528" stroke="#000000" stroke-width="3"/>
  <line x1="216.143593539449" y1="273.1666049839541" x2="243.856406460551" y2="257.1666049839541" stroke="#000000" stroke-width="3"/>
  <line x1="243.856406460551" y1="238.5255888325765" x2="216.143593539449" y2="222.5255888325765" stroke="#000000" stroke-width="3"/>
  <line x1="196.143593539449" y1="257.1666049839541" x2="223.856406460551" y2="273.1666049839541" stroke="#000000" stroke-width="3"/>
  <line x1="160" y1="56" x2="160" y2="24.000000000000004" stroke="#000000" stroke-width="3"/>
  <line x1="136.143593539449" y1="65.32050807568879" x2="163.856406460551" y2="49.32050807568878" stroke="#000000" stroke-width="3"/>
  <line x1="143.856406460551" y1="14.679491924311225" x2="116.14359353944899" y2="30.67949192431124" stroke="#000000" stroke-width="3"/>
  <line x1="163.856406460551" y1="30.67949192431124" x2="136.143593539449" y2="14.679491924311225" stroke="#000000" stroke-width="3"/>
  <line x1="180" y1="90.64101615137756" x2="180" y2="58.641016151377556" stroke="#000000" stroke-width="3"/>
  <line x1="156.143593539449" y1="99.96152422706632" x2="183.856406460551" y2="83.96152422706632" stroke="#000000" stroke-width="3"/>
  <line x1="200" y1="125.2820323027551" x2="200" y2="93.28203230275508" stroke="#000000" stroke-width="3"/>
  <line x1="176.143593539449" y1="134.60254037844385" x2="203.856406460551" y2="118.60254037844386" stroke="#000000" stroke-width="3"/>
  <line x1="220" y1="159.92304845413264" x2="220" y2="127.92304845413264" stroke="#000000" stroke-width="3"/>
  <line x1="240" y1="194.5640646055102" x2="240" y2="162.56406460551017" stroke="#000000" stroke-width="3"/>
  <line x1="216.143593539449" y1="203.88457268119896" x2="243.856406460551" y2="187.88457268119896" stroke="#000000" stroke-width="3"/>
  <line x1="243.856406460551" y1="169.2435565298214" x2="216.143593539449" y2="153.24355652982143" stroke="#000000" stroke-width="3"/>
  <line x1="260" y1="229.20508075688772" x2="260" y2="197.20508075688772" stroke="#000000" stroke-width="3"/>
  <line x1="236.143593539449" y1="238.5255888325765" x2="263.856406460551" y2="222.5255888325765" stroke="#000000" stroke-width="3"/>
  <line x1="200" y1="56" x2="200" y2="24.000000000000004" stroke="#000000" stroke-width="3"/>
  <line x1="176.143593539449" y1="65.32050807568879" x2="203.856406460551" y2="49.32050807568878" stroke="#000000" stroke-width="3"/>
  <line x1="183.856406460551" y1="14.679491924311225" x2="156.143593539449" y2="30.67949192431124" stroke="#000000" stroke-width="3"/>
  <line x1="203.856406460551" y1="30.67949192431124" x2="176.143593539449" y2="14.679491924311225" stroke="#000000" stroke-width="3"/>
  <line x1="220" y1="90.64101615137756" x2="220" y2="58.641016151377556" stroke="#000000" stroke-width="3"/>
  <line x1="196.143593539449" y1="99.96152422706632" x2="223.856406460551" y2="83.96152422706632" stroke="#000000" stroke-width="3"/>
  <line x1="216.143593539449" y1="134.60254037844385" x2="243.856406460551" y2="118.60254037844386" stroke="#000000" stroke-width="3"/>
  <line x1="260" y1="159.92304845413264" x2="260" y2="127.92304845413264" stroke="#000000" stroke-width="3"/>
  <line x1="236.143593539449" y1="169.2435565298214" x2="263.856406460551" y2="153.24355652982143" stroke="#000000" stroke-width="3"/>
  <line x1="280" y1="194.5640646055102" x2="280" y2="162.56406460551017" stroke="#000000" stroke-width="3"/>
  <line x1="256.143593539449" y1="203.88457268119896" x2="283.856406460551" y2="187.88457268119896" stroke="#000000" stroke-width="3"/>
  <line x1="240" y1="56" x2="240" y2="24.000000000000004" stroke="#000000" stroke-width="3"/>
  <line x1="223.856406460551" y1="14.679491924311225" x2="196.143593539449" y2="30.67949192431124" stroke="#000000" stroke-width="3"/>
  <line x1="243.856406460551" y1="30.67949192431124" x2="216.143593539449" y2="14.679491924311225" stroke="#000000" stroke-width="3"/>
  <line x1="260" y1="90.64101615137756" x2="260" y2="58.641016151377556" stroke="#000000" stroke-width="3"/>
  <line x1="236.143593539449" y1="99.96152422706632" x2="263.856406460551" y2="83.96152422706632" stroke="#000000" stroke-width="3"/>
  <line x1="263.856406460551" y1="65.32050807568879" x2="236.143593539449" y2="49.32050807568878" stroke="#000000" stroke-width="3"/>
  <line x1="280" y1="125.2820323027551" x2="280" y2="93.28203230275508" stroke="#000000" stroke-width="3"/>
  <line x1="283.856406460551" y1="99.96152422706632" x2="256.143593539449" y2="83.96152422706632" stroke="#000000" stroke-width="3"/>
  <line x1="300" y1="159.92304845413264" x2="300" y2="127.92304845413264" stroke="#000000" stroke-width="3"/>
  <line x1="276.143593539449" y1="169.2435565298214" x2="303.856406460551" y2="153.24355652982143" stroke="#000000" stroke-width="3"/>
  <line x1="303.856406460551" y1="134.60254037844385" x2="276.143593539449" y2="118.60254037844386" stroke="#000000" stroke-width="3"/>
  <circle cx="40" cy="143.92304845413264" r="6" fill="#00ff00" stroke="#333" stroke-width="1"/>
  <circle cx="60" cy="178.56406460551017" r="6" fill="#ffff00" stroke="#333" stroke-width="1"/>
  <circle cx="80" cy="213.2050807568877" r="6" fill="#f8f8f8" stroke="#333" stroke-width="1"/>
  <circle cx="100" cy="247.84609690826528" r="6" fill="#f8f8f8" stroke="#333" stroke-width="1"/>
  <circle cx="60" cy="109.2820323027551" r="6" fill="#f8f8f8" stroke="#333" stroke-width="1"/>
  <circle cx="80" cy="143.92304845413264" r="6" fill="#ffff00" stroke="#333" stroke-width="1"/>
  <circle cx="100" cy="178.56406460551017" r="6" fill="#f8f8f8" stroke="#333" stroke-width="1"/>
  <circle cx="120" cy="213.2050807568877" r="6" fill="#f8f8f8" stroke="#333" stroke-width="1"/>
  <circle cx="140" cy="247.84609690826528" r="6" fill="#f8f8f8" stroke="#333" stroke-width="1"/>
  <circle cx="80" cy="74.64101615137756" r="6" fill="#f8f8f8" stroke="#333" stroke-width="1"/>
  <circle cx="100" cy="109.2820323027551" r="6" fill="#f8f8f8" stroke="#333" stroke-width="1"/>
  <circle cx="120" cy="143.92304845413264" r="6" fill="#ffff00" stroke="#333" stroke-width="1"/>
  <circle cx="140" cy="178.56406460551017" r="6" fill="#f8f8f8" stroke="#333" stroke-width="1"/>
  <circle cx="160" cy="213.2050807568877" r="6" fill="#f8f8f8" stroke="#333" stroke-width="1"/>
  <circle cx="180" cy="247.84609690826528" r="6" fill="#f8f8f8" stroke="#333" stroke-width="1"/>
  <circle cx="100" cy="40" r="6" fill="#f8f8f8" stroke="#333" stroke-width="1"/>
  <circle cx="120" cy="74.64101615137756" r="6" fill="#f8f8f8" stroke="#333" stroke-width="1"/>
  <circle cx="140" cy="109.2820323027551" r="6" fill="#f8f8f8" stroke="#333" stroke-width="1"/>
  <circle cx="160" cy="143.92304845413264" r="6" fill="#ffff00" stroke="#333" stroke-width="1"/>
  <circle cx="180" cy="178.56406460551017" r="6" fill="#f8f8f8" stroke="#333" stroke-width="1"/>
  <circle cx="200" cy="213.2050807568877" r="6" fill="#f8f8f8" stroke="#333" stroke-width="1"/>
  <circle cx="220" cy="247.84609690826528" r="6" fill="#f8f8f8" stroke="#333" stroke-width="1"/>
  <circle cx="140" cy="40" r="6" fill="#f8f8f8" stroke="#333" stroke-width="1"/>
  <circle cx="160" cy="74.64101615137756" r="6" fill="#f8f8f8" stroke="#333" stroke-width="1"/>
  <circle cx="180" cy="109.2820323027551" r="6" fill="#ffff00" stroke="#333" stroke-width="1"/>
  <circle cx="200" cy="143.92304845413264" r="6" fill="#f8f8f8" stroke="#333" stroke-width="1"/>
  <circle cx="220" cy="178.56406460551017" r="6" fill="#f8f8f8" stroke="#333" stroke-width="1"/>
  <circle cx="240" cy="213.2050807568877" r="6" fill="#f8f8f8" stroke="#333" stroke-width="1"/>
  <circle cx="180" cy="40" r="6" fill="#f8f8f8" stroke="#333" stroke-width="1"/>
  <circle cx="200" cy="74.64101615137756" r="6" fill="#ffff00" stroke="#333" stroke-width="1"/>
  <circle cx="220" cy="109.2820323027551" r="6" fill="#ffff00" stroke="#333" stroke-width="1"/>
  <circle cx="240" cy="143.92304845413264" r="6" fill="#f8f8f8" stroke="#333" stroke-width="1"/>
  <circle cx="260" cy="178.56406460551017" r="6" fill="#f8f8f8" stroke="#333" stroke-width="1"/>
  <circle cx="220" cy="40" r="6" fill="#ffff00" stroke="#333" stroke-width="1"/>
  <circle cx="240" cy="74.64101615137756" r="6" fill="#ffff00" stroke="#333" stroke-width="1"/>
  <circle cx="260" cy="109.2820323027551" r="6" fill="#ffff00" stroke="#333" stroke-width="1"/>
  <circle cx="280" cy="143.92304845413264" r="6" fill="#ff0000" stroke="#333" stroke-width="1"/>
</svg>