<svg width="320" height="287.8460969082653" xmlns="http://www.w3.org/2000/svg">
  <rect width="100%" height="100%" fill="#ffffff"/>
  <path d="M 40 143.92304845413264 L 80 143.92304845413264 L 100 178.56406460551017 L 120 213.2050807568877 L 140 178.56406460551017 L 180 178.56406460551017 L 200 143.92304845413264 L 240 143.92304845413264 L 260 178.56406460551017 L 280 143.92304845413264" stroke="#ff0000" stroke-width="6" fill="none" opacity="0.7"/>
  <line x1="20" y1="129.92304845413264" x2="20" y2="157.92304845413264" stroke="#000000" stroke-width="3"/>
  <line x1="37.875644347017854" y1="168.24355652982143" x2="62.124355652982146" y2="154.24355652982143" stroke="#000000" stroke-width="3"/>
  <line x1="42.124355652982146" y1="119.60254037844388" x2="17.875644347017854" y2="133.60254037844385" stroke="#000000" stroke-width="3"/>
  <line x1="62.124355652982146" y1="133.60254037844385" x2="37.875644347017854" y2="119.60254037844388" stroke="#000000" stroke-width="3"/>
  <line x1="17.875644347017854" y1="154.24355652982143" x2="42.124355652982146" y2="168.24355652982143" stroke="#000000" stroke-width="3"/>
  <line x1="40" y1="164.5640646055102" x2="40" y2="192.56406460551017" stroke="#000000" stroke-width="3"/>
  <line x1="57.875644347017854" y1="202.88457268119896" x2="82.12435565298213" y2="188.88457268119896" stroke="#000000" stroke-width="3"/>
  <line x1="82.12435565298213" y1="168.24355652982143" x2="57.875644347017854" y2="154.24355652982143" stroke="#000000" stroke-width="3"/>
  <line x1="37.875644347017854" y1="188.88457268119896" x2="62.124355652982146" y2="202.88457268119896" stroke="#000000" stroke-width="3"/>
  <line x1="100" y1="227.20508075688772" x2="100" y2="199.20508075688772" stroke="#000000" stroke-width="3"/>
  <line x1="60" y1="199.20508075688772" x2="60" y2="227.20508075688772" stroke="#000000" stroke-width="3"/>
  <line x1="77.87564434701785" y1="237.5255888325765" x2="102.12435565298215" y2="223.5255888325765" stroke="#000000" stroke-width="3"/>
  <line x1="57.875644347017854" y1="223.5255888325765" x2="82.12435565298215" y2="237.5255888325765" stroke="#000000" stroke-width="3"/>
  <line x1="80" y1="233.84609690826528" x2="80" y2="261.8460969082653" stroke="#000000" stroke-width="3"/>
  <line x1="97.87564434701787" y1="272.1666049839541" x2="122.12435565298215" y2="258.1666049839541" stroke="#000000" stroke-width="3"/>
  <line x1="122.12435565298215" y1="237.5255888325765" x2="97.87564434701785" y2="223.5255888325765" stroke="#000000" stroke-width="3"/>
  <line x1="77.87564434701785" y1="258.1666049839541" x2="102.12435565298213" y2="272.1666049839541" stroke="#000000" stroke-width="3"/>
  <line x1="80" y1="123.28203230275508" x2="80" y2="95.2820323027551" stroke="#000000" stroke-width="3"/>
  <line x1="40" y1="95.2820323027551" x2="40" y2="123.28203230275508" stroke="#000000" stroke-width="3"/>
  <line x1="62.124355652982146" y1="84.96152422706632" x2="37.875644347017854" y2="98.96152422706632" stroke="#000000" stroke-width="3"/>
  <line x1="82.12435565298213" y1="98.96152422706632" x2="57.875644347017854" y2="84.96152422706632" stroke="#000000" stroke-width="3"/>
  <line x1="100" y1="157.92304845413264" x2="100" y2="129.92304845413264" stroke="#000000" stroke-width="3"/>
  <line x1="102.12435565298213" y1="133.60254037844385" x2="77.87564434701785" y2="119.60254037844388" stroke="#000000" stroke-width="3"/>
  <line x1="120" y1="192.56406460551017" x2="120" y2="164.5640646055102" stroke="#000000" stroke-width="3"/>
  <line x1="117.87564434701785" y1="237.5255888325765" x2="142.12435565298216" y2="223.5255888325765" stroke="#000000" stroke-width="3"/>
  <line x1="137.87564434701784" y1="272.1666049839541" x2="162.12435565298216" y2="258.1666049839541" stroke="#000000" stroke-width="3"/>
  <line x1="162.12435565298216" y1="237.5255888325765" x2="137.87564434701784" y2="223.5255888325765" stroke="#000000" stroke-width="3"/>
  <line x1="117.87564434701787" y1="258.1666049839541" x2="142.12435565298216" y2="272.1666049839541" stroke="#000000" stroke-width="3"/>
  <line x1="60" y1="60.64101615137755" x2="60" y2="88.64101615137756" stroke="#000000" stroke-width="3"/>
  <line x1="77.87564434701785" y1="98.96152422706632" x2="102.12435565298213" y2="84.96152422706632" stroke="#000000" stroke-width="3"/>
  <line x1="82.12435565298215" y1="50.32050807568879" x2="57.875644347017854" y2="64.32050807568879" stroke="#000000" stroke-width="3"/>
  <line x1="102.12435565298215" y1="64.32050807568879" x2="77.87564434701785" y2="50.32050807568879" stroke="#000000" stroke-width="3"/>
  <line x1="120" y1="123.28203230275508" x2="120" y2="95.2820323027551" stroke="#000000" stroke-width="3"/>
  <line x1="97.87564434701787" y1="133.60254037844385" x2="122.12435565298215" y2="119.60254037844388" stroke="#000000" stroke-width="3"/>
  <line x1="140" y1="157.92304845413264" x2="140" y2="129.92304845413264" stroke="#000000" stroke-width="3"/>
  <line x1="117.87564434701787" y1="168.24355652982143" x2="142.12435565298216" y2="154.24355652982143" stroke="#000000" stroke-width="3"/>
  <line x1="137.87564434701784" y1="202.88457268119896" x2="162.12435565298216" y2="188.88457268119896" stroke="#000000" stroke-width="3"/>
  <line x1="162.12435565298216" y1="168.24355652982143" x2="137.87564434701784" y2="154.24355652982143" stroke="#000000" stroke-width="3"/>
  <line x1="180" y1="227.20508075688772" x2="180" y2="199.20508075688772" stroke="#000000" stroke-width="3"/>
  <line x1="157.87564434701784" y1="237.5255888325765" x2="182.12435565298216" y2="223.5255888325765" stroke="#000000" stroke-width="3"/>
  <line x1="182.12435565298216" y1="202.88457268119896" x2="157.87564434701784" y2="188.88457268119896" stroke="#000000" stroke-width="3"/>
  <line x1="200" y1="261.8460969082653" x2="200" y2="233.84609690826528" stroke="#000000" stroke-width="3"/>
  <line x1="177.87564434701784" y1="272.1666049839541" x2="202.12435565298216" y2="258.1666049839541" stroke="#000000" stroke-width="3"/>
  <line x1="157.87564434701784" y1="258.1666049839541" x2="182.12435565298216" y2="272.1666049839541" stroke="#000000" stroke-width="3"/>
  <line x1="80" y1="25.999999999999996" x2="80" y2="54" stroke="#000000" stroke-width="3"/>
  <line x1="102.12435565298213" y1="15.67949192431124" x2="77.87564434701785" y2="29.679491924311225" stroke="#000000" stroke-width="3"/>
  <line x1="122.12435565298215" y1="29.679491924311225" x2="97.87564434701787" y2="15.67949192431124" stroke="#000000" stroke-width="3"/>
  <line x1="117.87564434701787" y1="98.96152422706632" x2="142.12435565298216" y2="84.96152422706632" stroke="#000000" stroke-width="3"/>
  <line x1="142.12435565298216" y1="64.32050807568879" x2="117.87564434701785" y2="50.32050807568879" stroke="#000000" stroke-width="3"/>
  <line x1="160" y1="123.28203230275508" x2="160" y2="95.2820323027551" stroke="#000000" stroke-width="3"/>
  <line x1="137.87564434701784" y1="133.60254037844385" x2="162.12435565298216" y2="119.60254037844388" stroke="#000000" stroke-width="3"/>
  <line x1="162.12435565298216" y1="98.96152422706632" x2="137.87564434701784" y2="84.96152422706632" stroke="#000000" stroke-width="3"/>
  <line x1="180" y1="157.92304845413264" x2="180" y2="129.92304845413264" stroke="#000000" stroke-width="3"/>
  <line x1="157.87564434701784" y1="168.24355652982143" x2="182.12435565298216" y2="154.24355652982143" stroke="#000000" stroke-width="3"/>
  <line x1="200" y1="192.56406460551017" x2="200" y2="164.5640646055102" stroke="#000000" stroke-width="3"/>
  <line x1="220" y1="227.20508075688772" x2="220" y2="199.20508075688772" stroke="#000000" stroke-width="3"/>
  <line x1="240" y1="261.8460969082653" x2="240" y2="233.84609690826528" stroke="#000000" stroke-width="3"/>
  <line x1="217.87564434701784" y1="272.1666049839541" x2="242.12435565298216" y2="258.1666049839541" stroke="#000000" stroke-width="3"/>
  <line x1="242.12435565298216" y1="237.5255888325765" x2="217.87564434701784" y2="223.5255888325765" stroke="#000000" stroke-width="3"/>
  <line x1="197.87564434701784" y1="258.1666049839541" x2="222.12435565298216" y2="272.1666049839541" stroke="#000000" stroke-width="3"/>
  <line x1="160" y1="54" x2="160" y2="25.999999999999996" stroke="#000000" stroke-width="3"/>
  <line x1="137.87564434701784" y1="64.32050807568879" x2="162.12435565298216" y2="50.32050807568879" stroke="#000000" stroke-width="3"/>
  <line x1="142.12435565298216" y1="15.67949192431124" x2="117.87564434701787" y2="29.679491924311225" stroke="#000000" stroke-width="3"/>
  <line x1="162.12435565298216" y1="29.679491924311225" x2="137.87564434701784" y2="15.67949192431124" stroke="#000000" stroke-width="3"/>
  <line x1="180" y1="88.64101615137756" x2="180" y2="60.64101615137755" stroke="#000000" stroke-width="3"/>
  <line x1="177.87564434701784" y1="133.60254037844385" x2="202.12435565298216" y2="119.60254037844388" stroke="#000000" stroke-width="3"/>
  <line x1="202.12435565298216" y1="98.96152422706632" x2="177.87564434701784" y2="84.96152422706632" stroke="#000000" stroke-width="3"/>
  <line x1="197.87564434701784" y1="168.24355652982143" x2="222.12435565298216" y2="154.24355652982143" stroke="#000000" stroke-width="3"/>
  <line x1="222.12435565298216" y1="133.60254037844385" x2="197.87564434701784" y2="119.60254037844388" stroke="#000000" stroke-width="3"/>
  <line x1="240" y1="192.56406460551017" x2="240" y2="164.5640646055102" stroke="#000000" stroke-width="3"/>
  <line x1="217.87564434701784" y1="202.88457268119896" x2="242.12435565298216" y2="188.88457268119896" stroke="#000000" stroke-width="3"/>
  <line x1="242.12435565298216" y1="168.24355652982143" x2="217.87564434701784" y2="154.24355652982143" stroke="#000000" stroke-width="3"/>
  <line x1="260" y1="227.20508075688772" x2="260" y2="199.20508075688772" stroke="#000000" stroke-width="3"/>
  <line x1="237.87564434701784" y1="237.5255888325765" x2="262.12435565298216" y2="223.5255888325765" stroke="#000000" stroke-width="3"/>
  <line x1="200" y1="54" x2="200" y2="25.999999999999996" stroke="#000000" stroke-width="3"/>
  <line x1="177.87564434701784" y1="64.32050807568879" x2="202.12435565298216" y2="50.32050807568879" stroke="#000000" stroke-width="3"/>
  <line x1="182.12435565298216" y1="15.67949192431124" x2="157.87564434701784" y2="29.679491924311225" stroke="#000000" stroke-width="3"/>
  <line x1="202.12435565298216" y1="29.679491924311225" x2="177.87564434701784" y2="15.67949192431124" stroke="#000000" stroke-width="3"/>
  <line x1="240" y1="123.28203230275508" x2="240" y2="95.2820323027551" stroke="#000000" stroke-width="3"/>
  <line x1="242.12435565298216" y1="98.96152422706632" x2="217.87564434701784" y2="84.96152422706632" stroke="#000000" stroke-width="3"/>
  <line x1="260" y1="157.92304845413264" x2="260" y2="129.92304845413264" stroke="#000000" stroke-width="3"/>
  <line x1="280" y1="192.56406460551017" x2="280" y2="164.5640646055102" stroke="#000000" stroke-width="3"/>
  <line x1="257.87564434701784" y1="202.88457268119896" x2="282.12435565298216" y2="188.88457268119896" stroke="#000000" stroke-width="3"/>
  <line x1="240" y1="54" x2="240" y2="25.999999999999996" stroke="#000000" stroke-width="3"/>
  <line x1="217.87564434701784" y1="64.32050807568879" x2="242.12435565298216" y2="50.32050807568879" stroke="#000000" stroke-width="3"/>
  <line x1="222.12435565298216" y1="15.67949192431124" x2="197.87564434701784" y2="29.679491924311225" stroke="#000000" stroke-width="3"/>
  <line x1="242.12435565298216" y1="29.679491924311225" x2="217.87564434701784" y2="15.67949192431124" stroke="#000000" stroke-width="3"/>
  <line x1="260" y1="88.64101615137756" x2="260" y2="60.64101615137755" stroke="#000000" stroke-width="3"/>
  <line x1="237.87564434701784" y1="98.96152422706632" x2="262.12435565298216" y2="84.96152422706632" stroke="#000000" stroke-width="3"/>
  <line x1="262.12435565298216" y1="64.32050807568879" x2="237.87564434701784" y2="50.32050807568879" stroke="#000000" stroke-width="3"/>
  <line x1="280" y1="123.28203230275508" x2="280" y2="95.2820323027551" stroke="#000000" stroke-width="3"/>
  <line x1="257.87564434701784" y1="133.60254037844385" x2="282.12435565298216" y2="119.60254037844388" stroke="#000000" stroke-width="3"/>
  <line x1="282.12435565298216" y1="98.96152422706632" x2="257.87564434701784" y2="84.96152422706632" stroke="#000000" stroke-width="3"/>
  <line x1="300" y1="157.92304845413264" x2="300" y2="129.92304845413264" stroke="#000000" stroke-width="3"/>
  <line x1="277.87564434701784" y1="168.24355652982143" x2="302.12435565298216" y2="154.24355652982143" stroke="#000000" stroke-width="3"/>
  <line x1="302.12435565298216" y1="133.60254037844385" x2="277.87564434701784" y2="119.60254037844388" stroke="#000000" stroke-width="3"/>
  <circle cx="40" cy="143.92304845413264" r="6" fill="#00ff00" stroke="#333" stroke-width="1"/>
  <circle cx="60" cy="178.56406460551017" r="6" fill="#f8f8f8" stroke="#333" stroke-width="1"/>
  <circle cx="80" cy="213.2050807568877" r="6" fill="#f8f8f8" stroke="#333" stroke-width="1"/>
  <circle cx="100" cy="247.84609690826528" r="6" fill="#f8f8f8" stroke="#333" stroke-width="1"/>
  <circle cx="60" cy="109.2820323027551" r="6" fill="#f8f8f8" stroke="#333" stroke-width="1"/>
  <circle cx="80" cy="143.92304845413264" r="6" fill="#ffff00" stroke="#333" stroke-width="1"/>
  <circle cx="100" cy="178.56406460551017" r="6" fill="#ffff00" stroke="#333" stroke-width="1"/>
  <circle cx="120" cy="213.2050807568877" r="6" fill="#ffff00" stroke="#333" stroke-width="1"/>
  <circle cx="140" cy="247.84609690826528" r="6" fill="#f8f8f8" stroke="#333" stroke-width="1"/>
  <circle cx="80" cy="74.64101615137756" r="6" fill="#f8f8f8" stroke="#333" stroke-width="1"/>
  <circle cx="100" cy="109.2820323027551" r="6" fill="#f8f8f8" stroke="#333" stroke-width="1"/>
  <circle cx="120" cy="143.92304845413264" r="6" fill="#f8f8f8" stroke="#333" stroke-width="1"/>
  <circle cx="140" cy="178.56406460551017" r="6" fill="#ffff00" stroke="#333" stroke-width="1"/>
  <circle cx="160" cy="213.2050807568877" r="6" fill="#f8f8f8" stroke="#333" stroke-width="1"/>
  <circle cx="180" cy="247.84609690826528" r="6" fill="#f8f8f8" stroke="#333" stroke-width="1"/>
  <circle cx="100" cy="40" r="6" fill="#f8f8f8" stroke="#333" stroke-width="1"/>
  <circle cx="120" cy="74.64101615137756" r="6" fill="#f8f8f8" stroke="#333" stroke-width="1"/>
  <circle cx="140" cy="109.2820323027551" r="6" fill="#f8f8f8" stroke="#333" stroke-width="1"/>
  <circle cx="160" cy="143.92304845413264" r="6" fill="#f8f8f8" stroke="#333" stroke-width="1"/>
  <circle cx="180" cy="178.56406460551017" r="6" fill="#ffff00" stroke="#333" stroke-width="1"/>
  <circle cx="200" cy="213.2050807568877" r="6" fill="#f8f8f8" stroke="#333" stroke-width="1"/>
  <circle cx="220" cy="247.84609690826528" r="6" fill="#f8f8f8" stroke="#333" stroke-width="1"/>
  <circle cx="140" cy="40" r="6" fill="#f8f8f8" stroke="#333" stroke-width="1"/>
  <circle cx="160" cy="74.64101615137756" r="6" fill="#f8f8f8" stroke="#333" stroke-width="1"/>
  <circle cx="180" cy="109.2820323027551" r="6" fill="#f8f8f8" stroke="#333" stroke-width="1"/>
  <circle cx="200" cy="143.92304845413264" r="6" fill="#ffff00" stroke="#333" stroke-width="1"/>
  <circle cx="220" cy="178.56406460551017" r="6" fill="#f8f8f8" stroke="#333" stroke-width="1"/>
  <circle cx="240" cy="213.2050807568877" r="6" fill="#f8f8f8" stroke="#333" stroke-width="1"/>
  <circle cx="180" cy="40" r="6" fill="#f8f8f8" stroke="#333" stroke-width="1"/>
  <circle cx="200" cy="74.64101615137756" r="6" fill="#f8f8f8" stroke="#333" stroke-width="1"/>
  <circle cx="220" cy="109.2820323027551" r="6" fill="#f8f8f8" stroke="#333" stroke-width="1"/>
  <circle cx="240" cy="143.92304845413264" r="6" fill="#ffff00" stroke="#333" stroke-width="1"/>
  <circle cx="260" cy="178.56406460551017" r="6" fill="#ffff00" stroke="#333" stroke-width="1"/>
  <circle cx="220" cy="40" r="6" fill="#f8f8f8" stroke="#333" stroke-width="1"/>
  <circle cx="240" cy="74.64101615137756" r="6" fill="#f8f8f8" stroke="#333" stroke-width="1"/>
  <circle cx="260" cy="109.2820323027551" r="6" fill="#f8f8f8" stroke="#333" stroke-width="1"/>
  <circle cx="280" cy="143.92304845413264" r="6" fill="#ff0000" stroke="#333" stroke-width="1"/>
</svg>