<svg width="320" height="287.8460969082653" xmlns="http://www.w3.org/2000/svg">
  <rect width="100%" height="100%" fill="#ffffff"/>
  <path d="M 40 143.92304845413264 L 80 143.92304845413264 L 100 109.2820323027551 L 60 109.2820323027551 L 80 74.64101615137756 L 120 74.64101615137756 L 160 74.64101615137756 L 180 109.2820323027551 L 200 143.92304845413264 L 220 178.56406460551017 L 240 143.92304845413264 L 280 143.92304845413264" stroke="#ff0000" stroke-width="6" fill="none" opacity="0.7"/>
  <line x1="20" y1="123.92304845413264" x2="20" y2="163.92304845413264" stroke="#000000" stroke-width="3"/>
  <line x1="47.320508075688764" y1="116.60254037844388" x2="12.679491924311233" y2="136.60254037844388" stroke="#000000" stroke-width="3"/>
  <line x1="67.32050807568876" y1="136.60254037844388" x2="32.679491924311236" y2="116.60254037844388" stroke="#000000" stroke-width="3"/>
  <line x1="12.679491924311233" y1="151.2435565298214" x2="47.320508075688764" y2="171.2435565298214" stroke="#000000" stroke-width="3"/>
  <line x1="80" y1="198.56406460551017" x2="80" y2="158.56406460551017" stroke="#000000" stroke-width="3"/>
  <line x1="40" y1="158.56406460551017" x2="40" y2="198.56406460551017" stroke="#000000" stroke-width="3"/>
  <line x1="87.32050807568876" y1="171.2435565298214" x2="52.679491924311236" y2="151.2435565298214" stroke="#000000" stroke-width="3"/>
  <line x1="32.679491924311236" y1="185.88457268119896" x2="67.32050807568876" y2="205.88457268119896" stroke="#000000" stroke-width="3"/>
  <line x1="100" y1="233.2050807568877" x2="100" y2="193.20508075688772" stroke="#000000" stroke-width="3"/>
  <line x1="60" y1="193.20508075688772" x2="60" y2="233.2050807568877" stroke="#000000" stroke-width="3"/>
  <line x1="52.679491924311215" y1="220.5255888325765" x2="87.32050807568878" y2="240.5255888325765" stroke="#000000" stroke-width="3"/>
  <line x1="120" y1="267.8460969082653" x2="120" y2="227.84609690826528" stroke="#000000" stroke-width="3"/>
  <line x1="80" y1="227.84609690826528" x2="80" y2="267.8460969082653" stroke="#000000" stroke-width="3"/>
  <line x1="92.67949192431124" y1="275.166604983954" x2="127.32050807568876" y2="255.16660498395402" stroke="#000000" stroke-width="3"/>
  <line x1="127.32050807568879" y1="240.5255888325765" x2="92.67949192431122" y2="220.5255888325765" stroke="#000000" stroke-width="3"/>
  <line x1="72.67949192431124" y1="255.16660498395402" x2="107.32050807568876" y2="275.166604983954" stroke="#000000" stroke-width="3"/>
  <line x1="40" y1="89.2820323027551" x2="40" y2="129.2820323027551" stroke="#000000" stroke-width="3"/>
  <line x1="52.679491924311236" y1="136.60254037844388" x2="87.32050807568876" y2="116.60254037844388" stroke="#000000" stroke-width="3"/>
  <line x1="67.32050807568876" y1="81.96152422706632" x2="32.679491924311236" y2="101.96152422706632" stroke="#000000" stroke-width="3"/>
  <line x1="100" y1="163.92304845413264" x2="100" y2="123.92304845413264" stroke="#000000" stroke-width="3"/>
  <line x1="72.67949192431124" y1="171.2435565298214" x2="107.32050807568876" y2="151.2435565298214" stroke="#000000" stroke-width="3"/>
  <line x1="127.32050807568876" y1="171.2435565298214" x2="92.67949192431124" y2="151.2435565298214" stroke="#000000" stroke-width="3"/>
  <line x1="140" y1="233.2050807568877" x2="140" y2="193.20508075688772" stroke="#000000" stroke-width="3"/>
  <line x1="112.67949192431122" y1="240.5255888325765" x2="147.3205080756888" y2="220.5255888325765" stroke="#000000" stroke-width="3"/>
  <line x1="147.32050807568876" y1="205.88457268119896" x2="112.67949192431124" y2="185.88457268119896" stroke="#000000" stroke-width="3"/>
  <line x1="132.67949192431124" y1="275.166604983954" x2="167.32050807568876" y2="255.16660498395402" stroke="#000000" stroke-width="3"/>
  <line x1="167.3205080756888" y1="240.5255888325765" x2="132.6794919243112" y2="220.5255888325765" stroke="#000000" stroke-width="3"/>
  <line x1="112.67949192431124" y1="255.16660498395402" x2="147.32050807568876" y2="275.166604983954" stroke="#000000" stroke-width="3"/>
  <line x1="60" y1="54.641016151377556" x2="60" y2="94.64101615137756" stroke="#000000" stroke-width="3"/>
  <line x1="72.67949192431124" y1="101.96152422706632" x2="107.32050807568876" y2="81.96152422706632" stroke="#000000" stroke-width="3"/>
  <line x1="87.32050807568878" y1="47.320508075688785" x2="52.679491924311215" y2="67.32050807568879" stroke="#000000" stroke-width="3"/>
  <line x1="107.32050807568878" y1="67.32050807568879" x2="72.67949192431121" y2="47.320508075688785" stroke="#000000" stroke-width="3"/>
  <line x1="120" y1="129.2820323027551" x2="120" y2="89.2820323027551" stroke="#000000" stroke-width="3"/>
  <line x1="92.67949192431124" y1="136.60254037844388" x2="127.32050807568876" y2="116.60254037844388" stroke="#000000" stroke-width="3"/>
  <line x1="127.32050807568876" y1="101.96152422706632" x2="92.67949192431124" y2="81.96152422706632" stroke="#000000" stroke-width="3"/>
  <line x1="112.67949192431124" y1="171.2435565298214" x2="147.32050807568876" y2="151.2435565298214" stroke="#000000" stroke-width="3"/>
  <line x1="147.32050807568876" y1="136.60254037844388" x2="112.67949192431124" y2="116.60254037844388" stroke="#000000" stroke-width="3"/>
  <line x1="160" y1="198.56406460551017" x2="160" y2="158.56406460551017" stroke="#000000" stroke-width="3"/>
  <line x1="132.67949192431124" y1="205.88457268119896" x2="167.32050807568876" y2="185.88457268119896" stroke="#000000" stroke-width="3"/>
  <line x1="187.32050807568876" y1="205.88457268119896" x2="152.67949192431124" y2="185.88457268119896" stroke="#000000" stroke-width="3"/>
  <line x1="172.67949192431124" y1="275.166604983954" x2="207.32050807568874" y2="255.16660498395402" stroke="#000000" stroke-width="3"/>
  <line x1="207.3205080756888" y1="240.5255888325765" x2="172.6794919243112" y2="220.5255888325765" stroke="#000000" stroke-width="3"/>
  <line x1="152.67949192431124" y1="255.16660498395402" x2="187.32050807568876" y2="275.166604983954" stroke="#000000" stroke-width="3"/>
  <line x1="80" y1="20" x2="80" y2="60" stroke="#000000" stroke-width="3"/>
  <line x1="92.67949192431122" y1="67.32050807568879" x2="127.32050807568879" y2="47.320508075688785" stroke="#000000" stroke-width="3"/>
  <line x1="107.32050807568876" y1="12.679491924311233" x2="72.67949192431124" y2="32.679491924311236" stroke="#000000" stroke-width="3"/>
  <line x1="127.32050807568876" y1="32.679491924311236" x2="92.67949192431124" y2="12.679491924311233" stroke="#000000" stroke-width="3"/>
  <line x1="112.67949192431124" y1="101.96152422706632" x2="147.32050807568876" y2="81.96152422706632" stroke="#000000" stroke-width="3"/>
  <line x1="147.3205080756888" y1="67.32050807568879" x2="112.67949192431122" y2="47.320508075688785" stroke="#000000" stroke-width="3"/>
  <line x1="160" y1="129.2820323027551" x2="160" y2="89.2820323027551" stroke="#000000" stroke-width="3"/>
  <line x1="132.67949192431124" y1="136.60254037844388" x2="167.32050807568876" y2="116.60254037844388" stroke="#000000" stroke-width="3"/>
  <line x1="180" y1="163.92304845413264" x2="180" y2="123.92304845413264" stroke="#000000" stroke-width="3"/>
  <line x1="187.32050807568876" y1="136.60254037844388" x2="152.67949192431124" y2="116.60254037844388" stroke="#000000" stroke-width="3"/>
  <line x1="200" y1="198.56406460551017" x2="200" y2="158.56406460551017" stroke="#000000" stroke-width="3"/>
  <line x1="207.32050807568874" y1="171.2435565298214" x2="172.67949192431124" y2="151.2435565298214" stroke="#000000" stroke-width="3"/>
  <line x1="220" y1="233.2050807568877" x2="220" y2="193.20508075688772" stroke="#000000" stroke-width="3"/>
  <line x1="192.6794919243112" y1="240.5255888325765" x2="227.3205080756888" y2="220.5255888325765" stroke="#000000" stroke-width="3"/>
  <line x1="227.32050807568874" y1="205.88457268119896" x2="192.67949192431124" y2="185.88457268119896" stroke="#000000" stroke-width="3"/>
  <line x1="240" y1="267.8460969082653" x2="240" y2="227.84609690826528" stroke="#000000" stroke-width="3"/>
  <line x1="212.67949192431126" y1="275.166604983954" x2="247.32050807568874" y2="255.16660498395402" stroke="#000000" stroke-width="3"/>
  <line x1="192.67949192431124" y1="255.16660498395402" x2="227.32050807568874" y2="275.166604983954" stroke="#000000" stroke-width="3"/>
  <line x1="160" y1="60" x2="160" y2="20" stroke="#000000" stroke-width="3"/>
  <line x1="147.32050807568876" y1="12.679491924311233" x2="112.67949192431124" y2="32.679491924311236" stroke="#000000" stroke-width="3"/>
  <line x1="167.32050807568876" y1="32.679491924311236" x2="132.67949192431124" y2="12.679491924311233" stroke="#000000" stroke-width="3"/>
  <line x1="200" y1="129.2820323027551" x2="200" y2="89.2820323027551" stroke="#000000" stroke-width="3"/>
  <line x1="207.32050807568874" y1="101.96152422706632" x2="172.67949192431124" y2="81.96152422706632" stroke="#000000" stroke-width="3"/>
  <line x1="220" y1="163.92304845413264" x2="220" y2="123.92304845413264" stroke="#000000" stroke-width="3"/>
  <line x1="227.32050807568874" y1="136.60254037844388" x2="192.67949192431124" y2="116.60254037844388" stroke="#000000" stroke-width="3"/>
  <line x1="240" y1="198.56406460551017" x2="240" y2="158.56406460551017" stroke="#000000" stroke-width="3"/>
  <line x1="212.67949192431126" y1="205.88457268119896" x2="247.32050807568874" y2="185.88457268119896" stroke="#000000" stroke-width="3"/>
  <line x1="260" y1="233.2050807568877" x2="260" y2="193.20508075688772" stroke="#000000" stroke-width="3"/>
  <line x1="232.6794919243112" y1="240.5255888325765" x2="267.3205080756888" y2="220.5255888325765" stroke="#000000" stroke-width="3"/>
  <line x1="267.32050807568874" y1="205.88457268119896" x2="232.67949192431126" y2="185.88457268119896" stroke="#000000" stroke-width="3"/>
  <line x1="200" y1="60" x2="200" y2="20" stroke="#000000" stroke-width="3"/>
  <line x1="172.6794919243112" y1="67.32050807568879" x2="207.3205080756888" y2="47.320508075688785" stroke="#000000" stroke-width="3"/>
  <line x1="187.32050807568876" y1="12.679491924311233" x2="152.67949192431124" y2="32.679491924311236" stroke="#000000" stroke-width="3"/>
  <line x1="207.32050807568874" y1="32.679491924311236" x2="172.67949192431124" y2="12.679491924311233" stroke="#000000" stroke-width="3"/>
  <line x1="192.67949192431124" y1="101.96152422706632" x2="227.32050807568874" y2="81.96152422706632" stroke="#000000" stroke-width="3"/>
  <line x1="227.3205080756888" y1="67.32050807568879" x2="192.6794919243112" y2="47.320508075688785" stroke="#000000" stroke-width="3"/>
  <line x1="212.67949192431126" y1="136.60254037844388" x2="247.32050807568874" y2="116.60254037844388" stroke="#000000" stroke-width="3"/>
  <line x1="247.32050807568874" y1="101.96152422706632" x2="212.67949192431126" y2="81.96152422706632" stroke="#000000" stroke-width="3"/>
  <line x1="232.67949192431126" y1="171.2435565298214" x2="267.32050807568874" y2="151.2435565298214" stroke="#000000" stroke-width="3"/>
  <line x1="267.32050807568874" y1="136.60254037844388" x2="232.67949192431126" y2="116.60254037844388" stroke="#000000" stroke-width="3"/>
  <line x1="280" y1="198.56406460551017" x2="280" y2="158.56406460551017" stroke="#000000" stroke-width="3"/>
  <line x1="252.67949192431126" y1="205.88457268119896" x2="287.32050807568874" y2="185.88457268119896" stroke="#000000" stroke-width="3"/>
  <line x1="240" y1="60" x2="240" y2="20" stroke="#000000" stroke-width="3"/>
  <line x1="227.32050807568874" y1="12.679491924311233" x2="192.67949192431124" y2="32.679491924311236" stroke="#000000" stroke-width="3"/>
  <line x1="247.32050807568874" y1="32.679491924311236" x2="212.67949192431126" y2="12.679491924311233" stroke="#000000" stroke-width="3"/>
  <line x1="260" y1="94.64101615137756" x2="260" y2="54.641016151377556" stroke="#000000" stroke-width="3"/>
  <line x1="232.67949192431126" y1="101.96152422706632" x2="267.32050807568874" y2="81.96152422706632" stroke="#000000" stroke-width="3"/>
  <line x1="267.3205080756888" y1="67.32050807568879" x2="232.6794919243112" y2="47.320508075688785" stroke="#000000" stroke-width="3"/>
  <line x1="280" y1="129.2820323027551" x2="280" y2="89.2820323027551" stroke="#000000" stroke-width="3"/>
  <line x1="287.32050807568874" y1="101.96152422706632" x2="252.67949192431126" y2="81.96152422706632" stroke="#000000" stroke-width="3"/>
  <line x1="300" y1="163.92304845413264" x2="300" y2="123.92304845413264" stroke="#000000" stroke-width="3"/>
  <line x1="272.67949192431126" y1="171.2435565298214" x2="307.32050807568874" y2="151.2435565298214" stroke="#000000" stroke-width="3"/>
  <line x1="307.32050807568874" y1="136.60254037844388" x2="272.67949192431126" y2="116.60254037844388" stroke="#000000" stroke-width="3"/>
  <circle cx="40" cy="143.92304845413264" r="6" fill="#00ff00" stroke="#333" stroke-width="1"/>
  <circle cx="60" cy="178.56406460551017" r="6" fill="#f8f8f8" stroke="#333" stroke-width="1"/>
  <circle cx="80" cy="213.2050807568877" r="6" fill="#f8f8f8" stroke="#333" stroke-width="1"/>
  <circle cx="100" cy="247.84609690826528" r="6" fill="#f8f8f8" stroke="#333" stroke-width="1"/>
  <circle cx="60" cy="109.2820323027551" r="6" fill="#ffff00" stroke="#333" stroke-width="1"/>
  <circle cx="80" cy="143.92304845413264" r="6" fill="#ffff00" stroke="#333" stroke-width="1"/>
  <circle cx="100" cy="178.56406460551017" r="6" fill="#f8f8f8" stroke="#333" stroke-width="1"/>
  <circle cx="120" cy="213.2050807568877" r="6" fill="#f8f8f8" stroke="#333" stroke-width="1"/>
  <circle cx="140" cy="247.84609690826528" r="6" fill="#f8f8f8" stroke="#333" stroke-width="1"/>
  <circle cx="80" cy="74.64101615137756" r="6" fill="#ffff00" stroke="#333" stroke-width="1"/>
  <circle cx="100" cy="109.2820323027551" r="6" fill="#ffff00" stroke="#333" stroke-width="1"/>
  <circle cx="120" cy="143.92304845413264" r="6" fill="#f8f8f8" stroke="#333" stroke-width="1"/>
  <circle cx="140" cy="178.56406460551017" r="6" fill="#f8f8f8" stroke="#333" stroke-width="1"/>
  <circle cx="160" cy="213.2050807568877" r="6" fill="#f8f8f8" stroke="#333" stroke-width="1"/>
  <circle cx="180" cy="247.84609690826528" r="6" fill="#f8f8f8" stroke="#333" stroke-width="1"/>
  <circle cx="100" cy="40" r="6" fill="#f8f8f8" stroke="#333" stroke-width="1"/>
  <circle cx="120" cy="74.64101615137756" r="6" fill="#ffff00" stroke="#333" stroke-width="1"/>
  <circle cx="140" cy="109.2820323027551" r="6" fill="#f8f8f8" stroke="#333" stroke-width="1"/>
  <circle cx="160" cy="143.92304845413264" r="6" fill="#f8f8f8" stroke="#333" stroke-width="1"/>
  <circle cx="180" cy="178.56406460551017" r="6" fill="#f8f8f8" stroke="#333" stroke-width="1"/>
  <circle cx="200" cy="213.2050807568877" r="6" fill="#f8f8f8" stroke="#333" stroke-width="1"/>
  <circle cx="220" cy="247.84609690826528" r="6" fill="#f8f8f8" stroke="#333" stroke-width="1"/>
  <circle cx="140" cy="40" r="6" fill="#f8f8f8" stroke="#333" stroke-width="1"/>
  <circle cx="160" cy="74.64101615137756" r="6" fill="#ffff00" stroke="#333" stroke-width="1"/>
  <circle cx="180" cy="109.2820323027551" r="6" fill="#ffff00" stroke="#333" stroke-width="1"/>
  <circle cx="200" cy="143.92304845413264" r="6" fill="#ffff00" stroke="#333" stroke-width="1"/>
  <circle cx="220" cy="178.56406460551017" r="6" fill="#ffff00" stroke="#333" stroke-width="1"/>
  <circle cx="240" cy="213.2050807568877" r="6" fill="#f8f8f8" stroke="#333" stroke-width="1"/>
  <circle cx="180" cy="40" r="6" fill="#f8f8f8" stroke="#333" stroke-width="1"/>
  <circle cx="200" cy="74.64101615137756" r="6" fill="#f8f8f8" stroke="#333" stroke-width="1"/>
  <circle cx="220" cy="109.2820323027551" r="6" fill="#f8f8f8" stroke="#333" stroke-width="1"/>
  <circle cx="240" cy="143.92304845413264" r="6" fill="#ffff00" stroke="#333" stroke-width="1"/>
  <circle cx="260" cy="178.56406460551017" r="6" fill="#f8f8f8" stroke="#333" stroke-width="1"/>
  <circle cx="220" cy="40" r="6" fill="#f8f8f8" stroke="#333" stroke-width="1"/>
  <circle cx="240" cy="74.64101615137756" r="6" fill="#f8f8f8" stroke="#333" stroke-width="1"/>
  <circle cx="260" cy="109.2820323027551" r="6" fill="#f8f8f8" stroke="#333" stroke-width="1"/>
  <circle cx="280" cy="143.92304845413264" r="6" fill="#ff0000" stroke="#333" stroke-width="1"/>
</svg>