<svg width="360" height="319.80762113533154" xmlns="http://www.w3.org/2000/svg">
  <rect width="100%" height="100%" fill="#ffffff"/>
  <path d="M 30 159.90381056766577 L 45 133.92304845413264 L 60 159.90381056766577 L 75 133.92304845413264 L 105 133.92304845413264 L 90 159.90381056766577 L 75 185.88457268119893 L 105 185.88457268119893 L 120 159.90381056766577 L 135 185.88457268119893 L 165 185.88457268119893 L 180 159.90381056766577 L 210 159.90381056766577 L 225 133.92304845413264 L 240 159.90381056766577 L 225 185.88457268119893 L 240 211.8653347947321 L 255 185.88457268119893 L 270 211.8653347947321 L 300 211.8653347947321 L 315 185.88457268119893 L 330 159.90381056766577" stroke="#ff0000" stroke-width="4" fill="none" opacity="0.7"/>
  <line x1="47.30384757729337" y1="201.8749537379655" x2="57.69615242270663" y2="195.8749537379655" stroke="#000000" stroke-width="2"/>
  <line x1="62.30384757729337" y1="227.85571585149867" x2="72.69615242270663" y2="221.85571585149867" stroke="#000000" stroke-width="2"/>
  <line x1="45" y1="153.90381056766577" x2="45" y2="165.90381056766577" stroke="#000000" stroke-width="2"/>
  <line x1="62.30384757729337" y1="175.89419162443235" x2="72.69615242270663" y2="169.89419162443235" stroke="#000000" stroke-width="2"/>
  <line x1="47.30384757729337" y1="169.89419162443235" x2="57.69615242270663" y2="175.89419162443235" stroke="#000000" stroke-width="2"/>
  <line x1="60" y1="179.88457268119893" x2="60" y2="191.88457268119893" stroke="#000000" stroke-width="2"/>
  <line x1="62.30384757729337" y1="195.8749537379655" x2="72.69615242270663" y2="201.8749537379655" stroke="#000000" stroke-width="2"/>
  <line x1="92.30384757729337" y1="227.85571585149867" x2="102.69615242270663" y2="221.85571585149867" stroke="#000000" stroke-width="2"/>
  <line x1="77.30384757729337" y1="221.85571585149867" x2="87.69615242270663" y2="227.85571585149867" stroke="#000000" stroke-width="2"/>
  <line x1="90" y1="231.84609690826525" x2="90" y2="243.84609690826525" stroke="#000000" stroke-width="2"/>
  <line x1="92.30384757729337" y1="247.83647796503186" x2="102.69615242270663" y2="253.83647796503186" stroke="#000000" stroke-width="2"/>
  <line x1="122.30384757729337" y1="279.81724007856496" x2="132.69615242270663" y2="273.81724007856496" stroke="#000000" stroke-width="2"/>
  <line x1="107.30384757729337" y1="273.81724007856496" x2="117.69615242270663" y2="279.81724007856496" stroke="#000000" stroke-width="2"/>
  <line x1="120" y1="283.80762113533154" x2="120" y2="295.80762113533154" stroke="#000000" stroke-width="2"/>
  <line x1="47.30384757729337" y1="117.93266739736606" x2="57.69615242270663" y2="123.93266739736606" stroke="#000000" stroke-width="2"/>
  <line x1="60" y1="127.92304845413264" x2="60" y2="139.92304845413264" stroke="#000000" stroke-width="2"/>
  <line x1="77.30384757729337" y1="149.91342951089922" x2="87.69615242270663" y2="143.91342951089922" stroke="#000000" stroke-width="2"/>
  <line x1="72.69615242270663" y1="117.93266739736606" x2="62.30384757729337" y2="123.93266739736606" stroke="#000000" stroke-width="2"/>
  <line x1="75" y1="153.90381056766577" x2="75" y2="165.90381056766577" stroke="#000000" stroke-width="2"/>
  <line x1="92.30384757729337" y1="175.89419162443235" x2="102.69615242270663" y2="169.89419162443235" stroke="#000000" stroke-width="2"/>
  <line x1="107.30384757729337" y1="201.8749537379655" x2="117.69615242270663" y2="195.8749537379655" stroke="#000000" stroke-width="2"/>
  <line x1="92.30384757729337" y1="195.8749537379655" x2="102.69615242270663" y2="201.8749537379655" stroke="#000000" stroke-width="2"/>
  <line x1="105" y1="205.8653347947321" x2="105" y2="217.8653347947321" stroke="#000000" stroke-width="2"/>
  <line x1="120" y1="231.84609690826525" x2="120" y2="243.84609690826525" stroke="#000000" stroke-width="2"/>
  <line x1="137.30384757729337" y1="253.83647796503186" x2="147.69615242270663" y2="247.83647796503186" stroke="#000000" stroke-width="2"/>
  <line x1="122.30384757729337" y1="247.83647796503186" x2="132.69615242270663" y2="253.83647796503186" stroke="#000000" stroke-width="2"/>
  <line x1="150" y1="283.80762113533154" x2="150" y2="295.80762113533154" stroke="#000000" stroke-width="2"/>
  <line x1="75" y1="101.94228634059947" x2="75" y2="113.94228634059947" stroke="#000000" stroke-width="2"/>
  <line x1="77.30384757729337" y1="117.93266739736606" x2="87.69615242270663" y2="123.93266739736606" stroke="#000000" stroke-width="2"/>
  <line x1="107.30384757729337" y1="149.91342951089922" x2="117.69615242270663" y2="143.91342951089922" stroke="#000000" stroke-width="2"/>
  <line x1="102.69615242270663" y1="117.93266739736606" x2="92.30384757729337" y2="123.93266739736606" stroke="#000000" stroke-width="2"/>
  <line x1="105" y1="153.90381056766577" x2="105" y2="165.90381056766577" stroke="#000000" stroke-width="2"/>
  <line x1="120" y1="179.88457268119893" x2="120" y2="191.88457268119893" stroke="#000000" stroke-width="2"/>
  <line x1="137.30384757729337" y1="201.8749537379655" x2="147.69615242270663" y2="195.8749537379655" stroke="#000000" stroke-width="2"/>
  <line x1="122.30384757729337" y1="195.8749537379655" x2="132.69615242270663" y2="201.8749537379655" stroke="#000000" stroke-width="2"/>
  <line x1="137.30384757729337" y1="221.85571585149867" x2="147.69615242270663" y2="227.85571585149867" stroke="#000000" stroke-width="2"/>
  <line x1="150" y1="231.84609690826525" x2="150" y2="243.84609690826525" stroke="#000000" stroke-width="2"/>
  <line x1="167.30384757729337" y1="253.83647796503186" x2="177.69615242270663" y2="247.83647796503186" stroke="#000000" stroke-width="2"/>
  <line x1="152.30384757729337" y1="247.83647796503186" x2="162.69615242270663" y2="253.83647796503186" stroke="#000000" stroke-width="2"/>
  <line x1="165" y1="257.82685902179844" x2="165" y2="269.82685902179844" stroke="#000000" stroke-width="2"/>
  <line x1="182.30384757729337" y1="279.81724007856496" x2="192.69615242270663" y2="273.81724007856496" stroke="#000000" stroke-width="2"/>
  <line x1="167.30384757729337" y1="273.81724007856496" x2="177.69615242270663" y2="279.81724007856496" stroke="#000000" stroke-width="2"/>
  <line x1="105" y1="61.98076211353315" x2="105" y2="49.98076211353315" stroke="#000000" stroke-width="2"/>
  <line x1="102.69615242270663" y1="45.99038105676658" x2="92.30384757729337" y2="39.99038105676658" stroke="#000000" stroke-width="2"/>
  <line x1="120" y1="87.9615242270663" x2="120" y2="75.9615242270663" stroke="#000000" stroke-width="2"/>
  <line x1="90" y1="75.9615242270663" x2="90" y2="87.9615242270663" stroke="#000000" stroke-width="2"/>
  <line x1="102.69615242270663" y1="65.97114317029973" x2="92.30384757729337" y2="71.97114317029973" stroke="#000000" stroke-width="2"/>
  <line x1="117.69615242270663" y1="71.97114317029973" x2="107.30384757729337" y2="65.97114317029973" stroke="#000000" stroke-width="2"/>
  <line x1="135" y1="113.94228634059947" x2="135" y2="101.94228634059947" stroke="#000000" stroke-width="2"/>
  <line x1="117.69615242270663" y1="91.95190528383289" x2="107.30384757729337" y2="97.95190528383289" stroke="#000000" stroke-width="2"/>
  <line x1="120" y1="127.92304845413264" x2="120" y2="139.92304845413264" stroke="#000000" stroke-width="2"/>
  <line x1="132.69615242270663" y1="117.93266739736606" x2="122.30384757729337" y2="123.93266739736606" stroke="#000000" stroke-width="2"/>
  <line x1="147.69615242270663" y1="123.93266739736606" x2="137.30384757729337" y2="117.93266739736606" stroke="#000000" stroke-width="2"/>
  <line x1="165" y1="165.90381056766577" x2="165" y2="153.90381056766577" stroke="#000000" stroke-width="2"/>
  <line x1="135" y1="153.90381056766577" x2="135" y2="165.90381056766577" stroke="#000000" stroke-width="2"/>
  <line x1="152.30384757729337" y1="175.89419162443235" x2="162.69615242270663" y2="169.89419162443235" stroke="#000000" stroke-width="2"/>
  <line x1="162.69615242270663" y1="149.91342951089922" x2="152.30384757729337" y2="143.91342951089922" stroke="#000000" stroke-width="2"/>
  <line x1="137.30384757729337" y1="169.89419162443235" x2="147.69615242270663" y2="175.89419162443235" stroke="#000000" stroke-width="2"/>
  <line x1="167.30384757729337" y1="201.8749537379655" x2="177.69615242270663" y2="195.8749537379655" stroke="#000000" stroke-width="2"/>
  <line x1="152.30384757729337" y1="195.8749537379655" x2="162.69615242270663" y2="201.8749537379655" stroke="#000000" stroke-width="2"/>
  <line x1="182.30384757729337" y1="227.85571585149867" x2="192.69615242270663" y2="221.85571585149867" stroke="#000000" stroke-width="2"/>
  <line x1="192.69615242270663" y1="201.8749537379655" x2="182.30384757729337" y2="195.8749537379655" stroke="#000000" stroke-width="2"/>
  <line x1="167.30384757729337" y1="221.85571585149867" x2="177.69615242270663" y2="227.85571585149867" stroke="#000000" stroke-width="2"/>
  <line x1="210" y1="243.84609690826525" x2="210" y2="231.84609690826525" stroke="#000000" stroke-width="2"/>
  <line x1="180" y1="231.84609690826525" x2="180" y2="243.84609690826525" stroke="#000000" stroke-width="2"/>
  <line x1="197.30384757729337" y1="253.83647796503186" x2="207.69615242270663" y2="247.83647796503186" stroke="#000000" stroke-width="2"/>
  <line x1="225" y1="269.82685902179844" x2="225" y2="257.82685902179844" stroke="#000000" stroke-width="2"/>
  <line x1="212.30384757729337" y1="279.81724007856496" x2="222.69615242270663" y2="273.81724007856496" stroke="#000000" stroke-width="2"/>
  <line x1="222.69615242270663" y1="253.83647796503186" x2="212.30384757729337" y2="247.83647796503186" stroke="#000000" stroke-width="2"/>
  <line x1="197.30384757729337" y1="273.81724007856496" x2="207.69615242270663" y2="279.81724007856496" stroke="#000000" stroke-width="2"/>
  <line x1="120" y1="36" x2="120" y2="24" stroke="#000000" stroke-width="2"/>
  <line x1="150" y1="87.9615242270663" x2="150" y2="75.9615242270663" stroke="#000000" stroke-width="2"/>
  <line x1="132.69615242270663" y1="65.97114317029973" x2="122.30384757729337" y2="71.97114317029973" stroke="#000000" stroke-width="2"/>
  <line x1="147.69615242270663" y1="71.97114317029973" x2="137.30384757729337" y2="65.97114317029973" stroke="#000000" stroke-width="2"/>
  <line x1="165" y1="113.94228634059947" x2="165" y2="101.94228634059947" stroke="#000000" stroke-width="2"/>
  <line x1="167.30384757729337" y1="149.91342951089922" x2="177.69615242270663" y2="143.91342951089922" stroke="#000000" stroke-width="2"/>
  <line x1="162.69615242270663" y1="117.93266739736606" x2="152.30384757729337" y2="123.93266739736606" stroke="#000000" stroke-width="2"/>
  <line x1="177.69615242270663" y1="123.93266739736606" x2="167.30384757729337" y2="117.93266739736606" stroke="#000000" stroke-width="2"/>
  <line x1="182.30384757729337" y1="175.89419162443235" x2="192.69615242270663" y2="169.89419162443235" stroke="#000000" stroke-width="2"/>
  <line x1="192.69615242270663" y1="149.91342951089922" x2="182.30384757729337" y2="143.91342951089922" stroke="#000000" stroke-width="2"/>
  <line x1="210" y1="191.88457268119893" x2="210" y2="179.88457268119893" stroke="#000000" stroke-width="2"/>
  <line x1="197.30384757729337" y1="201.8749537379655" x2="207.69615242270663" y2="195.8749537379655" stroke="#000000" stroke-width="2"/>
  <line x1="207.69615242270663" y1="175.89419162443235" x2="197.30384757729337" y2="169.89419162443235" stroke="#000000" stroke-width="2"/>
  <line x1="225" y1="217.8653347947321" x2="225" y2="205.8653347947321" stroke="#000000" stroke-width="2"/>
  <line x1="212.30384757729337" y1="227.85571585149867" x2="222.69615242270663" y2="221.85571585149867" stroke="#000000" stroke-width="2"/>
  <line x1="240" y1="243.84609690826525" x2="240" y2="231.84609690826525" stroke="#000000" stroke-width="2"/>
  <line x1="237.69615242270663" y1="227.85571585149867" x2="227.30384757729337" y2="221.85571585149867" stroke="#000000" stroke-width="2"/>
  <line x1="255" y1="269.82685902179844" x2="255" y2="257.82685902179844" stroke="#000000" stroke-width="2"/>
  <line x1="242.30384757729337" y1="279.81724007856496" x2="252.69615242270663" y2="273.81724007856496" stroke="#000000" stroke-width="2"/>
  <line x1="252.69615242270663" y1="253.83647796503186" x2="242.30384757729337" y2="247.83647796503186" stroke="#000000" stroke-width="2"/>
  <line x1="150" y1="36" x2="150" y2="24" stroke="#000000" stroke-width="2"/>
  <line x1="147.69615242270663" y1="39.99038105676658" x2="137.30384757729337" y2="45.99038105676658" stroke="#000000" stroke-width="2"/>
  <line x1="162.69615242270663" y1="45.99038105676658" x2="152.30384757729337" y2="39.99038105676658" stroke="#000000" stroke-width="2"/>
  <line x1="180" y1="87.9615242270663" x2="180" y2="75.9615242270663" stroke="#000000" stroke-width="2"/>
  <line x1="162.69615242270663" y1="65.97114317029973" x2="152.30384757729337" y2="71.97114317029973" stroke="#000000" stroke-width="2"/>
  <line x1="195" y1="113.94228634059947" x2="195" y2="101.94228634059947" stroke="#000000" stroke-width="2"/>
  <line x1="177.69615242270663" y1="91.95190528383289" x2="167.30384757729337" y2="97.95190528383289" stroke="#000000" stroke-width="2"/>
  <line x1="210" y1="139.92304845413264" x2="210" y2="127.92304845413264" stroke="#000000" stroke-width="2"/>
  <line x1="197.30384757729337" y1="149.91342951089922" x2="207.69615242270663" y2="143.91342951089922" stroke="#000000" stroke-width="2"/>
  <line x1="192.69615242270663" y1="117.93266739736606" x2="182.30384757729337" y2="123.93266739736606" stroke="#000000" stroke-width="2"/>
  <line x1="207.69615242270663" y1="123.93266739736606" x2="197.30384757729337" y2="117.93266739736606" stroke="#000000" stroke-width="2"/>
  <line x1="225" y1="165.90381056766577" x2="225" y2="153.90381056766577" stroke="#000000" stroke-width="2"/>
  <line x1="212.30384757729337" y1="175.89419162443235" x2="222.69615242270663" y2="169.89419162443235" stroke="#000000" stroke-width="2"/>
  <line x1="240" y1="191.88457268119893" x2="240" y2="179.88457268119893" stroke="#000000" stroke-width="2"/>
  <line x1="255" y1="217.8653347947321" x2="255" y2="205.8653347947321" stroke="#000000" stroke-width="2"/>
  <line x1="242.30384757729337" y1="227.85571585149867" x2="252.69615242270663" y2="221.85571585149867" stroke="#000000" stroke-width="2"/>
  <line x1="270" y1="243.84609690826525" x2="270" y2="231.84609690826525" stroke="#000000" stroke-width="2"/>
  <line x1="267.69615242270663" y1="227.85571585149867" x2="257.30384757729337" y2="221.85571585149867" stroke="#000000" stroke-width="2"/>
  <line x1="195" y1="61.98076211353315" x2="195" y2="49.98076211353315" stroke="#000000" stroke-width="2"/>
  <line x1="177.69615242270663" y1="39.99038105676658" x2="167.30384757729337" y2="45.99038105676658" stroke="#000000" stroke-width="2"/>
  <line x1="192.69615242270663" y1="45.99038105676658" x2="182.30384757729337" y2="39.99038105676658" stroke="#000000" stroke-width="2"/>
  <line x1="210" y1="87.9615242270663" x2="210" y2="75.9615242270663" stroke="#000000" stroke-width="2"/>
  <line x1="225" y1="113.94228634059947" x2="225" y2="101.94228634059947" stroke="#000000" stroke-width="2"/>
  <line x1="207.69615242270663" y1="91.95190528383289" x2="197.30384757729337" y2="97.95190528383289" stroke="#000000" stroke-width="2"/>
  <line x1="240" y1="139.92304845413264" x2="240" y2="127.92304845413264" stroke="#000000" stroke-width="2"/>
  <line x1="222.69615242270663" y1="117.93266739736606" x2="212.30384757729337" y2="123.93266739736606" stroke="#000000" stroke-width="2"/>
  <line x1="255" y1="165.90381056766577" x2="255" y2="153.90381056766577" stroke="#000000" stroke-width="2"/>
  <line x1="242.30384757729337" y1="175.89419162443235" x2="252.69615242270663" y2="169.89419162443235" stroke="#000000" stroke-width="2"/>
  <line x1="252.69615242270663" y1="149.91342951089922" x2="242.30384757729337" y2="143.91342951089922" stroke="#000000" stroke-width="2"/>
  <line x1="270" y1="191.88457268119893" x2="270" y2="179.88457268119893" stroke="#000000" stroke-width="2"/>
  <line x1="267.69615242270663" y1="175.89419162443235" x2="257.30384757729337" y2="169.89419162443235" stroke="#000000" stroke-width="2"/>
  <line x1="272.30384757729337" y1="227.85571585149867" x2="282.69615242270663" y2="221.85571585149867" stroke="#000000" stroke-width="2"/>
  <line x1="282.69615242270663" y1="201.8749537379655" x2="272.30384757729337" y2="195.8749537379655" stroke="#000000" stroke-width="2"/>
  <line x1="297.69615242270663" y1="227.85571585149867" x2="287.30384757729337" y2="221.85571585149867" stroke="#000000" stroke-width="2"/>
  <line x1="222.69615242270663" y1="45.99038105676658" x2="212.30384757729337" y2="39.99038105676658" stroke="#000000" stroke-width="2"/>
  <line x1="240" y1="87.9615242270663" x2="240" y2="75.9615242270663" stroke="#000000" stroke-width="2"/>
  <line x1="222.69615242270663" y1="65.97114317029973" x2="212.30384757729337" y2="71.97114317029973" stroke="#000000" stroke-width="2"/>
  <line x1="255" y1="113.94228634059947" x2="255" y2="101.94228634059947" stroke="#000000" stroke-width="2"/>
  <line x1="237.69615242270663" y1="91.95190528383289" x2="227.30384757729337" y2="97.95190528383289" stroke="#000000" stroke-width="2"/>
  <line x1="252.69615242270663" y1="97.95190528383289" x2="242.30384757729337" y2="91.95190528383289" stroke="#000000" stroke-width="2"/>
  <line x1="270" y1="139.92304845413264" x2="270" y2="127.92304845413264" stroke="#000000" stroke-width="2"/>
  <line x1="257.30384757729337" y1="149.91342951089922" x2="267.69615242270663" y2="143.91342951089922" stroke="#000000" stroke-width="2"/>
  <line x1="267.69615242270663" y1="123.93266739736606" x2="257.30384757729337" y2="117.93266739736606" stroke="#000000" stroke-width="2"/>
  <line x1="285" y1="165.90381056766577" x2="285" y2="153.90381056766577" stroke="#000000" stroke-width="2"/>
  <line x1="272.30384757729337" y1="175.89419162443235" x2="282.69615242270663" y2="169.89419162443235" stroke="#000000" stroke-width="2"/>
  <line x1="287.30384757729337" y1="201.8749537379655" x2="297.69615242270663" y2="195.8749537379655" stroke="#000000" stroke-width="2"/>
  <line x1="297.69615242270663" y1="175.89419162443235" x2="287.30384757729337" y2="169.89419162443235" stroke="#000000" stroke-width="2"/>
  <line x1="240" y1="36" x2="240" y2="24" stroke="#000000" stroke-width="2"/>
  <line x1="255" y1="61.98076211353315" x2="255" y2="49.98076211353315" stroke="#000000" stroke-width="2"/>
  <line x1="237.69615242270663" y1="39.99038105676658" x2="227.30384757729337" y2="45.99038105676658" stroke="#000000" stroke-width="2"/>
  <line x1="252.69615242270663" y1="65.97114317029973" x2="242.30384757729337" y2="71.97114317029973" stroke="#000000" stroke-width="2"/>
  <line x1="285" y1="113.94228634059947" x2="285" y2="101.94228634059947" stroke="#000000" stroke-width="2"/>
  <line x1="282.69615242270663" y1="97.95190528383289" x2="272.30384757729337" y2="91.95190528383289" stroke="#000000" stroke-width="2"/>
  <line x1="282.69615242270663" y1="117.93266739736606" x2="272.30384757729337" y2="123.93266739736606" stroke="#000000" stroke-width="2"/>
  <line x1="302.30384757729337" y1="175.89419162443235" x2="312.69615242270663" y2="169.89419162443235" stroke="#000000" stroke-width="2"/>
  <line x1="312.69615242270663" y1="149.91342951089922" x2="302.30384757729337" y2="143.91342951089922" stroke="#000000" stroke-width="2"/>
  <line x1="267.69615242270663" y1="39.99038105676658" x2="257.30384757729337" y2="45.99038105676658" stroke="#000000" stroke-width="2"/>
  <line x1="282.69615242270663" y1="65.97114317029973" x2="272.30384757729337" y2="71.97114317029973" stroke="#000000" stroke-width="2"/>
  <line x1="317.30384757729337" y1="149.91342951089922" x2="327.69615242270663" y2="143.91342951089922" stroke="#000000" stroke-width="2"/>
  <line x1="312.69615242270663" y1="117.93266739736606" x2="302.30384757729337" y2="123.93266739736606" stroke="#000000" stroke-width="2"/>
  <circle cx="30" cy="159.90381056766577" r="4.5" fill="#00ff00" stroke="#333" stroke-width="1"/>
  <circle cx="45" cy="185.88457268119893" r="4.5" fill="#f8f8f8" stroke="#333" stroke-width="1"/>
  <circle cx="60" cy="211.8653347947321" r="4.5" fill="#f8f8f8" stroke="#333" stroke-width="1"/>
  <circle cx="75" cy="237.84609690826525" r="4.5" fill="#f8f8f8" stroke="#333" stroke-width="1"/>
  <circle cx="90" cy="263.82685902179844" r="4.5" fill="#f8f8f8" stroke="#333" stroke-width="1"/>
  <circle cx="105" cy="289.80762113533154" r="4.5" fill="#f8f8f8" stroke="#333" stroke-width="1"/>
  <circle cx="45" cy="133.92304845413264" r="4.5" fill="#ffff00" stroke="#333" stroke-width="1"/>
  <circle cx="60" cy="159.90381056766577" r="4.5" fill="#ffff00" stroke="#333" stroke-width="1"/>
  <circle cx="75" cy="185.88457268119893" r="4.5" fill="#ffff00" stroke="#333" stroke-width="1"/>
  <circle cx="90" cy="211.8653347947321" r="4.5" fill="#f8f8f8" stroke="#333" stroke-width="1"/>
  <circle cx="105" cy="237.84609690826525" r="4.5" fill="#f8f8f8" stroke="#333" stroke-width="1"/>
  <circle cx="120" cy="263.82685902179844" r="4.5" fill="#f8f8f8" stroke="#333" stroke-width="1"/>
  <circle cx="135" cy="289.80762113533154" r="4.5" fill="#f8f8f8" stroke="#333" stroke-width="1"/>
  <circle cx="60" cy="107.94228634059947" r="4.5" fill="#f8f8f8" stroke="#333" stroke-width="1"/>
  <circle cx="75" cy="133.92304845413264" r="4.5" fill="#ffff00" stroke="#333" stroke-width="1"/>
  <circle cx="90" cy="159.90381056766577" r="4.5" fill="#ffff00" stroke="#333" stroke-width="1"/>
  <circle cx="105" cy="185.88457268119893" r="4.5" fill="#ffff00" stroke="#333" stroke-width="1"/>
  <circle cx="120" cy="211.8653347947321" r="4.5" fill="#f8f8f8" stroke="#333" stroke-width="1"/>
  <circle cx="135" cy="237.84609690826525" r="4.5" fill="#f8f8f8" stroke="#333" stroke-width="1"/>
  <circle cx="150" cy="263.82685902179844" r="4.5" fill="#f8f8f8" stroke="#333" stroke-width="1"/>
  <circle cx="165" cy="289.80762113533154" r="4.5" fill="#f8f8f8" stroke="#333" stroke-width="1"/>
  <circle cx="75" cy="81.9615242270663" r="4.5" fill="#f8f8f8" stroke="#333" stroke-width="1"/>
  <circle cx="90" cy="107.94228634059947" r="4.5" fill="#f8f8f8" stroke="#333" stroke-width="1"/>
  <circle cx="105" cy="133.92304845413264" r="4.5" fill="#ffff00" stroke="#333" stroke-width="1"/>
  <circle cx="120" cy="159.90381056766577" r="4.5" fill="#ffff00" stroke="#333" stroke-width="1"/>
  <circle cx="135" cy="185.88457268119893" r="4.5" fill="#ffff00" stroke="#333" stroke-width="1"/>
  <circle cx="150" cy="211.8653347947321" r="4.5" fill="#f8f8f8" stroke="#333" stroke-width="1"/>
  <circle cx="165" cy="237.84609690826525" r="4.5" fill="#f8f8f8" stroke="#333" stroke-width="1"/>
  <circle cx="180" cy="263.82685902179844" r="4.5" fill="#f8f8f8" stroke="#333" stroke-width="1"/>
  <circle cx="195" cy="289.80762113533154" r="4.5" fill="#f8f8f8" stroke="#333" stroke-width="1"/>
  <circle cx="90" cy="55.98076211353315" r="4.5" fill="#f8f8f8" stroke="#333" stroke-width="1"/>
  <circle cx="105" cy="81.9615242270663" r="4.5" fill="#f8f8f8" stroke="#333" stroke-width="1"/>
  <circle cx="120" cy="107.94228634059947" r="4.5" fill="#f8f8f8" stroke="#333" stroke-width="1"/>
  <circle cx="135" cy="133.92304845413264" r="4.5" fill="#f8f8f8" stroke="#333" stroke-width="1"/>
  <circle cx="150" cy="159.90381056766577" r="4.5" fill="#f8f8f8" stroke="#333" stroke-width="1"/>
  <circle cx="165" cy="185.88457268119893" r="4.5" fill="#ffff00" stroke="#333" stroke-width="1"/>
  <circle cx="180" cy="211.8653347947321" r="4.5" fill="#f8f8f8" stroke="#333" stroke-width="1"/>
  <circle cx="195" cy="237.84609690826525" r="4.5" fill="#f8f8f8" stroke="#333" stroke-width="1"/>
  <circle cx="210" cy="263.82685902179844" r="4.5" fill="#f8f8f8" stroke="#333" stroke-width="1"/>
  <circle cx="225" cy="289.80762113533154" r="4.5" fill="#f8f8f8" stroke="#333" stroke-width="1"/>
  <circle cx="105" cy="30" r="4.5" fill="#f8f8f8" stroke="#333" stroke-width="1"/>
  <circle cx="120" cy="55.98076211353315" r="4.5" fill="#f8f8f8" stroke="#333" stroke-width="1"/>
  <circle cx="135" cy="81.9615242270663" r="4.5" fill="#f8f8f8" stroke="#333" stroke-width="1"/>
  <circle cx="150" cy="107.94228634059947" r="4.5" fill="#f8f8f8" stroke="#333" stroke-width="1"/>
  <circle cx="165" cy="133.92304845413264" r="4.5" fill="#f8f8f8" stroke="#333" stroke-width="1"/>
  <circle cx="180" cy="159.90381056766577" r="4.5" fill="#ffff00" stroke="#333" stroke-width="1"/>
  <circle cx="195" cy="185.88457268119893" r="4.5" fill="#f8f8f8" stroke="#333" stroke-width="1"/>
  <circle cx="210" cy="211.8653347947321" r="4.5" fill="#f8f8f8" stroke="#333" stroke-width="1"/>
  <circle cx="225" cy="237.84609690826525" r="4.5" fill="#f8f8f8" stroke="#333" stroke-width="1"/>
  <circle cx="240" cy="263.82685902179844" r="4.5" fill="#f8f8f8" stroke="#333" stroke-width="1"/>
  <circle cx="255" cy="289.80762113533154" r="4.5" fill="#f8f8f8" stroke="#333" stroke-width="1"/>
  <circle cx="135" cy="30" r="4.5" fill="#f8f8f8" stroke="#333" stroke-width="1"/>
  <circle cx="150" cy="55.98076211353315" r="4.5" fill="#f8f8f8" stroke="#333" stroke-width="1"/>
  <circle cx="165" cy="81.9615242270663" r="4.5" fill="#f8f8f8" stroke="#333" stroke-width="1"/>
  <circle cx="180" cy="107.94228634059947" r="4.5" fill="#f8f8f8" stroke="#333" stroke-width="1"/>
  <circle cx="195" cy="133.92304845413264" r="4.5" fill="#f8f8f8" stroke="#333" stroke-width="1"/>
  <circle cx="210" cy="159.90381056766577" r="4.5" fill="#ffff00" stroke="#333" stroke-width="1"/>
  <circle cx="225" cy="185.88457268119893" r="4.5" fill="#ffff00" stroke="#333" stroke-width="1"/>
  <circle cx="240" cy="211.8653347947321" r="4.5" fill="#ffff00" stroke="#333" stroke-width="1"/>
  <circle cx="255" cy="237.84609690826525" r="4.5" fill="#f8f8f8" stroke="#333" stroke-width="1"/>
  <circle cx="270" cy="263.82685902179844" r="4.5" fill="#f8f8f8" stroke="#333" stroke-width="1"/>
  <circle cx="165" cy="30" r="4.5" fill="#f8f8f8" stroke="#333" stroke-width="1"/>
  <circle cx="180" cy="55.98076211353315" r="4.5" fill="#f8f8f8" stroke="#333" stroke-width="1"/>
  <circle cx="195" cy="81.9615242270663" r="4.5" fill="#f8f8f8" stroke="#333" stroke-width="1"/>
  <circle cx="210" cy="107.94228634059947" r="4.5" fill="#f8f8f8" stroke="#333" stroke-width="1"/>
  <circle cx="225" cy="133.92304845413264" r="4.5" fill="#ffff00" stroke="#333" stroke-width="1"/>
  <circle cx="240" cy="159.90381056766577" r="4.5" fill="#ffff00" stroke="#333" stroke-width="1"/>
  <circle cx="255" cy="185.88457268119893" r="4.5" fill="#ffff00" stroke="#333" stroke-width="1"/>
  <circle cx="270" cy="211.8653347947321" r="4.5" fill="#ffff00" stroke="#333" stroke-width="1"/>
  <circle cx="285" cy="237.84609690826525" r="4.5" fill="#f8f8f8" stroke="#333" stroke-width="1"/>
  <circle cx="195" cy="30" r="4.5" fill="#f8f8f8" stroke="#333" stroke-width="1"/>
  <circle cx="210" cy="55.98076211353315" r="4.5" fill="#f8f8f8" stroke="#333" stroke-width="1"/>
  <circle cx="225" cy="81.9615242270663" r="4.5" fill="#f8f8f8" stroke="#333" stroke-width="1"/>
  <circle cx="240" cy="107.94228634059947" r="4.5" fill="#f8f8f8" stroke="#333" stroke-width="1"/>
  <circle cx="255" cy="133.92304845413264" r="4.5" fill="#f8f8f8" stroke="#333" stroke-width="1"/>
  <circle cx="270" cy="159.90381056766577" r="4.5" fill="#f8f8f8" stroke="#333" stroke-width="1"/>
  <circle cx="285" cy="185.88457268119893" r="4.5" fill="#f8f8f8" stroke="#333" stroke-width="1"/>
  <circle cx="300" cy="211.8653347947321" r="4.5" fill="#ffff00" stroke="#333" stroke-width="1"/>
  <circle cx="225" cy="30" r="4.5" fill="#f8f8f8" stroke="#333" stroke-width="1"/>
  <circle cx="240" cy="55.98076211353315" r="4.5" fill="#f8f8f8" stroke="#333" stroke-width="1"/>
  <circle cx="255" cy="81.9615242270663" r="4.5" fill="#f8f8f8" stroke="#333" stroke-width="1"/>
  <circle cx="270" cy="107.94228634059947" r="4.5" fill="#f8f8f8" stroke="#333" stroke-width="1"/>
  <circle cx="285" cy="133.92304845413264" r="4.5" fill="#f8f8f8" stroke="#333" stroke-width="1"/>
  <circle cx="300" cy="159.90381056766577" r="4.5" fill="#f8f8f8" stroke="#333" stroke-width="1"/>
  <circle cx="315" cy="185.88457268119893" r="4.5" fill="#ffff00" stroke="#333" stroke-width="1"/>
  <circle cx="255" cy="30" r="4.5" fill="#f8f8f8" stroke="#333" stroke-width="1"/>
  <circle cx="270" cy="55.98076211353315" r="4.5" fill="#f8f8f8" stroke="#333" stroke-width="1"/>
  <circle cx="285" cy="81.9615242270663" r="4.5" fill="#f8f8f8" stroke="#333" stroke-width="1"/>
  <circle cx="300" cy="107.94228634059947" r="4.5" fill="#f8f8f8" stroke="#333" stroke-width="1"/>
  <circle cx="315" cy="133.92304845413264" r="4.5" fill="#f8f8f8" stroke="#333" stroke-width="1"/>
  <circle cx="330" cy="159.90381056766577" r="4.5" fill="#ff0000" stroke="#333" stroke-width="1"/>
</svg>