<svg width="240" height="218.56406460551017" xmlns="http://www.w3.org/2000/svg">
  <rect width="100%" height="100%" fill="#ffffff"/>
  <path d="M 40 109.28203230275508 L 60 74.64101615137754 L 80 40 L 100 74.64101615137754 L 80 109.28203230275508 L 100 143.92304845413264 L 60 143.92304845413264 L 80 178.56406460551017 L 120 178.56406460551017 L 140 143.92304845413264 L 180 143.92304845413264 L 200 109.28203230275508" stroke="#ff0000" stroke-width="4" fill="none" opacity="0.7"/>
  <line x1="43.07179676972449" y1="130.60254037844385" x2="56.92820323027551" y2="122.60254037844386" stroke="#000000" stroke-width="2"/>
  <line x1="80" y1="82.64101615137754" x2="80" y2="66.64101615137754" stroke="#000000" stroke-width="2"/>
  <line x1="63.07179676972449" y1="95.96152422706632" x2="76.92820323027551" y2="87.96152422706632" stroke="#000000" stroke-width="2"/>
  <line x1="60" y1="101.28203230275508" x2="60" y2="117.28203230275508" stroke="#000000" stroke-width="2"/>
  <line x1="63.07179676972449" y1="122.60254037844386" x2="76.92820323027551" y2="130.60254037844385" stroke="#000000" stroke-width="2"/>
  <line x1="120" y1="151.92304845413264" x2="120" y2="135.92304845413264" stroke="#000000" stroke-width="2"/>
  <line x1="103.07179676972449" y1="165.2435565298214" x2="116.92820323027551" y2="157.2435565298214" stroke="#000000" stroke-width="2"/>
  <line x1="116.92820323027551" y1="130.60254037844385" x2="103.07179676972449" y2="122.60254037844386" stroke="#000000" stroke-width="2"/>
  <line x1="83.07179676972449" y1="157.2435565298214" x2="96.92820323027551" y2="165.2435565298214" stroke="#000000" stroke-width="2"/>
  <line x1="100" y1="48" x2="100" y2="32" stroke="#000000" stroke-width="2"/>
  <line x1="120" y1="82.64101615137754" x2="120" y2="66.64101615137754" stroke="#000000" stroke-width="2"/>
  <line x1="103.07179676972449" y1="95.96152422706632" x2="116.92820323027551" y2="87.96152422706632" stroke="#000000" stroke-width="2"/>
  <line x1="116.92820323027551" y1="61.32050807568877" x2="103.07179676972449" y2="53.32050807568877" stroke="#000000" stroke-width="2"/>
  <line x1="140" y1="117.28203230275508" x2="140" y2="101.28203230275508" stroke="#000000" stroke-width="2"/>
  <line x1="123.07179676972449" y1="130.60254037844385" x2="136.9282032302755" y2="122.60254037844386" stroke="#000000" stroke-width="2"/>
  <line x1="136.9282032302755" y1="95.96152422706632" x2="123.07179676972449" y2="87.96152422706632" stroke="#000000" stroke-width="2"/>
  <line x1="143.0717967697245" y1="165.2435565298214" x2="156.9282032302755" y2="157.2435565298214" stroke="#000000" stroke-width="2"/>
  <line x1="176.9282032302755" y1="165.2435565298214" x2="163.0717967697245" y2="157.2435565298214" stroke="#000000" stroke-width="2"/>
  <line x1="160" y1="82.64101615137754" x2="160" y2="66.64101615137754" stroke="#000000" stroke-width="2"/>
  <line x1="136.9282032302755" y1="53.32050807568877" x2="123.07179676972449" y2="61.32050807568877" stroke="#000000" stroke-width="2"/>
  <line x1="156.9282032302755" y1="61.32050807568877" x2="143.0717967697245" y2="53.32050807568877" stroke="#000000" stroke-width="2"/>
  <line x1="180" y1="117.28203230275508" x2="180" y2="101.28203230275508" stroke="#000000" stroke-width="2"/>
  <line x1="163.0717967697245" y1="130.60254037844385" x2="176.9282032302755" y2="122.60254037844386" stroke="#000000" stroke-width="2"/>
  <line x1="176.9282032302755" y1="95.96152422706632" x2="163.0717967697245" y2="87.96152422706632" stroke="#000000" stroke-width="2"/>
  <circle cx="40" cy="109.28203230275508" r="6" fill="#00ff00" stroke="#333" stroke-width="1"/>
  <circle cx="60" cy="143.92304845413264" r="6" fill="#ffff00" stroke="#333" stroke-width="1"/>
  <circle cx="80" cy="178.56406460551017" r="6" fill="#ffff00" stroke="#333" stroke-width="1"/>
  <circle cx="60" cy="74.64101615137754" r="6" fill="#ffff00" stroke="#333" stroke-width="1"/>
  <circle cx="80" cy="109.28203230275508" r="6" fill="#ffff00" stroke="#333" stroke-width="1"/>
  <circle cx="100" cy="143.92304845413264" r="6" fill="#ffff00" stroke="#333" stroke-width="1"/>
  <circle cx="120" cy="178.56406460551017" r="6" fill="#ffff00" stroke="#333" stroke-width="1"/>
  <circle cx="80" cy="40" r="6" fill="#ffff00" stroke="#333" stroke-width="1"/>
  <circle cx="100" cy="74.64101615137754" r="6" fill="#ffff00" stroke="#333" stroke-width="1"/>
  <circle cx="120" cy="109.28203230275508" r="6" fill="#f8f8f8" stroke="#333" stroke-width="1"/>
  <circle cx="140" cy="143.92304845413264" r="6" fill="#ffff00" stroke="#333" stroke-width="1"/>
  <circle cx="160" cy="178.56406460551017" r="6" fill="#f8f8f8" stroke="#333" stroke-width="1"/>
  <circle cx="120" cy="40" r="6" fill="#f8f8f8" stroke="#333" stroke-width="1"/>
  <circle cx="140" cy="74.64101615137754" r="6" fill="#f8f8f8" stroke="#333" stroke-width="1"/>
  <circle cx="160" cy="109.28203230275508" r="6" fill="#f8f8f8" stroke="#333" stroke-width="1"/>
  <circle cx="180" cy="143.92304845413264" r="6" fill="#ffff00" stroke="#333" stroke-width="1"/>
  <circle cx="160" cy="40" r="6" fill="#f8f8f8" stroke="#333" stroke-width="1"/>
  <circle cx="180" cy="74.64101615137754" r="6" fill="#f8f8f8" stroke="#333" stroke-width="1"/>
  <circle cx="200" cy="109.28203230275508" r="6" fill="#ff0000" stroke="#333" stroke-width="1"/>
</svg>