<svg width="242" height="242" xmlns="http://www.w3.org/2000/svg">
  <rect width="100%" height="100%" fill="#ffffff"/>
  <path d="M 20 20 L 60 20 L 60 60 L 60 100 L 100 100 L 100 140 L 140 140 L 180 140 L 180 180 L 180 220 L 220 220" stroke="#ff6b6b" stroke-width="4" fill="none" opacity="0.6"/>
  <rect x="1" y="1" width="38" height="38" fill="#51cf66" opacity="0.3"/>
  <rect x="41" y="1" width="38" height="38" fill="#ff6b6b" opacity="0.3"/>
  <rect x="41" y="41" width="38" height="38" fill="#ff6b6b" opacity="0.3"/>
  <rect x="41" y="81" width="38" height="38" fill="#ff6b6b" opacity="0.3"/>
  <rect x="81" y="81" width="38" height="38" fill="#ff6b6b" opacity="0.3"/>
  <rect x="81" y="121" width="38" height="38" fill="#ff6b6b" opacity="0.3"/>
  <rect x="121" y="121" width="38" height="38" fill="#ff6b6b" opacity="0.3"/>
  <rect x="161" y="121" width="38" height="38" fill="#ff6b6b" opacity="0.3"/>
  <rect x="161" y="161" width="38" height="38" fill="#ff6b6b" opacity="0.3"/>
  <rect x="161" y="201" width="38" height="38" fill="#ff6b6b" opacity="0.3"/>
  <rect x="201" y="201" width="38" height="38" fill="#ffd43b" opacity="0.3"/>
  <line x1="0" y1="40" x2="40" y2="40" stroke="#000000" stroke-width="2"/>
  <line x1="0" y1="0" x2="0" y2="40" stroke="#000000" stroke-width="2"/>
  <line x1="0" y1="0" x2="40" y2="0" stroke="#000000" stroke-width="2"/>
  <line x1="80" y1="0" x2="80" y2="40" stroke="#000000" stroke-width="2"/>
  <line x1="40" y1="0" x2="80" y2="0" stroke="#000000" stroke-width="2"/>
  <line x1="80" y1="0" x2="120" y2="0" stroke="#000000" stroke-width="2"/>
  <line x1="120" y1="40" x2="160" y2="40" stroke="#000000" stroke-width="2"/>
  <line x1="120" y1="0" x2="160" y2="0" stroke="#000000" stroke-width="2"/>
  <line x1="200" y1="0" x2="200" y2="40" stroke="#000000" stroke-width="2"/>
  <line x1="160" y1="0" x2="200" y2="0" stroke="#000000" stroke-width="2"/>
  <line x1="240" y1="0" x2="240" y2="40" stroke="#000000" stroke-width="2"/>
  <line x1="200" y1="0" x2="240" y2="0" stroke="#000000" stroke-width="2"/>
  <line x1="0" y1="40" x2="0" y2="80" stroke="#000000" stroke-width="2"/>
  <line x1="80" y1="40" x2="80" y2="80" stroke="#000000" stroke-width="2"/>
  <line x1="120" y1="40" x2="120" y2="80" stroke="#000000" stroke-width="2"/>
  <line x1="80" y1="80" x2="120" y2="80" stroke="#000000" stroke-width="2"/>
  <line x1="160" y1="80" x2="200" y2="80" stroke="#000000" stroke-width="2"/>
  <line x1="240" y1="40" x2="240" y2="80" stroke="#000000" stroke-width="2"/>
  <line x1="40" y1="80" x2="40" y2="120" stroke="#000000" stroke-width="2"/>
  <line x1="0" y1="80" x2="0" y2="120" stroke="#000000" stroke-width="2"/>
  <line x1="40" y1="120" x2="80" y2="120" stroke="#000000" stroke-width="2"/>
  <line x1="120" y1="120" x2="160" y2="120" stroke="#000000" stroke-width="2"/>
  <line x1="200" y1="80" x2="200" y2="120" stroke="#000000" stroke-width="2"/>
  <line x1="160" y1="120" x2="200" y2="120" stroke="#000000" stroke-width="2"/>
  <line x1="240" y1="80" x2="240" y2="120" stroke="#000000" stroke-width="2"/>
  <line x1="0" y1="160" x2="40" y2="160" stroke="#000000" stroke-width="2"/>
  <line x1="0" y1="120" x2="0" y2="160" stroke="#000000" stroke-width="2"/>
  <line x1="80" y1="120" x2="80" y2="160" stroke="#000000" stroke-width="2"/>
  <line x1="40" y1="160" x2="80" y2="160" stroke="#000000" stroke-width="2"/>
  <line x1="120" y1="160" x2="160" y2="160" stroke="#000000" stroke-width="2"/>
  <line x1="200" y1="120" x2="200" y2="160" stroke="#000000" stroke-width="2"/>
  <line x1="240" y1="120" x2="240" y2="160" stroke="#000000" stroke-width="2"/>
  <line x1="200" y1="160" x2="240" y2="160" stroke="#000000" stroke-width="2"/>
  <line x1="0" y1="160" x2="0" y2="200" stroke="#000000" stroke-width="2"/>
  <line x1="40" y1="200" x2="80" y2="200" stroke="#000000" stroke-width="2"/>
  <line x1="120" y1="160" x2="120" y2="200" stroke="#000000" stroke-width="2"/>
  <line x1="80" y1="200" x2="120" y2="200" stroke="#000000" stroke-width="2"/>
  <line x1="160" y1="160" x2="160" y2="200" stroke="#000000" stroke-width="2"/>
  <line x1="200" y1="160" x2="200" y2="200" stroke="#000000" stroke-width="2"/>
  <line x1="240" y1="160" x2="240" y2="200" stroke="#000000" stroke-width="2"/>
  <line x1="40" y1="200" x2="40" y2="240" stroke="#000000" stroke-width="2"/>
  <line x1="0" y1="240" x2="40" y2="240" stroke="#000000" stroke-width="2"/>
  <line x1="0" y1="200" x2="0" y2="240" stroke="#000000" stroke-width="2"/>
  <line x1="40" y1="240" x2="80" y2="240" stroke="#000000" stroke-width="2"/>
  <line x1="80" y1="240" x2="120" y2="240" stroke="#000000" stroke-width="2"/>
  <line x1="120" y1="240" x2="160" y2="240" stroke="#000000" stroke-width="2"/>
  <line x1="160" y1="240" x2="200" y2="240" stroke="#000000" stroke-width="2"/>
  <line x1="240" y1="200" x2="240" y2="240" stroke="#000000" stroke-width="2"/>
  <line x1="200" y1="240" x2="240" y2="240" stroke="#000000" stroke-width="2"/>
</svg>