<svg width="200" height="200" xmlns="http://www.w3.org/2000/svg">
  <rect width="100%" height="100%" fill="#ffffff"/>
  <path d="M 40 40 L 80 40 L 120 40 L 160 40 L 160 80 L 160 120 L 160 160" stroke="#ff0000" stroke-width="4" fill="none" opacity="0.7"/>
  <line x1="32" y1="60" x2="48" y2="60" stroke="#000000" stroke-width="2"/>
  <line x1="60" y1="88" x2="60" y2="72" stroke="#000000" stroke-width="2"/>
  <line x1="100" y1="88" x2="100" y2="72" stroke="#000000" stroke-width="2"/>
  <line x1="140" y1="88" x2="140" y2="72" stroke="#000000" stroke-width="2"/>
  <line x1="112" y1="100" x2="128" y2="100" stroke="#000000" stroke-width="2"/>
  <line x1="100" y1="128" x2="100" y2="112" stroke="#000000" stroke-width="2"/>
  <line x1="72" y1="140" x2="88" y2="140" stroke="#000000" stroke-width="2"/>
  <line x1="140" y1="128" x2="140" y2="112" stroke="#000000" stroke-width="2"/>
  <line x1="140" y1="168" x2="140" y2="152" stroke="#000000" stroke-width="2"/>
  <circle cx="40" cy="40" r="6" fill="#00ff00" stroke="#333" stroke-width="1"/>
  <circle cx="80" cy="40" r="6" fill="#ffff00" stroke="#333" stroke-width="1"/>
  <circle cx="120" cy="40" r="6" fill="#ffff00" stroke="#333" stroke-width="1"/>
  <circle cx="160" cy="40" r="6" fill="#ffff00" stroke="#333" stroke-width="1"/>
  <circle cx="40" cy="80" r="6" fill="#f8f8f8" stroke="#333" stroke-width="1"/>
  <circle cx="80" cy="80" r="6" fill="#f8f8f8" stroke="#333" stroke-width="1"/>
  <circle cx="120" cy="80" r="6" fill="#f8f8f8" stroke="#333" stroke-width="1"/>
  <circle cx="160" cy="80" r="6" fill="#ffff00" stroke="#333" stroke-width="1"/>
  <circle cx="40" cy="120" r="6" fill="#f8f8f8" stroke="#333" stroke-width="1"/>
  <circle cx="80" cy="120" r="6" fill="#f8f8f8" stroke="#333" stroke-width="1"/>
  <circle cx="120" cy="120" r="6" fill="#f8f8f8" stroke="#333" stroke-width="1"/>
  <circle cx="160" cy="120" r="6" fill="#ffff00" stroke="#333" stroke-width="1"/>
  <circle cx="40" cy="160" r="6" fill="#f8f8f8" stroke="#333" stroke-width="1"/>
  <circle cx="80" cy="160" r="6" fill="#f8f8f8" stroke="#333" stroke-width="1"/>
  <circle cx="120" cy="160" r="6" fill="#f8f8f8" stroke="#333" stroke-width="1"/>
  <circle cx="160" cy="160" r="6" fill="#ff0000" stroke="#333" stroke-width="1"/>
</svg>