<svg width="280" height="240" xmlns="http://www.w3.org/2000/svg">
  <rect width="100%" height="100%" fill="#ffffff"/>
  <path d="M 40 40 L 80 40 L 120 40 L 160 40 L 160 80 L 200 80 L 200 120 L 200 160 L 200 200 L 240 200" stroke="#ff0000" stroke-width="6" fill="none" opacity="0.7"/>
  <line x1="24" y1="60" x2="56" y2="60" stroke="#000000" stroke-width="3"/>
  <line x1="20" y1="24" x2="20" y2="56" stroke="#000000" stroke-width="3"/>
  <line x1="24" y1="20" x2="56" y2="20" stroke="#000000" stroke-width="3"/>
  <line x1="64" y1="20" x2="96" y2="20" stroke="#000000" stroke-width="3"/>
  <line x1="104" y1="60" x2="136" y2="60" stroke="#000000" stroke-width="3"/>
  <line x1="104" y1="20" x2="136" y2="20" stroke="#000000" stroke-width="3"/>
  <line x1="180" y1="24" x2="180" y2="56" stroke="#000000" stroke-width="3"/>
  <line x1="144" y1="20" x2="176" y2="20" stroke="#000000" stroke-width="3"/>
  <line x1="220" y1="24" x2="220" y2="56" stroke="#000000" stroke-width="3"/>
  <line x1="184" y1="20" x2="216" y2="20" stroke="#000000" stroke-width="3"/>
  <line x1="260" y1="24" x2="260" y2="56" stroke="#000000" stroke-width="3"/>
  <line x1="224" y1="20" x2="256" y2="20" stroke="#000000" stroke-width="3"/>
  <line x1="24" y1="100" x2="56" y2="100" stroke="#000000" stroke-width="3"/>
  <line x1="20" y1="64" x2="20" y2="96" stroke="#000000" stroke-width="3"/>
  <line x1="100" y1="64" x2="100" y2="96" stroke="#000000" stroke-width="3"/>
  <line x1="64" y1="100" x2="96" y2="100" stroke="#000000" stroke-width="3"/>
  <line x1="144" y1="100" x2="176" y2="100" stroke="#000000" stroke-width="3"/>
  <line x1="260" y1="64" x2="260" y2="96" stroke="#000000" stroke-width="3"/>
  <line x1="224" y1="100" x2="256" y2="100" stroke="#000000" stroke-width="3"/>
  <line x1="20" y1="104" x2="20" y2="136" stroke="#000000" stroke-width="3"/>
  <line x1="140" y1="104" x2="140" y2="136" stroke="#000000" stroke-width="3"/>
  <line x1="104" y1="140" x2="136" y2="140" stroke="#000000" stroke-width="3"/>
  <line x1="180" y1="104" x2="180" y2="136" stroke="#000000" stroke-width="3"/>
  <line x1="220" y1="104" x2="220" y2="136" stroke="#000000" stroke-width="3"/>
  <line x1="260" y1="104" x2="260" y2="136" stroke="#000000" stroke-width="3"/>
  <line x1="60" y1="144" x2="60" y2="176" stroke="#000000" stroke-width="3"/>
  <line x1="20" y1="144" x2="20" y2="176" stroke="#000000" stroke-width="3"/>
  <line x1="140" y1="144" x2="140" y2="176" stroke="#000000" stroke-width="3"/>
  <line x1="104" y1="180" x2="136" y2="180" stroke="#000000" stroke-width="3"/>
  <line x1="144" y1="180" x2="176" y2="180" stroke="#000000" stroke-width="3"/>
  <line x1="220" y1="144" x2="220" y2="176" stroke="#000000" stroke-width="3"/>
  <line x1="260" y1="144" x2="260" y2="176" stroke="#000000" stroke-width="3"/>
  <line x1="60" y1="184" x2="60" y2="216" stroke="#000000" stroke-width="3"/>
  <line x1="24" y1="220" x2="56" y2="220" stroke="#000000" stroke-width="3"/>
  <line x1="20" y1="184" x2="20" y2="216" stroke="#000000" stroke-width="3"/>
  <line x1="100" y1="184" x2="100" y2="216" stroke="#000000" stroke-width="3"/>
  <line x1="64" y1="220" x2="96" y2="220" stroke="#000000" stroke-width="3"/>
  <line x1="104" y1="220" x2="136" y2="220" stroke="#000000" stroke-width="3"/>
  <line x1="144" y1="220" x2="176" y2="220" stroke="#000000" stroke-width="3"/>
  <line x1="184" y1="220" x2="216" y2="220" stroke="#000000" stroke-width="3"/>
  <line x1="260" y1="184" x2="260" y2="216" stroke="#000000" stroke-width="3"/>
  <line x1="224" y1="220" x2="256" y2="220" stroke="#000000" stroke-width="3"/>
  <circle cx="40" cy="40" r="6" fill="#00ff00" stroke="#333" stroke-width="1"/>
  <circle cx="80" cy="40" r="6" fill="#ffff00" stroke="#333" stroke-width="1"/>
  <circle cx="120" cy="40" r="6" fill="#ffff00" stroke="#333" stroke-width="1"/>
  <circle cx="160" cy="40" r="6" fill="#ffff00" stroke="#333" stroke-width="1"/>
  <circle cx="200" cy="40" r="6" fill="#f8f8f8" stroke="#333" stroke-width="1"/>
  <circle cx="240" cy="40" r="6" fill="#f8f8f8" stroke="#333" stroke-width="1"/>
  <circle cx="40" cy="80" r="6" fill="#f8f8f8" stroke="#333" stroke-width="1"/>
  <circle cx="80" cy="80" r="6" fill="#f8f8f8" stroke="#333" stroke-width="1"/>
  <circle cx="120" cy="80" r="6" fill="#f8f8f8" stroke="#333" stroke-width="1"/>
  <circle cx="160" cy="80" r="6" fill="#ffff00" stroke="#333" stroke-width="1"/>
  <circle cx="200" cy="80" r="6" fill="#ffff00" stroke="#333" stroke-width="1"/>
  <circle cx="240" cy="80" r="6" fill="#f8f8f8" stroke="#333" stroke-width="1"/>
  <circle cx="40" cy="120" r="6" fill="#f8f8f8" stroke="#333" stroke-width="1"/>
  <circle cx="80" cy="120" r="6" fill="#f8f8f8" stroke="#333" stroke-width="1"/>
  <circle cx="120" cy="120" r="6" fill="#f8f8f8" stroke="#333" stroke-width="1"/>
  <circle cx="160" cy="120" r="6" fill="#f8f8f8" stroke="#333" stroke-width="1"/>
  <circle cx="200" cy="120" r="6" fill="#ffff00" stroke="#333" stroke-width="1"/>
  <circle cx="240" cy="120" r="6" fill="#f8f8f8" stroke="#333" stroke-width="1"/>
  <circle cx="40" cy="160" r="6" fill="#f8f8f8" stroke="#333" stroke-width="1"/>
  <circle cx="80" cy="160" r="6" fill="#f8f8f8" stroke="#333" stroke-width="1"/>
  <circle cx="120" cy="160" r="6" fill="#f8f8f8" stroke="#333" stroke-width="1"/>
  <circle cx="160" cy="160" r="6" fill="#f8f8f8" stroke="#333" stroke-width="1"/>
  <circle cx="200" cy="160" r="6" fill="#ffff00" stroke="#333" stroke-width="1"/>
  <circle cx="240" cy="160" r="6" fill="#f8f8f8" stroke="#333" stroke-width="1"/>
  <circle cx="40" cy="200" r="6" fill="#f8f8f8" stroke="#333" stroke-width="1"/>
  <circle cx="80" cy="200" r="6" fill="#f8f8f8" stroke="#333" stroke-width="1"/>
  <circle cx="120" cy="200" r="6" fill="#f8f8f8" stroke="#333" stroke-width="1"/>
  <circle cx="160" cy="200" r="6" fill="#f8f8f8" stroke="#333" stroke-width="1"/>
  <circle cx="200" cy="200" r="6" fill="#ffff00" stroke="#333" stroke-width="1"/>
  <circle cx="240" cy="200" r="6" fill="#ff0000" stroke="#333" stroke-width="1"/>
</svg>