<svg width="452" height="452" xmlns="http://www.w3.org/2000/svg">
  <rect width="100%" height="100%" fill="#ffffff"/>
  <path d="M 15 15 L 15 45 L 15 75 L 45 75 L 75 75 L 75 105 L 75 135 L 105 135 L 105 165 L 105 195 L 105 225 L 105 255 L 135 255 L 165 255 L 165 285 L 195 285 L 225 285 L 225 315 L 255 315 L 285 315 L 285 345 L 315 345 L 315 375 L 345 375 L 375 375 L 405 375 L 405 405 L 435 405 L 435 435" stroke="#ff0000" stroke-width="4" fill="none" opacity="0.6"/>
  <rect x="1" y="1" width="28" height="28" fill="#00ff00" opacity="0.3"/>
  <rect x="1" y="31" width="28" height="28" fill="#ff0000" opacity="0.3"/>
  <rect x="1" y="61" width="28" height="28" fill="#ff0000" opacity="0.3"/>
  <rect x="31" y="61" width="28" height="28" fill="#ff0000" opacity="0.3"/>
  <rect x="61" y="61" width="28" height="28" fill="#ff0000" opacity="0.3"/>
  <rect x="61" y="91" width="28" height="28" fill="#ff0000" opacity="0.3"/>
  <rect x="61" y="121" width="28" height="28" fill="#ff0000" opacity="0.3"/>
  <rect x="91" y="121" width="28" height="28" fill="#ff0000" opacity="0.3"/>
  <rect x="91" y="151" width="28" height="28" fill="#ff0000" opacity="0.3"/>
  <rect x="91" y="181" width="28" height="28" fill="#ff0000" opacity="0.3"/>
  <rect x="91" y="211" width="28" height="28" fill="#ff0000" opacity="0.3"/>
  <rect x="91" y="241" width="28" height="28" fill="#ff0000" opacity="0.3"/>
  <rect x="121" y="241" width="28" height="28" fill="#ff0000" opacity="0.3"/>
  <rect x="151" y="241" width="28" height="28" fill="#ff0000" opacity="0.3"/>
  <rect x="151" y="271" width="28" height="28" fill="#ff0000" opacity="0.3"/>
  <rect x="181" y="271" width="28" height="28" fill="#ff0000" opacity="0.3"/>
  <rect x="211" y="271" width="28" height="28" fill="#ff0000" opacity="0.3"/>
  <rect x="211" y="301" width="28" height="28" fill="#ff0000" opacity="0.3"/>
  <rect x="241" y="301" width="28" height="28" fill="#ff0000" opacity="0.3"/>
  <rect x="271" y="301" width="28" height="28" fill="#ff0000" opacity="0.3"/>
  <rect x="271" y="331" width="28" height="28" fill="#ff0000" opacity="0.3"/>
  <rect x="301" y="331" width="28" height="28" fill="#ff0000" opacity="0.3"/>
  <rect x="301" y="361" width="28" height="28" fill="#ff0000" opacity="0.3"/>
  <rect x="331" y="361" width="28" height="28" fill="#ff0000" opacity="0.3"/>
  <rect x="361" y="361" width="28" height="28" fill="#ff0000" opacity="0.3"/>
  <rect x="391" y="361" width="28" height="28" fill="#ff0000" opacity="0.3"/>
  <rect x="391" y="391" width="28" height="28" fill="#ff0000" opacity="0.3"/>
  <rect x="421" y="391" width="28" height="28" fill="#ff0000" opacity="0.3"/>
  <rect x="421" y="421" width="28" height="28" fill="#ff0000" opacity="0.3"/>
  <line x1="0" y1="0" x2="0" y2="30" stroke="#000000" stroke-width="2"/>
  <line x1="0" y1="0" x2="30" y2="0" stroke="#000000" stroke-width="2"/>
  <line x1="60" y1="0" x2="60" y2="30" stroke="#000000" stroke-width="2"/>
  <line x1="30" y1="30" x2="60" y2="30" stroke="#000000" stroke-width="2"/>
  <line x1="30" y1="0" x2="60" y2="0" stroke="#000000" stroke-width="2"/>
  <line x1="60" y1="30" x2="90" y2="30" stroke="#000000" stroke-width="2"/>
  <line x1="60" y1="0" x2="90" y2="0" stroke="#000000" stroke-width="2"/>
  <line x1="120" y1="0" x2="120" y2="30" stroke="#000000" stroke-width="2"/>
  <line x1="90" y1="0" x2="120" y2="0" stroke="#000000" stroke-width="2"/>
  <line x1="120" y1="0" x2="150" y2="0" stroke="#000000" stroke-width="2"/>
  <line x1="180" y1="0" x2="180" y2="30" stroke="#000000" stroke-width="2"/>
  <line x1="150" y1="30" x2="180" y2="30" stroke="#000000" stroke-width="2"/>
  <line x1="150" y1="0" x2="180" y2="0" stroke="#000000" stroke-width="2"/>
  <line x1="180" y1="0" x2="210" y2="0" stroke="#000000" stroke-width="2"/>
  <line x1="240" y1="0" x2="240" y2="30" stroke="#000000" stroke-width="2"/>
  <line x1="210" y1="0" x2="240" y2="0" stroke="#000000" stroke-width="2"/>
  <line x1="270" y1="0" x2="270" y2="30" stroke="#000000" stroke-width="2"/>
  <line x1="240" y1="0" x2="270" y2="0" stroke="#000000" stroke-width="2"/>
  <line x1="270" y1="0" x2="300" y2="0" stroke="#000000" stroke-width="2"/>
  <line x1="330" y1="0" x2="330" y2="30" stroke="#000000" stroke-width="2"/>
  <line x1="300" y1="0" x2="330" y2="0" stroke="#000000" stroke-width="2"/>
  <line x1="360" y1="0" x2="360" y2="30" stroke="#000000" stroke-width="2"/>
  <line x1="330" y1="0" x2="360" y2="0" stroke="#000000" stroke-width="2"/>
  <line x1="360" y1="0" x2="390" y2="0" stroke="#000000" stroke-width="2"/>
  <line x1="390" y1="30" x2="420" y2="30" stroke="#000000" stroke-width="2"/>
  <line x1="390" y1="0" x2="420" y2="0" stroke="#000000" stroke-width="2"/>
  <line x1="450" y1="0" x2="450" y2="30" stroke="#000000" stroke-width="2"/>
  <line x1="420" y1="0" x2="450" y2="0" stroke="#000000" stroke-width="2"/>
  <line x1="0" y1="30" x2="0" y2="60" stroke="#000000" stroke-width="2"/>
  <line x1="30" y1="60" x2="60" y2="60" stroke="#000000" stroke-width="2"/>
  <line x1="90" y1="30" x2="90" y2="60" stroke="#000000" stroke-width="2"/>
  <line x1="60" y1="60" x2="90" y2="60" stroke="#000000" stroke-width="2"/>
  <line x1="120" y1="60" x2="150" y2="60" stroke="#000000" stroke-width="2"/>
  <line x1="210" y1="30" x2="210" y2="60" stroke="#000000" stroke-width="2"/>
  <line x1="180" y1="60" x2="210" y2="60" stroke="#000000" stroke-width="2"/>
  <line x1="210" y1="60" x2="240" y2="60" stroke="#000000" stroke-width="2"/>
  <line x1="240" y1="60" x2="270" y2="60" stroke="#000000" stroke-width="2"/>
  <line x1="300" y1="30" x2="300" y2="60" stroke="#000000" stroke-width="2"/>
  <line x1="330" y1="30" x2="330" y2="60" stroke="#000000" stroke-width="2"/>
  <line x1="300" y1="60" x2="330" y2="60" stroke="#000000" stroke-width="2"/>
  <line x1="330" y1="60" x2="360" y2="60" stroke="#000000" stroke-width="2"/>
  <line x1="360" y1="60" x2="390" y2="60" stroke="#000000" stroke-width="2"/>
  <line x1="420" y1="30" x2="420" y2="60" stroke="#000000" stroke-width="2"/>
  <line x1="450" y1="30" x2="450" y2="60" stroke="#000000" stroke-width="2"/>
  <line x1="420" y1="60" x2="450" y2="60" stroke="#000000" stroke-width="2"/>
  <line x1="0" y1="90" x2="30" y2="90" stroke="#000000" stroke-width="2"/>
  <line x1="0" y1="60" x2="0" y2="90" stroke="#000000" stroke-width="2"/>
  <line x1="90" y1="60" x2="90" y2="90" stroke="#000000" stroke-width="2"/>
  <line x1="150" y1="60" x2="150" y2="90" stroke="#000000" stroke-width="2"/>
  <line x1="120" y1="90" x2="150" y2="90" stroke="#000000" stroke-width="2"/>
  <line x1="210" y1="60" x2="210" y2="90" stroke="#000000" stroke-width="2"/>
  <line x1="180" y1="90" x2="210" y2="90" stroke="#000000" stroke-width="2"/>
  <line x1="210" y1="90" x2="240" y2="90" stroke="#000000" stroke-width="2"/>
  <line x1="270" y1="60" x2="270" y2="90" stroke="#000000" stroke-width="2"/>
  <line x1="270" y1="90" x2="300" y2="90" stroke="#000000" stroke-width="2"/>
  <line x1="330" y1="60" x2="330" y2="90" stroke="#000000" stroke-width="2"/>
  <line x1="300" y1="90" x2="330" y2="90" stroke="#000000" stroke-width="2"/>
  <line x1="360" y1="90" x2="390" y2="90" stroke="#000000" stroke-width="2"/>
  <line x1="390" y1="90" x2="420" y2="90" stroke="#000000" stroke-width="2"/>
  <line x1="450" y1="60" x2="450" y2="90" stroke="#000000" stroke-width="2"/>
  <line x1="0" y1="120" x2="30" y2="120" stroke="#000000" stroke-width="2"/>
  <line x1="0" y1="90" x2="0" y2="120" stroke="#000000" stroke-width="2"/>
  <line x1="60" y1="90" x2="60" y2="120" stroke="#000000" stroke-width="2"/>
  <line x1="30" y1="120" x2="60" y2="120" stroke="#000000" stroke-width="2"/>
  <line x1="120" y1="90" x2="120" y2="120" stroke="#000000" stroke-width="2"/>
  <line x1="90" y1="120" x2="120" y2="120" stroke="#000000" stroke-width="2"/>
  <line x1="150" y1="90" x2="150" y2="120" stroke="#000000" stroke-width="2"/>
  <line x1="180" y1="90" x2="180" y2="120" stroke="#000000" stroke-width="2"/>
  <line x1="210" y1="90" x2="210" y2="120" stroke="#000000" stroke-width="2"/>
  <line x1="240" y1="120" x2="270" y2="120" stroke="#000000" stroke-width="2"/>
  <line x1="300" y1="90" x2="300" y2="120" stroke="#000000" stroke-width="2"/>
  <line x1="300" y1="120" x2="330" y2="120" stroke="#000000" stroke-width="2"/>
  <line x1="360" y1="90" x2="360" y2="120" stroke="#000000" stroke-width="2"/>
  <line x1="330" y1="120" x2="360" y2="120" stroke="#000000" stroke-width="2"/>
  <line x1="420" y1="90" x2="420" y2="120" stroke="#000000" stroke-width="2"/>
  <line x1="390" y1="120" x2="420" y2="120" stroke="#000000" stroke-width="2"/>
  <line x1="450" y1="90" x2="450" y2="120" stroke="#000000" stroke-width="2"/>
  <line x1="0" y1="120" x2="0" y2="150" stroke="#000000" stroke-width="2"/>
  <line x1="60" y1="150" x2="90" y2="150" stroke="#000000" stroke-width="2"/>
  <line x1="150" y1="120" x2="150" y2="150" stroke="#000000" stroke-width="2"/>
  <line x1="120" y1="150" x2="150" y2="150" stroke="#000000" stroke-width="2"/>
  <line x1="210" y1="120" x2="210" y2="150" stroke="#000000" stroke-width="2"/>
  <line x1="210" y1="150" x2="240" y2="150" stroke="#000000" stroke-width="2"/>
  <line x1="270" y1="120" x2="270" y2="150" stroke="#000000" stroke-width="2"/>
  <line x1="300" y1="120" x2="300" y2="150" stroke="#000000" stroke-width="2"/>
  <line x1="330" y1="120" x2="330" y2="150" stroke="#000000" stroke-width="2"/>
  <line x1="330" y1="150" x2="360" y2="150" stroke="#000000" stroke-width="2"/>
  <line x1="360" y1="150" x2="390" y2="150" stroke="#000000" stroke-width="2"/>
  <line x1="390" y1="150" x2="420" y2="150" stroke="#000000" stroke-width="2"/>
  <line x1="450" y1="120" x2="450" y2="150" stroke="#000000" stroke-width="2"/>
  <line x1="30" y1="150" x2="30" y2="180" stroke="#000000" stroke-width="2"/>
  <line x1="0" y1="150" x2="0" y2="180" stroke="#000000" stroke-width="2"/>
  <line x1="30" y1="180" x2="60" y2="180" stroke="#000000" stroke-width="2"/>
  <line x1="90" y1="150" x2="90" y2="180" stroke="#000000" stroke-width="2"/>
  <line x1="120" y1="150" x2="120" y2="180" stroke="#000000" stroke-width="2"/>
  <line x1="120" y1="180" x2="150" y2="180" stroke="#000000" stroke-width="2"/>
  <line x1="180" y1="150" x2="180" y2="180" stroke="#000000" stroke-width="2"/>
  <line x1="150" y1="180" x2="180" y2="180" stroke="#000000" stroke-width="2"/>
  <line x1="180" y1="180" x2="210" y2="180" stroke="#000000" stroke-width="2"/>
  <line x1="270" y1="150" x2="270" y2="180" stroke="#000000" stroke-width="2"/>
  <line x1="300" y1="150" x2="300" y2="180" stroke="#000000" stroke-width="2"/>
  <line x1="270" y1="180" x2="300" y2="180" stroke="#000000" stroke-width="2"/>
  <line x1="300" y1="180" x2="330" y2="180" stroke="#000000" stroke-width="2"/>
  <line x1="330" y1="180" x2="360" y2="180" stroke="#000000" stroke-width="2"/>
  <line x1="420" y1="150" x2="420" y2="180" stroke="#000000" stroke-width="2"/>
  <line x1="390" y1="180" x2="420" y2="180" stroke="#000000" stroke-width="2"/>
  <line x1="450" y1="150" x2="450" y2="180" stroke="#000000" stroke-width="2"/>
  <line x1="0" y1="210" x2="30" y2="210" stroke="#000000" stroke-width="2"/>
  <line x1="0" y1="180" x2="0" y2="210" stroke="#000000" stroke-width="2"/>
  <line x1="60" y1="180" x2="60" y2="210" stroke="#000000" stroke-width="2"/>
  <line x1="30" y1="210" x2="60" y2="210" stroke="#000000" stroke-width="2"/>
  <line x1="90" y1="180" x2="90" y2="210" stroke="#000000" stroke-width="2"/>
  <line x1="60" y1="210" x2="90" y2="210" stroke="#000000" stroke-width="2"/>
  <line x1="120" y1="180" x2="120" y2="210" stroke="#000000" stroke-width="2"/>
  <line x1="120" y1="210" x2="150" y2="210" stroke="#000000" stroke-width="2"/>
  <line x1="180" y1="180" x2="180" y2="210" stroke="#000000" stroke-width="2"/>
  <line x1="180" y1="210" x2="210" y2="210" stroke="#000000" stroke-width="2"/>
  <line x1="240" y1="180" x2="240" y2="210" stroke="#000000" stroke-width="2"/>
  <line x1="210" y1="210" x2="240" y2="210" stroke="#000000" stroke-width="2"/>
  <line x1="270" y1="180" x2="270" y2="210" stroke="#000000" stroke-width="2"/>
  <line x1="240" y1="210" x2="270" y2="210" stroke="#000000" stroke-width="2"/>
  <line x1="300" y1="180" x2="300" y2="210" stroke="#000000" stroke-width="2"/>
  <line x1="360" y1="210" x2="390" y2="210" stroke="#000000" stroke-width="2"/>
  <line x1="420" y1="180" x2="420" y2="210" stroke="#000000" stroke-width="2"/>
  <line x1="390" y1="210" x2="420" y2="210" stroke="#000000" stroke-width="2"/>
  <line x1="450" y1="180" x2="450" y2="210" stroke="#000000" stroke-width="2"/>
  <line x1="0" y1="240" x2="30" y2="240" stroke="#000000" stroke-width="2"/>
  <line x1="0" y1="210" x2="0" y2="240" stroke="#000000" stroke-width="2"/>
  <line x1="60" y1="210" x2="60" y2="240" stroke="#000000" stroke-width="2"/>
  <line x1="90" y1="210" x2="90" y2="240" stroke="#000000" stroke-width="2"/>
  <line x1="120" y1="210" x2="120" y2="240" stroke="#000000" stroke-width="2"/>
  <line x1="150" y1="210" x2="150" y2="240" stroke="#000000" stroke-width="2"/>
  <line x1="150" y1="240" x2="180" y2="240" stroke="#000000" stroke-width="2"/>
  <line x1="210" y1="240" x2="240" y2="240" stroke="#000000" stroke-width="2"/>
  <line x1="270" y1="210" x2="270" y2="240" stroke="#000000" stroke-width="2"/>
  <line x1="270" y1="240" x2="300" y2="240" stroke="#000000" stroke-width="2"/>
  <line x1="330" y1="210" x2="330" y2="240" stroke="#000000" stroke-width="2"/>
  <line x1="330" y1="240" x2="360" y2="240" stroke="#000000" stroke-width="2"/>
  <line x1="360" y1="240" x2="390" y2="240" stroke="#000000" stroke-width="2"/>
  <line x1="420" y1="210" x2="420" y2="240" stroke="#000000" stroke-width="2"/>
  <line x1="450" y1="210" x2="450" y2="240" stroke="#000000" stroke-width="2"/>
  <line x1="0" y1="240" x2="0" y2="270" stroke="#000000" stroke-width="2"/>
  <line x1="30" y1="270" x2="60" y2="270" stroke="#000000" stroke-width="2"/>
  <line x1="60" y1="270" x2="90" y2="270" stroke="#000000" stroke-width="2"/>
  <line x1="90" y1="270" x2="120" y2="270" stroke="#000000" stroke-width="2"/>
  <line x1="180" y1="240" x2="180" y2="270" stroke="#000000" stroke-width="2"/>
  <line x1="210" y1="240" x2="210" y2="270" stroke="#000000" stroke-width="2"/>
  <line x1="240" y1="240" x2="240" y2="270" stroke="#000000" stroke-width="2"/>
  <line x1="240" y1="270" x2="270" y2="270" stroke="#000000" stroke-width="2"/>
  <line x1="270" y1="270" x2="300" y2="270" stroke="#000000" stroke-width="2"/>
  <line x1="300" y1="270" x2="330" y2="270" stroke="#000000" stroke-width="2"/>
  <line x1="360" y1="240" x2="360" y2="270" stroke="#000000" stroke-width="2"/>
  <line x1="330" y1="270" x2="360" y2="270" stroke="#000000" stroke-width="2"/>
  <line x1="420" y1="240" x2="420" y2="270" stroke="#000000" stroke-width="2"/>
  <line x1="450" y1="240" x2="450" y2="270" stroke="#000000" stroke-width="2"/>
  <line x1="30" y1="270" x2="30" y2="300" stroke="#000000" stroke-width="2"/>
  <line x1="0" y1="270" x2="0" y2="300" stroke="#000000" stroke-width="2"/>
  <line x1="30" y1="300" x2="60" y2="300" stroke="#000000" stroke-width="2"/>
  <line x1="90" y1="300" x2="120" y2="300" stroke="#000000" stroke-width="2"/>
  <line x1="150" y1="270" x2="150" y2="300" stroke="#000000" stroke-width="2"/>
  <line x1="120" y1="300" x2="150" y2="300" stroke="#000000" stroke-width="2"/>
  <line x1="180" y1="300" x2="210" y2="300" stroke="#000000" stroke-width="2"/>
  <line x1="240" y1="270" x2="240" y2="300" stroke="#000000" stroke-width="2"/>
  <line x1="270" y1="270" x2="270" y2="300" stroke="#000000" stroke-width="2"/>
  <line x1="270" y1="300" x2="300" y2="300" stroke="#000000" stroke-width="2"/>
  <line x1="330" y1="270" x2="330" y2="300" stroke="#000000" stroke-width="2"/>
  <line x1="360" y1="270" x2="360" y2="300" stroke="#000000" stroke-width="2"/>
  <line x1="390" y1="270" x2="390" y2="300" stroke="#000000" stroke-width="2"/>
  <line x1="420" y1="270" x2="420" y2="300" stroke="#000000" stroke-width="2"/>
  <line x1="390" y1="300" x2="420" y2="300" stroke="#000000" stroke-width="2"/>
  <line x1="450" y1="270" x2="450" y2="300" stroke="#000000" stroke-width="2"/>
  <line x1="0" y1="300" x2="0" y2="330" stroke="#000000" stroke-width="2"/>
  <line x1="60" y1="300" x2="60" y2="330" stroke="#000000" stroke-width="2"/>
  <line x1="120" y1="300" x2="120" y2="330" stroke="#000000" stroke-width="2"/>
  <line x1="90" y1="330" x2="120" y2="330" stroke="#000000" stroke-width="2"/>
  <line x1="120" y1="330" x2="150" y2="330" stroke="#000000" stroke-width="2"/>
  <line x1="150" y1="330" x2="180" y2="330" stroke="#000000" stroke-width="2"/>
  <line x1="210" y1="300" x2="210" y2="330" stroke="#000000" stroke-width="2"/>
  <line x1="300" y1="300" x2="300" y2="330" stroke="#000000" stroke-width="2"/>
  <line x1="300" y1="330" x2="330" y2="330" stroke="#000000" stroke-width="2"/>
  <line x1="360" y1="300" x2="360" y2="330" stroke="#000000" stroke-width="2"/>
  <line x1="360" y1="330" x2="390" y2="330" stroke="#000000" stroke-width="2"/>
  <line x1="420" y1="300" x2="420" y2="330" stroke="#000000" stroke-width="2"/>
  <line x1="390" y1="330" x2="420" y2="330" stroke="#000000" stroke-width="2"/>
  <line x1="450" y1="300" x2="450" y2="330" stroke="#000000" stroke-width="2"/>
  <line x1="30" y1="330" x2="30" y2="360" stroke="#000000" stroke-width="2"/>
  <line x1="0" y1="330" x2="0" y2="360" stroke="#000000" stroke-width="2"/>
  <line x1="60" y1="330" x2="60" y2="360" stroke="#000000" stroke-width="2"/>
  <line x1="90" y1="330" x2="90" y2="360" stroke="#000000" stroke-width="2"/>
  <line x1="60" y1="360" x2="90" y2="360" stroke="#000000" stroke-width="2"/>
  <line x1="90" y1="360" x2="120" y2="360" stroke="#000000" stroke-width="2"/>
  <line x1="120" y1="360" x2="150" y2="360" stroke="#000000" stroke-width="2"/>
  <line x1="210" y1="330" x2="210" y2="360" stroke="#000000" stroke-width="2"/>
  <line x1="240" y1="330" x2="240" y2="360" stroke="#000000" stroke-width="2"/>
  <line x1="210" y1="360" x2="240" y2="360" stroke="#000000" stroke-width="2"/>
  <line x1="270" y1="330" x2="270" y2="360" stroke="#000000" stroke-width="2"/>
  <line x1="240" y1="360" x2="270" y2="360" stroke="#000000" stroke-width="2"/>
  <line x1="330" y1="330" x2="330" y2="360" stroke="#000000" stroke-width="2"/>
  <line x1="360" y1="330" x2="360" y2="360" stroke="#000000" stroke-width="2"/>
  <line x1="390" y1="330" x2="390" y2="360" stroke="#000000" stroke-width="2"/>
  <line x1="450" y1="330" x2="450" y2="360" stroke="#000000" stroke-width="2"/>
  <line x1="420" y1="360" x2="450" y2="360" stroke="#000000" stroke-width="2"/>
  <line x1="30" y1="360" x2="30" y2="390" stroke="#000000" stroke-width="2"/>
  <line x1="0" y1="390" x2="30" y2="390" stroke="#000000" stroke-width="2"/>
  <line x1="0" y1="360" x2="0" y2="390" stroke="#000000" stroke-width="2"/>
  <line x1="60" y1="360" x2="60" y2="390" stroke="#000000" stroke-width="2"/>
  <line x1="90" y1="360" x2="90" y2="390" stroke="#000000" stroke-width="2"/>
  <line x1="120" y1="360" x2="120" y2="390" stroke="#000000" stroke-width="2"/>
  <line x1="120" y1="390" x2="150" y2="390" stroke="#000000" stroke-width="2"/>
  <line x1="180" y1="360" x2="180" y2="390" stroke="#000000" stroke-width="2"/>
  <line x1="210" y1="360" x2="210" y2="390" stroke="#000000" stroke-width="2"/>
  <line x1="240" y1="360" x2="240" y2="390" stroke="#000000" stroke-width="2"/>
  <line x1="240" y1="390" x2="270" y2="390" stroke="#000000" stroke-width="2"/>
  <line x1="300" y1="360" x2="300" y2="390" stroke="#000000" stroke-width="2"/>
  <line x1="300" y1="390" x2="330" y2="390" stroke="#000000" stroke-width="2"/>
  <line x1="330" y1="390" x2="360" y2="390" stroke="#000000" stroke-width="2"/>
  <line x1="360" y1="390" x2="390" y2="390" stroke="#000000" stroke-width="2"/>
  <line x1="420" y1="360" x2="420" y2="390" stroke="#000000" stroke-width="2"/>
  <line x1="450" y1="360" x2="450" y2="390" stroke="#000000" stroke-width="2"/>
  <line x1="0" y1="390" x2="0" y2="420" stroke="#000000" stroke-width="2"/>
  <line x1="90" y1="390" x2="90" y2="420" stroke="#000000" stroke-width="2"/>
  <line x1="60" y1="420" x2="90" y2="420" stroke="#000000" stroke-width="2"/>
  <line x1="90" y1="420" x2="120" y2="420" stroke="#000000" stroke-width="2"/>
  <line x1="180" y1="390" x2="180" y2="420" stroke="#000000" stroke-width="2"/>
  <line x1="150" y1="420" x2="180" y2="420" stroke="#000000" stroke-width="2"/>
  <line x1="210" y1="390" x2="210" y2="420" stroke="#000000" stroke-width="2"/>
  <line x1="180" y1="420" x2="210" y2="420" stroke="#000000" stroke-width="2"/>
  <line x1="240" y1="420" x2="270" y2="420" stroke="#000000" stroke-width="2"/>
  <line x1="270" y1="420" x2="300" y2="420" stroke="#000000" stroke-width="2"/>
  <line x1="300" y1="420" x2="330" y2="420" stroke="#000000" stroke-width="2"/>
  <line x1="360" y1="390" x2="360" y2="420" stroke="#000000" stroke-width="2"/>
  <line x1="330" y1="420" x2="360" y2="420" stroke="#000000" stroke-width="2"/>
  <line x1="360" y1="420" x2="390" y2="420" stroke="#000000" stroke-width="2"/>
  <line x1="450" y1="390" x2="450" y2="420" stroke="#000000" stroke-width="2"/>
  <line x1="30" y1="420" x2="30" y2="450" stroke="#000000" stroke-width="2"/>
  <line x1="0" y1="450" x2="30" y2="450" stroke="#000000" stroke-width="2"/>
  <line x1="0" y1="420" x2="0" y2="450" stroke="#000000" stroke-width="2"/>
  <line x1="30" y1="450" x2="60" y2="450" stroke="#000000" stroke-width="2"/>
  <line x1="60" y1="450" x2="90" y2="450" stroke="#000000" stroke-width="2"/>
  <line x1="120" y1="420" x2="120" y2="450" stroke="#000000" stroke-width="2"/>
  <line x1="90" y1="450" x2="120" y2="450" stroke="#000000" stroke-width="2"/>
  <line x1="120" y1="450" x2="150" y2="450" stroke="#000000" stroke-width="2"/>
  <line x1="180" y1="420" x2="180" y2="450" stroke="#000000" stroke-width="2"/>
  <line x1="150" y1="450" x2="180" y2="450" stroke="#000000" stroke-width="2"/>
  <line x1="180" y1="450" x2="210" y2="450" stroke="#000000" stroke-width="2"/>
  <line x1="210" y1="450" x2="240" y2="450" stroke="#000000" stroke-width="2"/>
  <line x1="240" y1="450" x2="270" y2="450" stroke="#000000" stroke-width="2"/>
  <line x1="270" y1="450" x2="300" y2="450" stroke="#000000" stroke-width="2"/>
  <line x1="300" y1="450" x2="330" y2="450" stroke="#000000" stroke-width="2"/>
  <line x1="330" y1="450" x2="360" y2="450" stroke="#000000" stroke-width="2"/>
  <line x1="390" y1="420" x2="390" y2="450" stroke="#000000" stroke-width="2"/>
  <line x1="360" y1="450" x2="390" y2="450" stroke="#000000" stroke-width="2"/>
  <line x1="420" y1="420" x2="420" y2="450" stroke="#000000" stroke-width="2"/>
  <line x1="390" y1="450" x2="420" y2="450" stroke="#000000" stroke-width="2"/>
  <line x1="450" y1="420" x2="450" y2="450" stroke="#000000" stroke-width="2"/>
  <line x1="420" y1="450" x2="450" y2="450" stroke="#000000" stroke-width="2"/>
</svg>